%TF.GenerationSoftware,KiCad,Pcbnew,9.0.7*%
%TF.CreationDate,2026-02-10T20:55:20-08:00*%
%TF.ProjectId,Blinky,426c696e-6b79-42e6-9b69-6361645f7063,rev?*%
%TF.SameCoordinates,Original*%
%TF.FileFunction,Soldermask,Top*%
%TF.FilePolarity,Negative*%
%FSLAX46Y46*%
G04 Gerber Fmt 4.6, Leading zero omitted, Abs format (unit mm)*
G04 Created by KiCad (PCBNEW 9.0.7) date 2026-02-10 20:55:20*
%MOMM*%
%LPD*%
G01*
G04 APERTURE LIST*
G04 Aperture macros list*
%AMRoundRect*
0 Rectangle with rounded corners*
0 $1 Rounding radius*
0 $2 $3 $4 $5 $6 $7 $8 $9 X,Y pos of 4 corners*
0 Add a 4 corners polygon primitive as box body*
4,1,4,$2,$3,$4,$5,$6,$7,$8,$9,$2,$3,0*
0 Add four circle primitives for the rounded corners*
1,1,$1+$1,$2,$3*
1,1,$1+$1,$4,$5*
1,1,$1+$1,$6,$7*
1,1,$1+$1,$8,$9*
0 Add four rect primitives between the rounded corners*
20,1,$1+$1,$2,$3,$4,$5,0*
20,1,$1+$1,$4,$5,$6,$7,0*
20,1,$1+$1,$6,$7,$8,$9,0*
20,1,$1+$1,$8,$9,$2,$3,0*%
G04 Aperture macros list end*
%ADD10R,1.800000X1.800000*%
%ADD11C,1.800000*%
%ADD12C,1.600000*%
%ADD13RoundRect,0.250000X0.550000X-0.550000X0.550000X0.550000X-0.550000X0.550000X-0.550000X-0.550000X0*%
%ADD14RoundRect,0.412500X-0.412500X-0.412500X0.412500X-0.412500X0.412500X0.412500X-0.412500X0.412500X0*%
%ADD15C,1.650000*%
%ADD16R,1.700000X1.700000*%
%ADD17C,1.700000*%
%ADD18C,2.000000*%
%ADD19RoundRect,0.250000X-0.550000X-0.550000X0.550000X-0.550000X0.550000X0.550000X-0.550000X0.550000X0*%
%ADD20R,1.295400X1.295400*%
%ADD21C,1.295400*%
G04 APERTURE END LIST*
D10*
%TO.C,D4*%
X184320000Y-90830000D03*
D11*
X186860000Y-90830000D03*
%TD*%
D12*
%TO.C,R3*%
X180630000Y-92180000D03*
X180630000Y-84560000D03*
%TD*%
D10*
%TO.C,D5*%
X193370000Y-94500000D03*
D11*
X195910000Y-94500000D03*
%TD*%
D13*
%TO.C,U1*%
X131880000Y-103540000D03*
D12*
X134420000Y-103540000D03*
X136960000Y-103540000D03*
X139500000Y-103540000D03*
X139500000Y-95920000D03*
X136960000Y-95920000D03*
X134420000Y-95920000D03*
X131880000Y-95920000D03*
%TD*%
D14*
%TO.C,RV1*%
X130890000Y-89550000D03*
D15*
X133430000Y-89550000D03*
X135970000Y-89550000D03*
%TD*%
D10*
%TO.C,D8*%
X183260000Y-138800000D03*
D11*
X185800000Y-138800000D03*
%TD*%
D10*
%TO.C,D9*%
X127270000Y-144070000D03*
D11*
X129810000Y-144070000D03*
%TD*%
D16*
%TO.C,J1*%
X152150000Y-64550000D03*
D17*
X149610000Y-64550000D03*
%TD*%
D10*
%TO.C,D10*%
X119670000Y-135810000D03*
D11*
X122210000Y-135810000D03*
%TD*%
D16*
%TO.C,J2*%
X151450000Y-60800000D03*
%TD*%
D18*
%TO.C,C2*%
X134330000Y-108440000D03*
X139330000Y-108440000D03*
%TD*%
D10*
%TO.C,D6*%
X176260000Y-137630000D03*
D11*
X178800000Y-137630000D03*
%TD*%
D10*
%TO.C,D3*%
X189170000Y-83490000D03*
D11*
X191710000Y-83490000D03*
%TD*%
D10*
%TO.C,D12*%
X112320000Y-84140000D03*
D11*
X114860000Y-84140000D03*
%TD*%
D19*
%TO.C,C1*%
X146140000Y-120010000D03*
D12*
X148140000Y-120010000D03*
%TD*%
D10*
%TO.C,D7*%
X174220000Y-144470000D03*
D11*
X176760000Y-144470000D03*
%TD*%
D12*
%TO.C,R2*%
X141350000Y-87980000D03*
X148970000Y-87980000D03*
%TD*%
D10*
%TO.C,D11*%
X107870000Y-93580000D03*
D11*
X110410000Y-93580000D03*
%TD*%
D20*
%TO.C,U2*%
X147960000Y-94280000D03*
D21*
X147960000Y-96820000D03*
X147960000Y-99360000D03*
X147960000Y-101900000D03*
X147960000Y-104440000D03*
X147960000Y-106980000D03*
X147960000Y-109520000D03*
X147960000Y-112060000D03*
X155580000Y-112060000D03*
X155580000Y-109520000D03*
X155580000Y-106980000D03*
X155580000Y-104440000D03*
X155580000Y-101900000D03*
X155580000Y-99360000D03*
X155580000Y-96820000D03*
X155580000Y-94280000D03*
%TD*%
M02*
