%TF.GenerationSoftware,KiCad,Pcbnew,9.0.7*%
%TF.CreationDate,2026-02-10T20:55:20-08:00*%
%TF.ProjectId,Blinky,426c696e-6b79-42e6-9b69-6361645f7063,rev?*%
%TF.SameCoordinates,Original*%
%TF.FileFunction,Copper,L1,Top*%
%TF.FilePolarity,Positive*%
%FSLAX46Y46*%
G04 Gerber Fmt 4.6, Leading zero omitted, Abs format (unit mm)*
G04 Created by KiCad (PCBNEW 9.0.7) date 2026-02-10 20:55:20*
%MOMM*%
%LPD*%
G01*
G04 APERTURE LIST*
G04 Aperture macros list*
%AMRoundRect*
0 Rectangle with rounded corners*
0 $1 Rounding radius*
0 $2 $3 $4 $5 $6 $7 $8 $9 X,Y pos of 4 corners*
0 Add a 4 corners polygon primitive as box body*
4,1,4,$2,$3,$4,$5,$6,$7,$8,$9,$2,$3,0*
0 Add four circle primitives for the rounded corners*
1,1,$1+$1,$2,$3*
1,1,$1+$1,$4,$5*
1,1,$1+$1,$6,$7*
1,1,$1+$1,$8,$9*
0 Add four rect primitives between the rounded corners*
20,1,$1+$1,$2,$3,$4,$5,0*
20,1,$1+$1,$4,$5,$6,$7,0*
20,1,$1+$1,$6,$7,$8,$9,0*
20,1,$1+$1,$8,$9,$2,$3,0*%
G04 Aperture macros list end*
%TA.AperFunction,ComponentPad*%
%ADD10R,1.800000X1.800000*%
%TD*%
%TA.AperFunction,ComponentPad*%
%ADD11C,1.800000*%
%TD*%
%TA.AperFunction,ComponentPad*%
%ADD12C,1.600000*%
%TD*%
%TA.AperFunction,ComponentPad*%
%ADD13RoundRect,0.250000X0.550000X-0.550000X0.550000X0.550000X-0.550000X0.550000X-0.550000X-0.550000X0*%
%TD*%
%TA.AperFunction,ComponentPad*%
%ADD14RoundRect,0.412500X-0.412500X-0.412500X0.412500X-0.412500X0.412500X0.412500X-0.412500X0.412500X0*%
%TD*%
%TA.AperFunction,ComponentPad*%
%ADD15C,1.650000*%
%TD*%
%TA.AperFunction,ComponentPad*%
%ADD16R,1.700000X1.700000*%
%TD*%
%TA.AperFunction,ComponentPad*%
%ADD17C,1.700000*%
%TD*%
%TA.AperFunction,ComponentPad*%
%ADD18C,2.000000*%
%TD*%
%TA.AperFunction,ComponentPad*%
%ADD19RoundRect,0.250000X-0.550000X-0.550000X0.550000X-0.550000X0.550000X0.550000X-0.550000X0.550000X0*%
%TD*%
%TA.AperFunction,ComponentPad*%
%ADD20R,1.295400X1.295400*%
%TD*%
%TA.AperFunction,ComponentPad*%
%ADD21C,1.295400*%
%TD*%
%TA.AperFunction,Conductor*%
%ADD22C,0.200000*%
%TD*%
G04 APERTURE END LIST*
D10*
%TO.P,D4,1,K*%
%TO.N,Net-(D10-K)*%
X184320000Y-90830000D03*
D11*
%TO.P,D4,2,A*%
%TO.N,Net-(D4-A)*%
X186860000Y-90830000D03*
%TD*%
D12*
%TO.P,R3,1*%
%TO.N,Net-(D10-K)*%
X180630000Y-92180000D03*
%TO.P,R3,2*%
%TO.N,GND*%
X180630000Y-84560000D03*
%TD*%
D10*
%TO.P,D5,1,K*%
%TO.N,Net-(D10-K)*%
X193370000Y-94500000D03*
D11*
%TO.P,D5,2,A*%
%TO.N,Net-(D5-A)*%
X195910000Y-94500000D03*
%TD*%
D13*
%TO.P,U1,1,GND*%
%TO.N,GND*%
X131880000Y-103540000D03*
D12*
%TO.P,U1,2,TRIG*%
%TO.N,TR*%
X134420000Y-103540000D03*
%TO.P,U1,3,OUT*%
%TO.N,OUT*%
X136960000Y-103540000D03*
%TO.P,U1,4,~{RST}*%
%TO.N,+5V*%
X139500000Y-103540000D03*
%TO.P,U1,5,CONT*%
%TO.N,Net-(U1-CONT)*%
X139500000Y-95920000D03*
%TO.P,U1,6,THRES*%
%TO.N,TR*%
X136960000Y-95920000D03*
%TO.P,U1,7,DISCH*%
%TO.N,Net-(U1-DISCH)*%
X134420000Y-95920000D03*
%TO.P,U1,8,VCC*%
%TO.N,+5V*%
X131880000Y-95920000D03*
%TD*%
D14*
%TO.P,RV1,1,1*%
%TO.N,Net-(U1-DISCH)*%
X130890000Y-89550000D03*
D15*
%TO.P,RV1,2,2*%
X133430000Y-89550000D03*
%TO.P,RV1,3,3*%
%TO.N,TR*%
X135970000Y-89550000D03*
%TD*%
D10*
%TO.P,D8,1,K*%
%TO.N,Net-(D10-K)*%
X183260000Y-138800000D03*
D11*
%TO.P,D8,2,A*%
%TO.N,Net-(D8-A)*%
X185800000Y-138800000D03*
%TD*%
D10*
%TO.P,D9,1,K*%
%TO.N,Net-(D10-K)*%
X127270000Y-144070000D03*
D11*
%TO.P,D9,2,A*%
%TO.N,Net-(D9-A)*%
X129810000Y-144070000D03*
%TD*%
D16*
%TO.P,J1,1,Pin_1*%
%TO.N,+5V*%
X152150000Y-64550000D03*
D17*
%TO.P,J1,2,Pin_2*%
%TO.N,GND*%
X149610000Y-64550000D03*
%TD*%
D10*
%TO.P,D10,1,K*%
%TO.N,Net-(D10-K)*%
X119670000Y-135810000D03*
D11*
%TO.P,D10,2,A*%
%TO.N,Net-(D10-A)*%
X122210000Y-135810000D03*
%TD*%
D16*
%TO.P,J2,1,Pin_1*%
%TO.N,OUT*%
X151450000Y-60800000D03*
%TD*%
D18*
%TO.P,C2,1*%
%TO.N,Net-(U1-CONT)*%
X134330000Y-108440000D03*
%TO.P,C2,2*%
%TO.N,GND*%
X139330000Y-108440000D03*
%TD*%
D10*
%TO.P,D6,1,K*%
%TO.N,Net-(D10-K)*%
X176260000Y-137630000D03*
D11*
%TO.P,D6,2,A*%
%TO.N,Net-(D6-A)*%
X178800000Y-137630000D03*
%TD*%
D10*
%TO.P,D3,1,K*%
%TO.N,Net-(D10-K)*%
X189170000Y-83490000D03*
D11*
%TO.P,D3,2,A*%
%TO.N,Net-(D3-A)*%
X191710000Y-83490000D03*
%TD*%
D10*
%TO.P,D12,1,K*%
%TO.N,Net-(D10-K)*%
X112320000Y-84140000D03*
D11*
%TO.P,D12,2,A*%
%TO.N,Net-(D12-A)*%
X114860000Y-84140000D03*
%TD*%
D19*
%TO.P,C1,1*%
%TO.N,TR*%
X146140000Y-120010000D03*
D12*
%TO.P,C1,2*%
%TO.N,GND*%
X148140000Y-120010000D03*
%TD*%
D10*
%TO.P,D7,1,K*%
%TO.N,Net-(D10-K)*%
X174220000Y-144470000D03*
D11*
%TO.P,D7,2,A*%
%TO.N,Net-(D7-A)*%
X176760000Y-144470000D03*
%TD*%
D12*
%TO.P,R2,1*%
%TO.N,+5V*%
X141350000Y-87980000D03*
%TO.P,R2,2*%
%TO.N,Net-(U1-DISCH)*%
X148970000Y-87980000D03*
%TD*%
D10*
%TO.P,D11,1,K*%
%TO.N,Net-(D10-K)*%
X107870000Y-93580000D03*
D11*
%TO.P,D11,2,A*%
%TO.N,Net-(D11-A)*%
X110410000Y-93580000D03*
%TD*%
D20*
%TO.P,U2,1,Q5*%
%TO.N,Net-(D7-A)*%
X147960000Y-94280000D03*
D21*
%TO.P,U2,2,Q1*%
%TO.N,Net-(D11-A)*%
X147960000Y-96820000D03*
%TO.P,U2,3,Q0*%
%TO.N,Net-(D12-A)*%
X147960000Y-99360000D03*
%TO.P,U2,4,Q2*%
%TO.N,Net-(D10-A)*%
X147960000Y-101900000D03*
%TO.P,U2,5,Q6*%
%TO.N,Net-(D6-A)*%
X147960000Y-104440000D03*
%TO.P,U2,6,Q7*%
%TO.N,Net-(D5-A)*%
X147960000Y-106980000D03*
%TO.P,U2,7,Q3*%
%TO.N,Net-(D9-A)*%
X147960000Y-109520000D03*
%TO.P,U2,8,VSS*%
%TO.N,GND*%
X147960000Y-112060000D03*
%TO.P,U2,9,Q8*%
%TO.N,Net-(D4-A)*%
X155580000Y-112060000D03*
%TO.P,U2,10,Q4*%
%TO.N,Net-(D8-A)*%
X155580000Y-109520000D03*
%TO.P,U2,11,Q9*%
%TO.N,Net-(D3-A)*%
X155580000Y-106980000D03*
%TO.P,U2,12,Cout*%
%TO.N,unconnected-(U2-Cout-Pad12)*%
X155580000Y-104440000D03*
%TO.P,U2,13,CKEN*%
%TO.N,GND*%
X155580000Y-101900000D03*
%TO.P,U2,14,CLK*%
%TO.N,OUT*%
X155580000Y-99360000D03*
%TO.P,U2,15,Reset*%
%TO.N,GND*%
X155580000Y-96820000D03*
%TO.P,U2,16,VDD*%
%TO.N,+5V*%
X155580000Y-94280000D03*
%TD*%
D22*
%TO.N,+5V*%
X155160000Y-64550000D02*
X152150000Y-64550000D01*
X139500000Y-103540000D02*
X147811300Y-95228700D01*
X147811300Y-95228700D02*
X154631300Y-95228700D01*
X141350000Y-87980000D02*
X141350000Y-63560000D01*
X155600000Y-58670000D02*
X155600000Y-64110000D01*
X141350000Y-63560000D02*
X147170000Y-57740000D01*
X141350000Y-101690000D02*
X139500000Y-103540000D01*
X154631300Y-95228700D02*
X155580000Y-94280000D01*
X154670000Y-57740000D02*
X155600000Y-58670000D01*
X147170000Y-57740000D02*
X154670000Y-57740000D01*
X141350000Y-87980000D02*
X141350000Y-101690000D01*
X155600000Y-64110000D02*
X155160000Y-64550000D01*
%TO.N,GND*%
X167840000Y-84560000D02*
X166075000Y-86325000D01*
X165325000Y-86325000D02*
X166075000Y-86325000D01*
X148140000Y-120010000D02*
X148140000Y-112240000D01*
X154631300Y-100951300D02*
X155580000Y-101900000D01*
X148140000Y-112240000D02*
X147960000Y-112060000D01*
X151150000Y-66090000D02*
X163440000Y-66090000D01*
X155580000Y-96820000D02*
X154631300Y-97768700D01*
X166075000Y-86325000D02*
X155580000Y-96820000D01*
X149610000Y-64550000D02*
X151150000Y-66090000D01*
X154631300Y-97768700D02*
X154631300Y-100951300D01*
X136780000Y-108440000D02*
X131880000Y-103540000D01*
X180630000Y-84560000D02*
X167840000Y-84560000D01*
X163440000Y-84440000D02*
X165325000Y-86325000D01*
X163440000Y-66090000D02*
X163440000Y-84440000D01*
X139330000Y-108440000D02*
X136780000Y-108440000D01*
%TO.N,TR*%
X134420000Y-103540000D02*
X134420000Y-98460000D01*
X135970000Y-94930000D02*
X136960000Y-95920000D01*
X134420000Y-98460000D02*
X136960000Y-95920000D01*
X135970000Y-89550000D02*
X135970000Y-94930000D01*
%TO.N,Net-(U1-DISCH)*%
X133430000Y-89550000D02*
X133430000Y-94930000D01*
X130890000Y-89550000D02*
X133430000Y-89550000D01*
X133430000Y-94930000D02*
X134420000Y-95920000D01*
%TO.N,Net-(D10-K)*%
X150240000Y-127520000D02*
X150240000Y-129690000D01*
X107870000Y-96620000D02*
X107870000Y-93580000D01*
X127270000Y-146910000D02*
X127270000Y-144070000D01*
X187370000Y-137580000D02*
X187370000Y-140370000D01*
X181980000Y-90830000D02*
X180630000Y-92180000D01*
X151460000Y-126300000D02*
X150240000Y-127520000D01*
X129578881Y-111310000D02*
X128993066Y-111310000D01*
X119670000Y-126540000D02*
X131730000Y-114480000D01*
X149110000Y-130820000D02*
X149110000Y-131820000D01*
X123330000Y-109750000D02*
X121590000Y-109750000D01*
X126110000Y-110840000D02*
X124849289Y-110840000D01*
X124314313Y-110734313D02*
X123330000Y-109750000D01*
X124771360Y-110826263D02*
X124314313Y-110734313D01*
X189170000Y-90300000D02*
X189170000Y-83490000D01*
X120190000Y-108940000D02*
X107870000Y-96620000D01*
X112320000Y-87060000D02*
X107870000Y-91510000D01*
X177461000Y-138831000D02*
X176260000Y-137630000D01*
X131730000Y-114480000D02*
X131730000Y-111620000D01*
X185996893Y-126617496D02*
X186190791Y-127087918D01*
X171750000Y-112100000D02*
X185791999Y-126141999D01*
X119670000Y-136470000D02*
X119670000Y-135810000D01*
X119670000Y-135810000D02*
X119670000Y-126540000D01*
X186190791Y-136400791D02*
X187370000Y-137580000D01*
X150240000Y-129690000D02*
X149110000Y-130820000D01*
X129601336Y-111296740D02*
X129578881Y-111310000D01*
X129652838Y-111310000D02*
X129601336Y-111296740D01*
X185792672Y-126143495D02*
X185996893Y-126617496D01*
X184320000Y-90830000D02*
X181980000Y-90830000D01*
X126868889Y-111144165D02*
X126348015Y-111078015D01*
X124849289Y-110840000D02*
X124771360Y-110826263D01*
X112320000Y-84140000D02*
X112320000Y-87060000D01*
X149110000Y-131820000D02*
X133680000Y-147250000D01*
X128993066Y-111310000D02*
X128986152Y-111309710D01*
X126348015Y-111078015D02*
X126110000Y-110840000D01*
X174220000Y-139670000D02*
X176260000Y-137630000D01*
X189170000Y-83490000D02*
X189170000Y-85980000D01*
X133680000Y-147250000D02*
X126930000Y-147250000D01*
X128276669Y-111271413D02*
X127572065Y-111216287D01*
X131420000Y-111310000D02*
X129652838Y-111310000D01*
X186190791Y-127087918D02*
X186190791Y-136400791D01*
X187370000Y-140370000D02*
X184830000Y-140370000D01*
X174220000Y-144470000D02*
X169630000Y-144470000D01*
X193370000Y-99570000D02*
X186610000Y-106330000D01*
X186610000Y-106330000D02*
X177520000Y-106330000D01*
X127270000Y-144070000D02*
X119670000Y-136470000D01*
X177520000Y-106330000D02*
X171750000Y-112100000D01*
X121590000Y-109750000D02*
X120780000Y-108940000D01*
X183229000Y-138831000D02*
X177461000Y-138831000D01*
X183260000Y-138800000D02*
X183229000Y-138831000D01*
X189170000Y-85980000D02*
X184320000Y-90830000D01*
X131730000Y-111620000D02*
X131420000Y-111310000D01*
X185791999Y-126141999D02*
X185792672Y-126143495D01*
X126930000Y-147250000D02*
X127270000Y-146910000D01*
X127572065Y-111216287D02*
X126868889Y-111144165D01*
X193370000Y-94500000D02*
X193370000Y-99570000D01*
X128986152Y-111309710D02*
X128276669Y-111271413D01*
X169630000Y-144470000D02*
X151460000Y-126300000D01*
X107870000Y-91510000D02*
X107870000Y-93580000D01*
X120780000Y-108940000D02*
X120190000Y-108940000D01*
X184830000Y-140370000D02*
X183260000Y-138800000D01*
X174220000Y-144470000D02*
X174220000Y-139670000D01*
X193370000Y-94500000D02*
X189170000Y-90300000D01*
%TO.N,Net-(D8-A)*%
X185800000Y-138800000D02*
X184520000Y-137520000D01*
X184520000Y-137520000D02*
X184520000Y-127320000D01*
X157350000Y-111290000D02*
X155580000Y-109520000D01*
X168490000Y-111290000D02*
X157350000Y-111290000D01*
X184520000Y-127320000D02*
X168490000Y-111290000D01*
%TO.N,Net-(D9-A)*%
X133410000Y-144070000D02*
X148700000Y-128780000D01*
X151060000Y-112620000D02*
X147960000Y-109520000D01*
X148700000Y-125290000D02*
X150020000Y-123970000D01*
X150020000Y-123970000D02*
X151060000Y-123970000D01*
X151060000Y-123970000D02*
X151060000Y-112620000D01*
X148700000Y-128780000D02*
X148700000Y-125290000D01*
X129810000Y-144070000D02*
X133410000Y-144070000D01*
%TO.N,Net-(D10-A)*%
X146130000Y-112560000D02*
X146130000Y-103730000D01*
X146070000Y-112500000D02*
X146130000Y-112560000D01*
X146130000Y-103730000D02*
X147960000Y-101900000D01*
X122210000Y-135810000D02*
X122210000Y-127560000D01*
X137270000Y-112500000D02*
X146070000Y-112500000D01*
X122210000Y-127560000D02*
X137270000Y-112500000D01*
%TO.N,Net-(D11-A)*%
X126914644Y-110745755D02*
X127608162Y-110816886D01*
X124949000Y-110439000D02*
X126276100Y-110439000D01*
X145440000Y-102435735D02*
X147567035Y-100308700D01*
X129152252Y-110902086D02*
X129159166Y-110909000D01*
X128303090Y-110871255D02*
X128874249Y-110902086D01*
X126534589Y-110697489D02*
X126914644Y-110745755D01*
X132131000Y-111453900D02*
X132131000Y-111850000D01*
X129540462Y-110866991D02*
X129703632Y-110909000D01*
X148908700Y-99752965D02*
X148908700Y-97768700D01*
X129159166Y-110909000D02*
X129469323Y-110909000D01*
X142320000Y-111850000D02*
X145440000Y-108730000D01*
X129703632Y-110909000D02*
X131586100Y-110909000D01*
X131586100Y-110909000D02*
X132131000Y-111453900D01*
X145440000Y-108730000D02*
X145440000Y-102435735D01*
X128874249Y-110902086D02*
X129152252Y-110902086D01*
X148908700Y-97768700D02*
X147960000Y-96820000D01*
X147567035Y-100308700D02*
X148352965Y-100308700D01*
X132131000Y-111850000D02*
X142320000Y-111850000D01*
X127608162Y-110816886D02*
X128303090Y-110871255D01*
X110410000Y-93580000D02*
X110410000Y-95900000D01*
X129469323Y-110909000D02*
X129540462Y-110866991D01*
X148352965Y-100308700D02*
X148908700Y-99752965D01*
X126276100Y-110439000D02*
X126534589Y-110697489D01*
X110410000Y-95900000D02*
X124949000Y-110439000D01*
%TO.N,Net-(D12-A)*%
X144720000Y-108640000D02*
X144720000Y-101684014D01*
X147044014Y-99360000D02*
X147960000Y-99360000D01*
X142100000Y-111260000D02*
X144720000Y-108640000D01*
X114860000Y-84140000D02*
X114860000Y-98830000D01*
X125310000Y-109280000D02*
X131370000Y-109280000D01*
X114860000Y-98830000D02*
X125310000Y-109280000D01*
X133350000Y-111260000D02*
X142100000Y-111260000D01*
X144720000Y-101684014D02*
X147044014Y-99360000D01*
X131370000Y-109280000D02*
X133350000Y-111260000D01*
%TD*%
%TA.AperFunction,Conductor*%
%TO.N,GND*%
G36*
X156434261Y-50423724D02*
G01*
X156439942Y-50429367D01*
X156986524Y-51008546D01*
X156986848Y-51008890D01*
X157727514Y-51799740D01*
X157727965Y-51800225D01*
X158074954Y-52174710D01*
X158075521Y-52175326D01*
X158419810Y-52551972D01*
X158420373Y-52552592D01*
X158762365Y-52931837D01*
X158762924Y-52932461D01*
X159102130Y-53313760D01*
X159102813Y-53314534D01*
X159215852Y-53443751D01*
X159215927Y-53443836D01*
X159216594Y-53444606D01*
X159328285Y-53574862D01*
X159328999Y-53575704D01*
X159439321Y-53706963D01*
X159440089Y-53707885D01*
X159546999Y-53837665D01*
X159549260Y-53840409D01*
X159550001Y-53841319D01*
X159611538Y-53917536D01*
X159657943Y-53975012D01*
X159658706Y-53975967D01*
X159765276Y-54110656D01*
X159766027Y-54111614D01*
X159871427Y-54247545D01*
X159872168Y-54248511D01*
X159975895Y-54385032D01*
X159976771Y-54386199D01*
X160033322Y-54462489D01*
X160247497Y-54751422D01*
X160248513Y-54752812D01*
X160514068Y-55121652D01*
X160515061Y-55123053D01*
X160775548Y-55495631D01*
X160776521Y-55497043D01*
X161032174Y-55873693D01*
X161033125Y-55875115D01*
X161283747Y-56255547D01*
X161284678Y-56256981D01*
X161530303Y-56641253D01*
X161531211Y-56642696D01*
X161771748Y-57030666D01*
X161772636Y-57032120D01*
X162008046Y-57423728D01*
X162008911Y-57425190D01*
X162239288Y-57820596D01*
X162240131Y-57822066D01*
X162465241Y-58220865D01*
X162466063Y-58222344D01*
X162685884Y-58624494D01*
X162686684Y-58625981D01*
X162901185Y-59031421D01*
X162901963Y-59032917D01*
X163111079Y-59441525D01*
X163111836Y-59443029D01*
X163315580Y-59854831D01*
X163316315Y-59856343D01*
X163338512Y-59902780D01*
X163489361Y-60218370D01*
X163514591Y-60271152D01*
X163515305Y-60272671D01*
X163708178Y-60690626D01*
X163708877Y-60692169D01*
X163892237Y-61104209D01*
X163892870Y-61105659D01*
X164070700Y-61520560D01*
X164071324Y-61522044D01*
X164243462Y-61939421D01*
X164244101Y-61940999D01*
X164410641Y-62361074D01*
X164411256Y-62362659D01*
X164572088Y-62785151D01*
X164572681Y-62786742D01*
X164727839Y-63211745D01*
X164728410Y-63213342D01*
X164877884Y-63640836D01*
X164878432Y-63642439D01*
X165022045Y-64071915D01*
X165022605Y-64073631D01*
X165154171Y-64486992D01*
X165154738Y-64488820D01*
X165279907Y-64904156D01*
X165280444Y-64905991D01*
X165399239Y-65323368D01*
X165399748Y-65325208D01*
X165512176Y-65744633D01*
X165512655Y-65746479D01*
X165618650Y-66167705D01*
X165619101Y-66169556D01*
X165718702Y-66592741D01*
X165719124Y-66594597D01*
X165812257Y-67019440D01*
X165812650Y-67021301D01*
X165899375Y-67448118D01*
X165899721Y-67449886D01*
X165981372Y-67883958D01*
X165981675Y-67885632D01*
X166057411Y-68321056D01*
X166057691Y-68322734D01*
X166127494Y-68759451D01*
X166127750Y-68761130D01*
X166191543Y-69198627D01*
X166191777Y-69200310D01*
X166249612Y-69638948D01*
X166249822Y-69640632D01*
X166301650Y-70080044D01*
X166301838Y-70081731D01*
X166347670Y-70522038D01*
X166347834Y-70523726D01*
X166387654Y-70964778D01*
X166387794Y-70966461D01*
X166421709Y-71409402D01*
X166421826Y-71411079D01*
X166449740Y-71854504D01*
X166449834Y-71856181D01*
X166471732Y-72299828D01*
X166471804Y-72301506D01*
X166487702Y-72745685D01*
X166487750Y-72747363D01*
X166497626Y-73191474D01*
X166497652Y-73193153D01*
X166501515Y-73637462D01*
X166501519Y-73639141D01*
X166499364Y-74083643D01*
X166499344Y-74085322D01*
X166491171Y-74529782D01*
X166491128Y-74531474D01*
X166477112Y-74968763D01*
X166477046Y-74970466D01*
X166457024Y-75407489D01*
X166456934Y-75409192D01*
X166430913Y-75845770D01*
X166430800Y-75847471D01*
X166398791Y-76283473D01*
X166398655Y-76285173D01*
X166360645Y-76720776D01*
X166360485Y-76722475D01*
X166316492Y-77157440D01*
X166316308Y-77159137D01*
X166266351Y-77593279D01*
X166266144Y-77594975D01*
X166210237Y-78028197D01*
X166209994Y-78029979D01*
X166149945Y-78447491D01*
X166149662Y-78449357D01*
X166083330Y-78865498D01*
X166083019Y-78867361D01*
X166010404Y-79282175D01*
X166010064Y-79284033D01*
X165931171Y-79697513D01*
X165930802Y-79699369D01*
X165845654Y-80111385D01*
X165845257Y-80113235D01*
X165753857Y-80523787D01*
X165753431Y-80525634D01*
X165655791Y-80934642D01*
X165655336Y-80936484D01*
X165551101Y-81345317D01*
X165550782Y-81346541D01*
X165513905Y-81485255D01*
X165513740Y-81485871D01*
X165475672Y-81626152D01*
X165475503Y-81626767D01*
X165436812Y-81766498D01*
X165436641Y-81767111D01*
X165397340Y-81906263D01*
X165397089Y-81907138D01*
X165313896Y-82193640D01*
X165313558Y-82194783D01*
X165227872Y-82479618D01*
X165227525Y-82480755D01*
X165149143Y-82732536D01*
X165148785Y-82733664D01*
X165068436Y-82983342D01*
X165067934Y-82984869D01*
X165042852Y-83059478D01*
X165042194Y-83061385D01*
X165016258Y-83134571D01*
X165015568Y-83136469D01*
X164988465Y-83209165D01*
X164987742Y-83211056D01*
X164961639Y-83277724D01*
X164961514Y-83278041D01*
X164957604Y-83287945D01*
X164955850Y-83290380D01*
X164935693Y-83343457D01*
X164935378Y-83344257D01*
X164935158Y-83344538D01*
X164930590Y-83354707D01*
X164921298Y-83380108D01*
X164920224Y-83382938D01*
X164908993Y-83411457D01*
X164908674Y-83412514D01*
X164905877Y-83420349D01*
X164905627Y-83420716D01*
X164896858Y-83445621D01*
X164896688Y-83446100D01*
X164896676Y-83446116D01*
X164895828Y-83448435D01*
X164884425Y-83478467D01*
X164875911Y-83503575D01*
X164871430Y-83514577D01*
X164866419Y-83529905D01*
X164865013Y-83533967D01*
X164863223Y-83538861D01*
X164860975Y-83544280D01*
X164854964Y-83563379D01*
X164850757Y-83574392D01*
X164846824Y-83587382D01*
X164845112Y-83592614D01*
X164841753Y-83602157D01*
X164840756Y-83604685D01*
X164840234Y-83606308D01*
X164839358Y-83609805D01*
X164836921Y-83618186D01*
X164835292Y-83623362D01*
X164832380Y-83631954D01*
X164832378Y-83631960D01*
X164830511Y-83637463D01*
X164829898Y-83640030D01*
X164829461Y-83641599D01*
X164827544Y-83648467D01*
X164825974Y-83653650D01*
X164823161Y-83662258D01*
X164823158Y-83662267D01*
X164821348Y-83667803D01*
X164820776Y-83670314D01*
X164818480Y-83678903D01*
X164816968Y-83684099D01*
X164814294Y-83692597D01*
X164814291Y-83692608D01*
X164812496Y-83698308D01*
X164811954Y-83700824D01*
X164809782Y-83709326D01*
X164808322Y-83714563D01*
X164805664Y-83723343D01*
X164803731Y-83728993D01*
X164799994Y-83744645D01*
X164799334Y-83747280D01*
X164798908Y-83748903D01*
X164796392Y-83757560D01*
X164796370Y-83758589D01*
X164794401Y-83766102D01*
X164793391Y-83767778D01*
X164791178Y-83776510D01*
X164790935Y-83777187D01*
X164786014Y-83799867D01*
X164784636Y-83805561D01*
X164782439Y-83813787D01*
X164781140Y-83818649D01*
X164779369Y-83824530D01*
X164776885Y-83837245D01*
X164776540Y-83838947D01*
X164775990Y-83841565D01*
X164773841Y-83849977D01*
X164773860Y-83851706D01*
X164772215Y-83859545D01*
X164771326Y-83861200D01*
X164769212Y-83871064D01*
X164768638Y-83872898D01*
X164767310Y-83880533D01*
X164765759Y-83888058D01*
X164763963Y-83895584D01*
X164763662Y-83898482D01*
X164758140Y-83920017D01*
X164759146Y-83920293D01*
X164756996Y-83928124D01*
X164756784Y-83929663D01*
X164750558Y-83954879D01*
X164750527Y-83954967D01*
X164750526Y-83954970D01*
X164750404Y-83956403D01*
X164749280Y-83965534D01*
X164747937Y-83973875D01*
X164745486Y-83981929D01*
X164745178Y-83991023D01*
X164743937Y-83998739D01*
X164742994Y-84000715D01*
X164741927Y-84008332D01*
X164741861Y-84008914D01*
X164741882Y-84010120D01*
X164740844Y-84028399D01*
X164740333Y-84032281D01*
X164739629Y-84035874D01*
X164739708Y-84037039D01*
X164739414Y-84039278D01*
X164739320Y-84040771D01*
X164739344Y-84042547D01*
X164739077Y-84049031D01*
X164738636Y-84049012D01*
X164738565Y-84052004D01*
X164738841Y-84052006D01*
X164738790Y-84060118D01*
X164738790Y-84060123D01*
X164738790Y-84060127D01*
X164738783Y-84061343D01*
X164738777Y-84062006D01*
X164738759Y-84063523D01*
X164739587Y-84079308D01*
X164739523Y-84083724D01*
X164739182Y-84087723D01*
X164739384Y-84088858D01*
X164739280Y-84089990D01*
X164739421Y-84090814D01*
X164739406Y-84091876D01*
X164740854Y-84113147D01*
X164741016Y-84114194D01*
X164740986Y-84115088D01*
X164741203Y-84116026D01*
X164741164Y-84116988D01*
X164742086Y-84121105D01*
X164742721Y-84125203D01*
X164742422Y-84127452D01*
X164744163Y-84142029D01*
X164744164Y-84142111D01*
X164744209Y-84142411D01*
X164744330Y-84143247D01*
X164744434Y-84143985D01*
X164744435Y-84143986D01*
X164747850Y-84160574D01*
X164748407Y-84164686D01*
X164748687Y-84168790D01*
X164749061Y-84169882D01*
X164749133Y-84171054D01*
X164749363Y-84171743D01*
X164749496Y-84172719D01*
X164754501Y-84194978D01*
X164754600Y-84195364D01*
X164754786Y-84196104D01*
X164755362Y-84198419D01*
X164760093Y-84213331D01*
X164761130Y-84217574D01*
X164761768Y-84221297D01*
X164762348Y-84222558D01*
X164762487Y-84223124D01*
X164762677Y-84224268D01*
X164762870Y-84224694D01*
X164763131Y-84225759D01*
X164763504Y-84226985D01*
X164769309Y-84244306D01*
X164770288Y-84246976D01*
X164770289Y-84246981D01*
X164770291Y-84246984D01*
X164770441Y-84247394D01*
X164770582Y-84247782D01*
X164772113Y-84252004D01*
X164778056Y-84265762D01*
X164779394Y-84269585D01*
X164780156Y-84272321D01*
X164780637Y-84273135D01*
X164781296Y-84275018D01*
X164784557Y-84282713D01*
X164788581Y-84291545D01*
X164790336Y-84295141D01*
X164790365Y-84295212D01*
X164794964Y-84304638D01*
X164801267Y-84315768D01*
X164803167Y-84319747D01*
X164803994Y-84321848D01*
X164804493Y-84322524D01*
X164805356Y-84324329D01*
X164807334Y-84327880D01*
X164807479Y-84328141D01*
X164807784Y-84328692D01*
X164807799Y-84328715D01*
X164811304Y-84335009D01*
X164811208Y-84335062D01*
X164813365Y-84338722D01*
X164813462Y-84338663D01*
X164818148Y-84346184D01*
X164820861Y-84350538D01*
X164820880Y-84350568D01*
X164821677Y-84351847D01*
X164821764Y-84351967D01*
X164826560Y-84359574D01*
X164826400Y-84359674D01*
X164828182Y-84362358D01*
X164828340Y-84362248D01*
X164834265Y-84370731D01*
X164834270Y-84370737D01*
X164836600Y-84374074D01*
X164837070Y-84374747D01*
X164837172Y-84374873D01*
X164843238Y-84383417D01*
X164843025Y-84383567D01*
X164844420Y-84385440D01*
X164844630Y-84385277D01*
X164851633Y-84394252D01*
X164853680Y-84396874D01*
X164853686Y-84396882D01*
X164853883Y-84397134D01*
X164853976Y-84397238D01*
X164861163Y-84406268D01*
X164860906Y-84406472D01*
X164861886Y-84407649D01*
X164862135Y-84407434D01*
X164870660Y-84417238D01*
X164870661Y-84417238D01*
X164871863Y-84418620D01*
X164871877Y-84418634D01*
X164880620Y-84428446D01*
X164880330Y-84428703D01*
X164880859Y-84429272D01*
X164881141Y-84428999D01*
X164886799Y-84434834D01*
X164886801Y-84434837D01*
X164886803Y-84434838D01*
X164890359Y-84438506D01*
X164890374Y-84438522D01*
X164891415Y-84439596D01*
X164891472Y-84439647D01*
X164900859Y-84449092D01*
X164900580Y-84449368D01*
X164901142Y-84449910D01*
X164901410Y-84449621D01*
X164911755Y-84459190D01*
X164911775Y-84459209D01*
X164912241Y-84459641D01*
X164919586Y-84466248D01*
X164923051Y-84468921D01*
X164928207Y-84473376D01*
X164929157Y-84474399D01*
X164930013Y-84474936D01*
X164934517Y-84478828D01*
X164945204Y-84487430D01*
X164944929Y-84487771D01*
X164945138Y-84487932D01*
X164945399Y-84487580D01*
X164951927Y-84492408D01*
X164951930Y-84492411D01*
X164951932Y-84492412D01*
X164957647Y-84496639D01*
X164962910Y-84500403D01*
X164962915Y-84500408D01*
X164962920Y-84500411D01*
X164966230Y-84502778D01*
X164969227Y-84504590D01*
X164975084Y-84508577D01*
X164976030Y-84509394D01*
X164976902Y-84509815D01*
X164982630Y-84513715D01*
X164987518Y-84516813D01*
X164987523Y-84516818D01*
X164987528Y-84516820D01*
X164993886Y-84520851D01*
X165000519Y-84524707D01*
X165000524Y-84524711D01*
X165000528Y-84524712D01*
X165004963Y-84527291D01*
X165005133Y-84527373D01*
X165012677Y-84531498D01*
X165013450Y-84532073D01*
X165014454Y-84532470D01*
X165021169Y-84536143D01*
X165021493Y-84536468D01*
X165031172Y-84541394D01*
X165031850Y-84541676D01*
X165039300Y-84545267D01*
X165040008Y-84545733D01*
X165040840Y-84546009D01*
X165048033Y-84549476D01*
X165048186Y-84549615D01*
X165052604Y-84551565D01*
X165052606Y-84551567D01*
X165052608Y-84551567D01*
X165057281Y-84553631D01*
X165059484Y-84554415D01*
X165066714Y-84557459D01*
X165067766Y-84558069D01*
X165068859Y-84558363D01*
X165076621Y-84561632D01*
X165076643Y-84561650D01*
X165085396Y-84564935D01*
X165088487Y-84565851D01*
X165095425Y-84568367D01*
X165096426Y-84568872D01*
X165097339Y-84569062D01*
X165103510Y-84571300D01*
X165113126Y-84574308D01*
X165117688Y-84575395D01*
X165124383Y-84577436D01*
X165125692Y-84578003D01*
X165126762Y-84578161D01*
X165132406Y-84579882D01*
X165141965Y-84582283D01*
X165147416Y-84583266D01*
X165153988Y-84584884D01*
X165155474Y-84585428D01*
X165156603Y-84585528D01*
X165161847Y-84586820D01*
X165166357Y-84587685D01*
X165166364Y-84587688D01*
X165166371Y-84587688D01*
X165170797Y-84588538D01*
X165177489Y-84589366D01*
X165183899Y-84590580D01*
X165185685Y-84591118D01*
X165186938Y-84591156D01*
X165191994Y-84592114D01*
X165196317Y-84592689D01*
X165196323Y-84592691D01*
X165196328Y-84592691D01*
X165204390Y-84593764D01*
X165204305Y-84594396D01*
X165205240Y-84594509D01*
X165205311Y-84593860D01*
X165213394Y-84594742D01*
X165213395Y-84594743D01*
X165213395Y-84594742D01*
X165220418Y-84595510D01*
X165226771Y-84595982D01*
X165226775Y-84595983D01*
X165226778Y-84595982D01*
X165229942Y-84596218D01*
X165232334Y-84596192D01*
X165238087Y-84596394D01*
X165238973Y-84596571D01*
X165240409Y-84596476D01*
X165246664Y-84596697D01*
X165249066Y-84597495D01*
X165249265Y-84597503D01*
X165249268Y-84597373D01*
X165257396Y-84597503D01*
X165257399Y-84597504D01*
X165257401Y-84597503D01*
X165259095Y-84597531D01*
X165264203Y-84597228D01*
X165264578Y-84597286D01*
X165266173Y-84597111D01*
X165269251Y-84596929D01*
X165271152Y-84597366D01*
X165287602Y-84597201D01*
X165288095Y-84597245D01*
X165288685Y-84597141D01*
X165310415Y-84595288D01*
X165314331Y-84595299D01*
X165315664Y-84595388D01*
X165316081Y-84595304D01*
X165317805Y-84595310D01*
X165319472Y-84595172D01*
X165320381Y-84595036D01*
X165326896Y-84594383D01*
X165326947Y-84594897D01*
X165332841Y-84594283D01*
X165332776Y-84593681D01*
X165344946Y-84592365D01*
X165356906Y-84590522D01*
X165357067Y-84591570D01*
X165358069Y-84591417D01*
X165357909Y-84590362D01*
X165365941Y-84589143D01*
X165365949Y-84589143D01*
X165365955Y-84589141D01*
X165370174Y-84588501D01*
X165374176Y-84587705D01*
X165374181Y-84587705D01*
X165374185Y-84587703D01*
X165382165Y-84586117D01*
X165382383Y-84587216D01*
X165382968Y-84587101D01*
X165382955Y-84587061D01*
X165383063Y-84587024D01*
X165382858Y-84585973D01*
X165390835Y-84584410D01*
X165390838Y-84584410D01*
X165390840Y-84584409D01*
X165395170Y-84583561D01*
X165399263Y-84582560D01*
X165399268Y-84582560D01*
X165399272Y-84582558D01*
X165407174Y-84580627D01*
X165407180Y-84580654D01*
X165407714Y-84580485D01*
X165415275Y-84578667D01*
X165415281Y-84578667D01*
X165415285Y-84578665D01*
X165419834Y-84577572D01*
X165424007Y-84576358D01*
X165424010Y-84576358D01*
X165424012Y-84576356D01*
X165431818Y-84574087D01*
X165431827Y-84574120D01*
X165432425Y-84573901D01*
X165439512Y-84571874D01*
X165439520Y-84571873D01*
X165439527Y-84571869D01*
X165444195Y-84570535D01*
X165448558Y-84569058D01*
X165448564Y-84569057D01*
X165448568Y-84569054D01*
X165456273Y-84566447D01*
X165456287Y-84566491D01*
X165457016Y-84566190D01*
X165468077Y-84562517D01*
X165472510Y-84560801D01*
X165472515Y-84560800D01*
X165472519Y-84560797D01*
X165480107Y-84557861D01*
X165480126Y-84557911D01*
X165480887Y-84557554D01*
X165486784Y-84555313D01*
X165486795Y-84555311D01*
X165486804Y-84555305D01*
X165491637Y-84553470D01*
X165496104Y-84551516D01*
X165496106Y-84551516D01*
X165496107Y-84551515D01*
X165503556Y-84548258D01*
X165503576Y-84548304D01*
X165504211Y-84547967D01*
X165509632Y-84545631D01*
X165509722Y-84545606D01*
X165509804Y-84545557D01*
X165515078Y-84543285D01*
X165526575Y-84537659D01*
X165526595Y-84537701D01*
X165527116Y-84537393D01*
X165532012Y-84535024D01*
X165532153Y-84534979D01*
X165532283Y-84534893D01*
X165537928Y-84532164D01*
X165548920Y-84526195D01*
X165548959Y-84526266D01*
X165549321Y-84525977D01*
X165554050Y-84523430D01*
X165554242Y-84523359D01*
X165554422Y-84523230D01*
X165560277Y-84520078D01*
X165563828Y-84517947D01*
X165563833Y-84517946D01*
X165563836Y-84517943D01*
X165570433Y-84513987D01*
X165571503Y-84513352D01*
X165575651Y-84510919D01*
X165575656Y-84510918D01*
X165575659Y-84510915D01*
X165580673Y-84507976D01*
X165585187Y-84505002D01*
X165585191Y-84505001D01*
X165585194Y-84504998D01*
X165588831Y-84502603D01*
X165590165Y-84501619D01*
X165590211Y-84501599D01*
X165590361Y-84501475D01*
X165592984Y-84499543D01*
X165594259Y-84499078D01*
X165597124Y-84497295D01*
X165597136Y-84497315D01*
X165601790Y-84494194D01*
X165612725Y-84486309D01*
X165612821Y-84486442D01*
X165625659Y-84476767D01*
X165626269Y-84476406D01*
X165626274Y-84476401D01*
X165632660Y-84471377D01*
X165632765Y-84471511D01*
X165645154Y-84461336D01*
X165645725Y-84460964D01*
X165645728Y-84460959D01*
X165645730Y-84460959D01*
X165647286Y-84459626D01*
X165649226Y-84457682D01*
X179330000Y-84457682D01*
X179330000Y-84662317D01*
X179362009Y-84864417D01*
X179425244Y-85059031D01*
X179518141Y-85241350D01*
X179518147Y-85241359D01*
X179550523Y-85285921D01*
X179550524Y-85285922D01*
X180230000Y-84606446D01*
X180230000Y-84612661D01*
X180257259Y-84714394D01*
X180309920Y-84805606D01*
X180384394Y-84880080D01*
X180475606Y-84932741D01*
X180577339Y-84960000D01*
X180583553Y-84960000D01*
X179904076Y-85639474D01*
X179948650Y-85671859D01*
X180130968Y-85764755D01*
X180325582Y-85827990D01*
X180527683Y-85860000D01*
X180732317Y-85860000D01*
X180934417Y-85827990D01*
X181129031Y-85764755D01*
X181311349Y-85671859D01*
X181355921Y-85639474D01*
X180676447Y-84960000D01*
X180682661Y-84960000D01*
X180784394Y-84932741D01*
X180875606Y-84880080D01*
X180950080Y-84805606D01*
X181002741Y-84714394D01*
X181030000Y-84612661D01*
X181030000Y-84606448D01*
X181709474Y-85285922D01*
X181709474Y-85285921D01*
X181741859Y-85241349D01*
X181834755Y-85059031D01*
X181897990Y-84864417D01*
X181930000Y-84662317D01*
X181930000Y-84457682D01*
X181897990Y-84255582D01*
X181834755Y-84060968D01*
X181741859Y-83878650D01*
X181709474Y-83834077D01*
X181709474Y-83834076D01*
X181030000Y-84513551D01*
X181030000Y-84507339D01*
X181002741Y-84405606D01*
X180950080Y-84314394D01*
X180875606Y-84239920D01*
X180784394Y-84187259D01*
X180682661Y-84160000D01*
X180676446Y-84160000D01*
X181355922Y-83480524D01*
X181355921Y-83480523D01*
X181311359Y-83448147D01*
X181311350Y-83448141D01*
X181129031Y-83355244D01*
X180934417Y-83292009D01*
X180732317Y-83260000D01*
X180527683Y-83260000D01*
X180325582Y-83292009D01*
X180130968Y-83355244D01*
X179948644Y-83448143D01*
X179904077Y-83480523D01*
X179904077Y-83480524D01*
X180583554Y-84160000D01*
X180577339Y-84160000D01*
X180475606Y-84187259D01*
X180384394Y-84239920D01*
X180309920Y-84314394D01*
X180257259Y-84405606D01*
X180230000Y-84507339D01*
X180230000Y-84513553D01*
X179550524Y-83834077D01*
X179550523Y-83834077D01*
X179518143Y-83878644D01*
X179425244Y-84060968D01*
X179362009Y-84255582D01*
X179330000Y-84457682D01*
X165649226Y-84457682D01*
X165652986Y-84453914D01*
X165658236Y-84449182D01*
X165664620Y-84444630D01*
X165668463Y-84439966D01*
X165675287Y-84433818D01*
X165677175Y-84432910D01*
X165682169Y-84428054D01*
X165682684Y-84427655D01*
X165682686Y-84427651D01*
X165682691Y-84427648D01*
X165686476Y-84423812D01*
X165696130Y-84415810D01*
X165696025Y-84415691D01*
X165702122Y-84410308D01*
X165702124Y-84410308D01*
X165711610Y-84401934D01*
X165714898Y-84399134D01*
X165724647Y-84391124D01*
X165724649Y-84391120D01*
X165726691Y-84389443D01*
X165731102Y-84385190D01*
X165737147Y-84379936D01*
X165737891Y-84379558D01*
X165746518Y-84371792D01*
X165747314Y-84371101D01*
X165747370Y-84371075D01*
X165748815Y-84369818D01*
X165751534Y-84367530D01*
X165760994Y-84359569D01*
X165761101Y-84359415D01*
X165764882Y-84355878D01*
X165765045Y-84355795D01*
X165765922Y-84354917D01*
X165773615Y-84347885D01*
X165780186Y-84342584D01*
X165782537Y-84340400D01*
X165782540Y-84340399D01*
X165786625Y-84336604D01*
X165789980Y-84333602D01*
X165797010Y-84327544D01*
X165797013Y-84327538D01*
X165799647Y-84325269D01*
X165799754Y-84325160D01*
X165804631Y-84320561D01*
X165804633Y-84320560D01*
X165815256Y-84310542D01*
X165818204Y-84307851D01*
X165821754Y-84304717D01*
X165824663Y-84302379D01*
X165825865Y-84301229D01*
X165829595Y-84297799D01*
X165833690Y-84294184D01*
X165838641Y-84288993D01*
X165839196Y-84288461D01*
X165841928Y-84285924D01*
X165842638Y-84285285D01*
X165846897Y-84281795D01*
X165848403Y-84280329D01*
X165848407Y-84280328D01*
X165849899Y-84278876D01*
X165853398Y-84275602D01*
X165855024Y-84274140D01*
X165855025Y-84274137D01*
X165856543Y-84272772D01*
X165860311Y-84268748D01*
X165860898Y-84268177D01*
X165863698Y-84265537D01*
X165864360Y-84264931D01*
X165868588Y-84261413D01*
X165870072Y-84259946D01*
X165870075Y-84259945D01*
X165872002Y-84258041D01*
X165873286Y-84256772D01*
X165876609Y-84253736D01*
X165877033Y-84253071D01*
X165882525Y-84247645D01*
X165885377Y-84244917D01*
X165885994Y-84244345D01*
X165890111Y-84240868D01*
X165891576Y-84239397D01*
X165891579Y-84239396D01*
X165893036Y-84237933D01*
X165896491Y-84234599D01*
X165898043Y-84233159D01*
X165898044Y-84233157D01*
X165899585Y-84231727D01*
X165903347Y-84227589D01*
X165903901Y-84227033D01*
X165906522Y-84224485D01*
X165907009Y-84224025D01*
X165907301Y-84223749D01*
X165912446Y-84219319D01*
X165913562Y-84218178D01*
X165913568Y-84218175D01*
X165917782Y-84213868D01*
X165919315Y-84212423D01*
X165919517Y-84212095D01*
X165926701Y-84204751D01*
X165929508Y-84201974D01*
X165940441Y-84191507D01*
X165940443Y-84191503D01*
X165942762Y-84189283D01*
X165948447Y-84183028D01*
X165961421Y-84170410D01*
X165961421Y-84170409D01*
X165963214Y-84168666D01*
X165966457Y-84164936D01*
X165968784Y-84162505D01*
X165971117Y-84160135D01*
X165982245Y-84149145D01*
X165982246Y-84149142D01*
X165984541Y-84146876D01*
X165990091Y-84140576D01*
X165997857Y-84132785D01*
X166000761Y-84130152D01*
X166002981Y-84127781D01*
X166002983Y-84127780D01*
X166023504Y-84105866D01*
X166025255Y-84104037D01*
X166042833Y-84086073D01*
X166044402Y-84084621D01*
X166045210Y-84083740D01*
X166048027Y-84080766D01*
X166048965Y-84079807D01*
X166050397Y-84078078D01*
X166067247Y-84059685D01*
X166069038Y-84057774D01*
X166089821Y-84036065D01*
X166089822Y-84036061D01*
X166090798Y-84035043D01*
X166098325Y-84025970D01*
X166132807Y-83989152D01*
X166132807Y-83989150D01*
X166134229Y-83987633D01*
X166141215Y-83979061D01*
X166198912Y-83916652D01*
X166200484Y-83914985D01*
X166267251Y-83845585D01*
X166268877Y-83843929D01*
X166336801Y-83776087D01*
X166338478Y-83774444D01*
X166407691Y-83708024D01*
X166409366Y-83706449D01*
X166479791Y-83641526D01*
X166481427Y-83640047D01*
X166553026Y-83576655D01*
X166554761Y-83575149D01*
X166627431Y-83513376D01*
X166629328Y-83511797D01*
X166639406Y-83503575D01*
X166704479Y-83450483D01*
X166705692Y-83449508D01*
X166985528Y-83227994D01*
X166986090Y-83227554D01*
X167269332Y-83007573D01*
X167270021Y-83007043D01*
X167554868Y-82790017D01*
X167555602Y-82789462D01*
X167842250Y-82575233D01*
X167843085Y-82574616D01*
X168151566Y-82348707D01*
X168152420Y-82348089D01*
X168462847Y-82125558D01*
X168463650Y-82124988D01*
X168776195Y-81905708D01*
X168776958Y-81905179D01*
X169090623Y-81689838D01*
X169091831Y-81689021D01*
X169356179Y-81512739D01*
X169357844Y-81511648D01*
X169623927Y-81340617D01*
X169625563Y-81339584D01*
X169894312Y-81173190D01*
X169895820Y-81172274D01*
X170167782Y-81010198D01*
X170169137Y-81009404D01*
X170453441Y-80845404D01*
X170454569Y-80844762D01*
X170741259Y-80683743D01*
X170742382Y-80683120D01*
X171030804Y-80525466D01*
X171031763Y-80524948D01*
X171321862Y-80370688D01*
X171322792Y-80370200D01*
X171614453Y-80219398D01*
X171615450Y-80218890D01*
X171908606Y-80071576D01*
X171909767Y-80071002D01*
X172204183Y-79927292D01*
X172205388Y-79926711D01*
X172501318Y-79786481D01*
X172502495Y-79785932D01*
X172788328Y-79654756D01*
X172789774Y-79654105D01*
X172950379Y-79582904D01*
X173076969Y-79526783D01*
X173078233Y-79526232D01*
X173366924Y-79402704D01*
X173368094Y-79402213D01*
X173658221Y-79282505D01*
X173659498Y-79281987D01*
X173950942Y-79166150D01*
X173952240Y-79165644D01*
X174245011Y-79053671D01*
X174246188Y-79053229D01*
X174540227Y-78945144D01*
X174541571Y-78944661D01*
X174836765Y-78840503D01*
X174838089Y-78840045D01*
X175137649Y-78738703D01*
X175139028Y-78738248D01*
X175439488Y-78640913D01*
X175440835Y-78640486D01*
X175742334Y-78547108D01*
X175743804Y-78546663D01*
X176046395Y-78457228D01*
X176047762Y-78456834D01*
X176351204Y-78371409D01*
X176352738Y-78370988D01*
X176403507Y-78357404D01*
X176657192Y-78289526D01*
X176658646Y-78289147D01*
X176964014Y-78211675D01*
X176965478Y-78211313D01*
X177272095Y-78137753D01*
X177273506Y-78137424D01*
X177599126Y-78063438D01*
X177600447Y-78063146D01*
X177927223Y-77992683D01*
X177928318Y-77992454D01*
X178255635Y-77925650D01*
X178256899Y-77925399D01*
X178584876Y-77862231D01*
X178586101Y-77862002D01*
X178914619Y-77802490D01*
X178915840Y-77802276D01*
X179245017Y-77746401D01*
X179246157Y-77746213D01*
X179575924Y-77693989D01*
X179577118Y-77693806D01*
X179907199Y-77645274D01*
X179908320Y-77645115D01*
X180141610Y-77613571D01*
X180143094Y-77613381D01*
X180376289Y-77584727D01*
X180377547Y-77584580D01*
X180611183Y-77558750D01*
X180612648Y-77558597D01*
X180846404Y-77535623D01*
X180847693Y-77535504D01*
X181081934Y-77515352D01*
X181083137Y-77515256D01*
X181317568Y-77497955D01*
X181318855Y-77497869D01*
X181553394Y-77483424D01*
X181554614Y-77483356D01*
X181788984Y-77471779D01*
X181790475Y-77471716D01*
X182359669Y-77451175D01*
X182361359Y-77451126D01*
X182930472Y-77438791D01*
X182932094Y-77438768D01*
X183501386Y-77434630D01*
X183503052Y-77434630D01*
X184072294Y-77438691D01*
X184073856Y-77438714D01*
X184633068Y-77450762D01*
X184634831Y-77450812D01*
X185193809Y-77470925D01*
X185195475Y-77470997D01*
X185714936Y-77497192D01*
X185754025Y-77499164D01*
X185755810Y-77499267D01*
X185832517Y-77504245D01*
X186314176Y-77535503D01*
X186315750Y-77535617D01*
X186531815Y-77552756D01*
X186533407Y-77552894D01*
X186749169Y-77573113D01*
X186750858Y-77573283D01*
X186966359Y-77596583D01*
X186967967Y-77596769D01*
X187183182Y-77623146D01*
X187184849Y-77623363D01*
X187344875Y-77645296D01*
X187399552Y-77652790D01*
X187401302Y-77653042D01*
X187615728Y-77685547D01*
X187617335Y-77685802D01*
X187831354Y-77721369D01*
X187833077Y-77721668D01*
X188046235Y-77760216D01*
X188048126Y-77760573D01*
X188103626Y-77771502D01*
X188579761Y-77865263D01*
X188581733Y-77865669D01*
X189097885Y-77976348D01*
X189111346Y-77979235D01*
X189113378Y-77979688D01*
X189641231Y-78102175D01*
X189643131Y-78102633D01*
X190169182Y-78234035D01*
X190171093Y-78234530D01*
X190618231Y-78354428D01*
X190685243Y-78372397D01*
X190687353Y-78372983D01*
X191199044Y-78519922D01*
X191201140Y-78520544D01*
X191355504Y-78567833D01*
X191710503Y-78676586D01*
X191712490Y-78677213D01*
X192219662Y-78842406D01*
X192221628Y-78843066D01*
X192579224Y-78966493D01*
X192732250Y-79019311D01*
X192734276Y-79020030D01*
X193242100Y-79205221D01*
X193244110Y-79205973D01*
X193301273Y-79227947D01*
X193749187Y-79400129D01*
X193751080Y-79400876D01*
X194253399Y-79604008D01*
X194255204Y-79604755D01*
X194776273Y-79825391D01*
X194777996Y-79826135D01*
X195190985Y-80008485D01*
X195296248Y-80054962D01*
X195297970Y-80055738D01*
X195494871Y-80146285D01*
X195813358Y-80292745D01*
X195814935Y-80293485D01*
X196328310Y-80539089D01*
X196329420Y-80539628D01*
X196948621Y-80844418D01*
X196949228Y-80844720D01*
X197341131Y-81041130D01*
X197567195Y-81154427D01*
X197568192Y-81154932D01*
X197643037Y-81193290D01*
X197644232Y-81193911D01*
X197718193Y-81232836D01*
X197719380Y-81233469D01*
X197792974Y-81273226D01*
X197794120Y-81273853D01*
X197867367Y-81314452D01*
X197868315Y-81314984D01*
X197941150Y-81356393D01*
X197942308Y-81357060D01*
X198014871Y-81399357D01*
X198016027Y-81400039D01*
X198087924Y-81442997D01*
X198089067Y-81443689D01*
X198159417Y-81486758D01*
X198160977Y-81487729D01*
X198180985Y-81500406D01*
X198196710Y-81510369D01*
X198198791Y-81511716D01*
X198219044Y-81525123D01*
X198264079Y-81578543D01*
X198273084Y-81647829D01*
X198256511Y-81693005D01*
X198007372Y-82102215D01*
X198007029Y-82102775D01*
X197648639Y-82684469D01*
X197648236Y-82685119D01*
X197463963Y-82980117D01*
X197463491Y-82980866D01*
X197277486Y-83273959D01*
X197277008Y-83274706D01*
X197088881Y-83566509D01*
X197088398Y-83567254D01*
X196898555Y-83857139D01*
X196897945Y-83858061D01*
X196731133Y-84107889D01*
X196730386Y-84108994D01*
X196561301Y-84356422D01*
X196560542Y-84357520D01*
X196388977Y-84602865D01*
X196388205Y-84603957D01*
X196214165Y-84847211D01*
X196213340Y-84848350D01*
X196142185Y-84945457D01*
X196141305Y-84946643D01*
X196069170Y-85042668D01*
X196068277Y-85043843D01*
X195994992Y-85139018D01*
X195994082Y-85140185D01*
X195919097Y-85235200D01*
X195918435Y-85236031D01*
X195814315Y-85365664D01*
X195813919Y-85366155D01*
X195708333Y-85496252D01*
X195707934Y-85496740D01*
X195601804Y-85626157D01*
X195601403Y-85626644D01*
X195494447Y-85755723D01*
X195494047Y-85756203D01*
X195379290Y-85893286D01*
X195378888Y-85893764D01*
X195263392Y-86030326D01*
X195262988Y-86030801D01*
X195146805Y-86166782D01*
X195146397Y-86167258D01*
X195029659Y-86302499D01*
X195029187Y-86303042D01*
X194922252Y-86425482D01*
X194921710Y-86426099D01*
X194814224Y-86547538D01*
X194813679Y-86548149D01*
X194705527Y-86668726D01*
X194704980Y-86669332D01*
X194595124Y-86790198D01*
X194594849Y-86790499D01*
X193589394Y-87889447D01*
X193583123Y-87896302D01*
X193561043Y-87914168D01*
X193538833Y-87944709D01*
X193534127Y-87949853D01*
X193534125Y-87949853D01*
X193513339Y-87972574D01*
X193513338Y-87972577D01*
X193504519Y-87989547D01*
X193504518Y-87989546D01*
X193500233Y-87997792D01*
X193483539Y-88020752D01*
X193469995Y-88055987D01*
X193466783Y-88062170D01*
X193466781Y-88062177D01*
X193452576Y-88089516D01*
X193452574Y-88089521D01*
X193448451Y-88108182D01*
X193448452Y-88108183D01*
X193446449Y-88117253D01*
X193436261Y-88143763D01*
X193432297Y-88181322D01*
X193430795Y-88188123D01*
X193430793Y-88188125D01*
X193424152Y-88218198D01*
X193425000Y-88237296D01*
X193424438Y-88255801D01*
X193422432Y-88274815D01*
X193422432Y-88274822D01*
X193427236Y-88305241D01*
X193428324Y-88312130D01*
X193430001Y-88349855D01*
X193438559Y-88376930D01*
X193440009Y-88386104D01*
X193442992Y-88404985D01*
X193442993Y-88404988D01*
X193442994Y-88404990D01*
X193458340Y-88439497D01*
X193469725Y-88475509D01*
X193485001Y-88499447D01*
X193488773Y-88507929D01*
X193496471Y-88525237D01*
X193496545Y-88525403D01*
X193520303Y-88554767D01*
X193540618Y-88586600D01*
X193561568Y-88605768D01*
X193567408Y-88612986D01*
X193579433Y-88627848D01*
X193579435Y-88627850D01*
X193579436Y-88627851D01*
X193579438Y-88627853D01*
X193609982Y-88650063D01*
X193637847Y-88675558D01*
X193663053Y-88688655D01*
X193686022Y-88705357D01*
X193714766Y-88716404D01*
X193727444Y-88722113D01*
X193754785Y-88736319D01*
X193754788Y-88736320D01*
X193782523Y-88742446D01*
X193809033Y-88752635D01*
X193846592Y-88756598D01*
X193883470Y-88764744D01*
X193902569Y-88763895D01*
X193921081Y-88764457D01*
X194715072Y-88848240D01*
X194716214Y-88848365D01*
X195006070Y-88881894D01*
X195008508Y-88882202D01*
X195158243Y-88902573D01*
X195294409Y-88921098D01*
X195296867Y-88921457D01*
X195582136Y-88966106D01*
X195584583Y-88966514D01*
X195805623Y-89005660D01*
X195870408Y-89017133D01*
X195872291Y-89017481D01*
X196227142Y-89086013D01*
X196228323Y-89086248D01*
X196584041Y-89158989D01*
X196585286Y-89159251D01*
X196940196Y-89235881D01*
X196941335Y-89236133D01*
X197295662Y-89316699D01*
X197296654Y-89316930D01*
X197660311Y-89403775D01*
X197661585Y-89404087D01*
X198024122Y-89494819D01*
X198025311Y-89495123D01*
X198387014Y-89589812D01*
X198388307Y-89590158D01*
X198423251Y-89599710D01*
X198748586Y-89688642D01*
X198750007Y-89689041D01*
X199064312Y-89779441D01*
X199066023Y-89779948D01*
X199378410Y-89875124D01*
X199380099Y-89875653D01*
X199691083Y-89975749D01*
X199692842Y-89976330D01*
X200003300Y-90081647D01*
X200004574Y-90082087D01*
X200375778Y-90213330D01*
X200411687Y-90226026D01*
X200412843Y-90226441D01*
X200818667Y-90374495D01*
X200820040Y-90375006D01*
X200839406Y-90382358D01*
X200863676Y-90391571D01*
X200865524Y-90392290D01*
X200907991Y-90409193D01*
X200909821Y-90409938D01*
X200952048Y-90427530D01*
X200953848Y-90428296D01*
X200995868Y-90446592D01*
X200997627Y-90447374D01*
X201030894Y-90462494D01*
X201039363Y-90466343D01*
X201041146Y-90467171D01*
X201082701Y-90486858D01*
X201084374Y-90487666D01*
X201098476Y-90494623D01*
X201149886Y-90541936D01*
X201167557Y-90609535D01*
X201166834Y-90619697D01*
X201164107Y-90643920D01*
X201163724Y-90646978D01*
X201157452Y-90692485D01*
X201156992Y-90695539D01*
X201149594Y-90740843D01*
X201149058Y-90743888D01*
X201140552Y-90788892D01*
X201139940Y-90791922D01*
X201130318Y-90836686D01*
X201129628Y-90839710D01*
X201118917Y-90884104D01*
X201118151Y-90887113D01*
X201106339Y-90931199D01*
X201105496Y-90934195D01*
X201092602Y-90977900D01*
X201091684Y-90980874D01*
X201077719Y-91024173D01*
X201076719Y-91027145D01*
X201061686Y-91070013D01*
X201060611Y-91072959D01*
X201044483Y-91115475D01*
X201043328Y-91118405D01*
X201025190Y-91162787D01*
X201024374Y-91164736D01*
X200779923Y-91734937D01*
X200779499Y-91735915D01*
X200529109Y-92306385D01*
X200528676Y-92307360D01*
X200273648Y-92875077D01*
X200273207Y-92876048D01*
X200013550Y-93441006D01*
X200013000Y-93442187D01*
X199728493Y-94044466D01*
X199727826Y-94045855D01*
X199436351Y-94643533D01*
X199435666Y-94644916D01*
X199136983Y-95238512D01*
X199136280Y-95239888D01*
X198830159Y-95829835D01*
X198829519Y-95831051D01*
X198696435Y-96080721D01*
X198695863Y-96081782D01*
X198560231Y-96330381D01*
X198559648Y-96331436D01*
X198421700Y-96578535D01*
X198421107Y-96579586D01*
X198280812Y-96825240D01*
X198280208Y-96826286D01*
X198137631Y-97070382D01*
X198137015Y-97071424D01*
X197992171Y-97313936D01*
X197991545Y-97314973D01*
X197844461Y-97555861D01*
X197843825Y-97556892D01*
X197694533Y-97796107D01*
X197693825Y-97797228D01*
X197534329Y-98046813D01*
X197533550Y-98048017D01*
X197371443Y-98295336D01*
X197370649Y-98296532D01*
X197205828Y-98541754D01*
X197205018Y-98542944D01*
X197037520Y-98786006D01*
X197036696Y-98787187D01*
X196866528Y-99028087D01*
X196865689Y-99029260D01*
X196692803Y-99268061D01*
X196691948Y-99269227D01*
X196516545Y-99505654D01*
X196515676Y-99506812D01*
X196337292Y-99741481D01*
X196336527Y-99742477D01*
X196135553Y-100001377D01*
X196134892Y-100002221D01*
X195931685Y-100259376D01*
X195931015Y-100260216D01*
X195725655Y-100515520D01*
X195724978Y-100516354D01*
X195517568Y-100769681D01*
X195516883Y-100770511D01*
X195307319Y-101021984D01*
X195306626Y-101022808D01*
X195095159Y-101272130D01*
X195094458Y-101272949D01*
X194880841Y-101520414D01*
X194880132Y-101521228D01*
X194664546Y-101766619D01*
X194663828Y-101767429D01*
X194446930Y-102010011D01*
X194446203Y-102010817D01*
X194227396Y-102251264D01*
X194226662Y-102252064D01*
X194005815Y-102490525D01*
X194005073Y-102491319D01*
X193782295Y-102727675D01*
X193781545Y-102728463D01*
X193556828Y-102962724D01*
X193556070Y-102963507D01*
X193329628Y-103195452D01*
X193328864Y-103196229D01*
X193100225Y-103426344D01*
X193099451Y-103427115D01*
X192869577Y-103654431D01*
X192868646Y-103655343D01*
X192661576Y-103855849D01*
X192660480Y-103856898D01*
X192451544Y-104054315D01*
X192450433Y-104055351D01*
X192239336Y-104249971D01*
X192238211Y-104250995D01*
X192024919Y-104442852D01*
X192023780Y-104443864D01*
X191808435Y-104632832D01*
X191807283Y-104633831D01*
X191589624Y-104820141D01*
X191588456Y-104821128D01*
X191368812Y-105004493D01*
X191367678Y-105005428D01*
X191285174Y-105072594D01*
X191146741Y-105185290D01*
X191145206Y-105186519D01*
X190684154Y-105549851D01*
X190682252Y-105551320D01*
X190215846Y-105904433D01*
X190213911Y-105905869D01*
X189741444Y-106249335D01*
X189739477Y-106250736D01*
X189261064Y-106584482D01*
X189259066Y-106585847D01*
X188774841Y-106909783D01*
X188772811Y-106911113D01*
X188282849Y-107225186D01*
X188280788Y-107226478D01*
X187785378Y-107530501D01*
X187783288Y-107531756D01*
X187282492Y-107825687D01*
X187280333Y-107826925D01*
X186780407Y-108107015D01*
X186778183Y-108108231D01*
X186273534Y-108377559D01*
X186271280Y-108378732D01*
X185761940Y-108637300D01*
X185759681Y-108638418D01*
X185577350Y-108726319D01*
X185245702Y-108886204D01*
X185243394Y-108887288D01*
X184724975Y-109124198D01*
X184722639Y-109125236D01*
X184200008Y-109351170D01*
X184197647Y-109352162D01*
X183670842Y-109567096D01*
X183668456Y-109568041D01*
X183137721Y-109771871D01*
X183135286Y-109772777D01*
X182611220Y-109961546D01*
X182608740Y-109962409D01*
X182081525Y-110139791D01*
X182079023Y-110140604D01*
X181548645Y-110306614D01*
X181546123Y-110307374D01*
X181012846Y-110461934D01*
X181010306Y-110462641D01*
X180474293Y-110605711D01*
X180471734Y-110606365D01*
X179933070Y-110737920D01*
X179930495Y-110738519D01*
X179389360Y-110858512D01*
X179386768Y-110859058D01*
X178843725Y-110967360D01*
X178841021Y-110967868D01*
X178309784Y-111061608D01*
X178306967Y-111062072D01*
X177774415Y-111143452D01*
X177771587Y-111143851D01*
X177237706Y-111212891D01*
X177234868Y-111213225D01*
X176699707Y-111269927D01*
X176696860Y-111270195D01*
X176160775Y-111314522D01*
X176157921Y-111314725D01*
X175620987Y-111346670D01*
X175618129Y-111346807D01*
X175080548Y-111366354D01*
X175077685Y-111366425D01*
X174536090Y-111373601D01*
X174534653Y-111373612D01*
X173745776Y-111374925D01*
X173732813Y-111374946D01*
X173719525Y-111372161D01*
X173667134Y-111375054D01*
X173663801Y-111375060D01*
X173663801Y-111375061D01*
X173634131Y-111375111D01*
X173623676Y-111375128D01*
X173556604Y-111355558D01*
X173510760Y-111302832D01*
X173500699Y-111233690D01*
X173529617Y-111170085D01*
X173535772Y-111163462D01*
X177732416Y-106966819D01*
X177793739Y-106933334D01*
X177820097Y-106930500D01*
X186523331Y-106930500D01*
X186523347Y-106930501D01*
X186530943Y-106930501D01*
X186689054Y-106930501D01*
X186689057Y-106930501D01*
X186841785Y-106889577D01*
X186902810Y-106854344D01*
X186978716Y-106810520D01*
X187090520Y-106698716D01*
X187090520Y-106698714D01*
X187100724Y-106688511D01*
X187100727Y-106688506D01*
X193850520Y-99938716D01*
X193929577Y-99801784D01*
X193970501Y-99649057D01*
X193970501Y-99490942D01*
X193970501Y-99483347D01*
X193970500Y-99483329D01*
X193970500Y-96024499D01*
X193990185Y-95957460D01*
X194042989Y-95911705D01*
X194094500Y-95900499D01*
X194317871Y-95900499D01*
X194317872Y-95900499D01*
X194377483Y-95894091D01*
X194512331Y-95843796D01*
X194627546Y-95757546D01*
X194713796Y-95642331D01*
X194723816Y-95615466D01*
X194743601Y-95562420D01*
X194785471Y-95506486D01*
X194850936Y-95482068D01*
X194919209Y-95496919D01*
X194947464Y-95518071D01*
X194997636Y-95568243D01*
X194997641Y-95568247D01*
X195090815Y-95635941D01*
X195175978Y-95697815D01*
X195304375Y-95763237D01*
X195372393Y-95797895D01*
X195372396Y-95797896D01*
X195468742Y-95829200D01*
X195582049Y-95866015D01*
X195799778Y-95900500D01*
X195799779Y-95900500D01*
X196020221Y-95900500D01*
X196020222Y-95900500D01*
X196237951Y-95866015D01*
X196447606Y-95797895D01*
X196644022Y-95697815D01*
X196822365Y-95568242D01*
X196978242Y-95412365D01*
X197107815Y-95234022D01*
X197207895Y-95037606D01*
X197276015Y-94827951D01*
X197310500Y-94610222D01*
X197310500Y-94389778D01*
X197276015Y-94172049D01*
X197207895Y-93962394D01*
X197207895Y-93962393D01*
X197164692Y-93877604D01*
X197107815Y-93765978D01*
X197091260Y-93743192D01*
X196978247Y-93587641D01*
X196978243Y-93587636D01*
X196822363Y-93431756D01*
X196822358Y-93431752D01*
X196644025Y-93302187D01*
X196644024Y-93302186D01*
X196644022Y-93302185D01*
X196526791Y-93242452D01*
X196447606Y-93202104D01*
X196447603Y-93202103D01*
X196237952Y-93133985D01*
X196129086Y-93116742D01*
X196020222Y-93099500D01*
X195799778Y-93099500D01*
X195727201Y-93110995D01*
X195582047Y-93133985D01*
X195372396Y-93202103D01*
X195372393Y-93202104D01*
X195175974Y-93302187D01*
X194997641Y-93431752D01*
X194997636Y-93431756D01*
X194947463Y-93481929D01*
X194886140Y-93515413D01*
X194816448Y-93510428D01*
X194760515Y-93468557D01*
X194743601Y-93437580D01*
X194713797Y-93357671D01*
X194713793Y-93357664D01*
X194627547Y-93242455D01*
X194627544Y-93242452D01*
X194512335Y-93156206D01*
X194512328Y-93156202D01*
X194377482Y-93105908D01*
X194377483Y-93105908D01*
X194317883Y-93099501D01*
X194317881Y-93099500D01*
X194317873Y-93099500D01*
X194317865Y-93099500D01*
X192870097Y-93099500D01*
X192803058Y-93079815D01*
X192782416Y-93063181D01*
X189806819Y-90087584D01*
X189773334Y-90026261D01*
X189770500Y-89999903D01*
X189770500Y-86059060D01*
X189770501Y-86059057D01*
X189770501Y-85900942D01*
X189770500Y-85900938D01*
X189770500Y-85014499D01*
X189790185Y-84947460D01*
X189842989Y-84901705D01*
X189894500Y-84890499D01*
X190117871Y-84890499D01*
X190117872Y-84890499D01*
X190177483Y-84884091D01*
X190312331Y-84833796D01*
X190427546Y-84747546D01*
X190513796Y-84632331D01*
X190513798Y-84632326D01*
X190543601Y-84552420D01*
X190585471Y-84496486D01*
X190650936Y-84472068D01*
X190719209Y-84486919D01*
X190747464Y-84508071D01*
X190797636Y-84558243D01*
X190797641Y-84558247D01*
X190899603Y-84632326D01*
X190975978Y-84687815D01*
X191104375Y-84753237D01*
X191172393Y-84787895D01*
X191172396Y-84787896D01*
X191277221Y-84821955D01*
X191382049Y-84856015D01*
X191599778Y-84890500D01*
X191599779Y-84890500D01*
X191820221Y-84890500D01*
X191820222Y-84890500D01*
X192037951Y-84856015D01*
X192247606Y-84787895D01*
X192444022Y-84687815D01*
X192622365Y-84558242D01*
X192778242Y-84402365D01*
X192907815Y-84224022D01*
X193007895Y-84027606D01*
X193076015Y-83817951D01*
X193110500Y-83600222D01*
X193110500Y-83379778D01*
X193076015Y-83162049D01*
X193041955Y-83057221D01*
X193007896Y-82952396D01*
X193007895Y-82952393D01*
X192972257Y-82882452D01*
X192907815Y-82755978D01*
X192855861Y-82684469D01*
X192778247Y-82577641D01*
X192778243Y-82577636D01*
X192622363Y-82421756D01*
X192622358Y-82421752D01*
X192444025Y-82292187D01*
X192444024Y-82292186D01*
X192444022Y-82292185D01*
X192369703Y-82254317D01*
X192247606Y-82192104D01*
X192247603Y-82192103D01*
X192037952Y-82123985D01*
X191900501Y-82102215D01*
X191820222Y-82089500D01*
X191599778Y-82089500D01*
X191541401Y-82098746D01*
X191382047Y-82123985D01*
X191172396Y-82192103D01*
X191172393Y-82192104D01*
X190975974Y-82292187D01*
X190797641Y-82421752D01*
X190797636Y-82421756D01*
X190747463Y-82471929D01*
X190686140Y-82505413D01*
X190616448Y-82500428D01*
X190560515Y-82458557D01*
X190543601Y-82427580D01*
X190513797Y-82347671D01*
X190513793Y-82347664D01*
X190427547Y-82232455D01*
X190427544Y-82232452D01*
X190312335Y-82146206D01*
X190312328Y-82146202D01*
X190177482Y-82095908D01*
X190177483Y-82095908D01*
X190117883Y-82089501D01*
X190117881Y-82089500D01*
X190117873Y-82089500D01*
X190117864Y-82089500D01*
X188222129Y-82089500D01*
X188222123Y-82089501D01*
X188162516Y-82095908D01*
X188027671Y-82146202D01*
X188027664Y-82146206D01*
X187912455Y-82232452D01*
X187912452Y-82232455D01*
X187826206Y-82347664D01*
X187826202Y-82347671D01*
X187775908Y-82482517D01*
X187769501Y-82542116D01*
X187769500Y-82542135D01*
X187769500Y-84437870D01*
X187769501Y-84437876D01*
X187775908Y-84497483D01*
X187826202Y-84632328D01*
X187826206Y-84632335D01*
X187912452Y-84747544D01*
X187912455Y-84747547D01*
X188027664Y-84833793D01*
X188027671Y-84833797D01*
X188065127Y-84847767D01*
X188162517Y-84884091D01*
X188222127Y-84890500D01*
X188445500Y-84890499D01*
X188512539Y-84910183D01*
X188558294Y-84962987D01*
X188569500Y-85014499D01*
X188569500Y-85679902D01*
X188549815Y-85746941D01*
X188533181Y-85767583D01*
X184907582Y-89393181D01*
X184846259Y-89426666D01*
X184819901Y-89429500D01*
X183372129Y-89429500D01*
X183372123Y-89429501D01*
X183312516Y-89435908D01*
X183177671Y-89486202D01*
X183177664Y-89486206D01*
X183062455Y-89572452D01*
X183062452Y-89572455D01*
X182976206Y-89687664D01*
X182976202Y-89687671D01*
X182925908Y-89822517D01*
X182919501Y-89882116D01*
X182919500Y-89882135D01*
X182919500Y-90105500D01*
X182899815Y-90172539D01*
X182847011Y-90218294D01*
X182795500Y-90229500D01*
X182059057Y-90229500D01*
X181900942Y-90229500D01*
X181748215Y-90270423D01*
X181748214Y-90270423D01*
X181748212Y-90270424D01*
X181748209Y-90270425D01*
X181705367Y-90295161D01*
X181705365Y-90295162D01*
X181611290Y-90349475D01*
X181611282Y-90349481D01*
X181499478Y-90461286D01*
X181074842Y-90885921D01*
X181013519Y-90919406D01*
X180948848Y-90916173D01*
X180934534Y-90911522D01*
X180759995Y-90883878D01*
X180732352Y-90879500D01*
X180527648Y-90879500D01*
X180503329Y-90883351D01*
X180325465Y-90911522D01*
X180130776Y-90974781D01*
X179948386Y-91067715D01*
X179782786Y-91188028D01*
X179638028Y-91332786D01*
X179517715Y-91498386D01*
X179424781Y-91680776D01*
X179361522Y-91875465D01*
X179329500Y-92077648D01*
X179329500Y-92282351D01*
X179361522Y-92484534D01*
X179424781Y-92679223D01*
X179517715Y-92861613D01*
X179638028Y-93027213D01*
X179782786Y-93171971D01*
X179924255Y-93274752D01*
X179948390Y-93292287D01*
X180057595Y-93347930D01*
X180130776Y-93385218D01*
X180130778Y-93385218D01*
X180130781Y-93385220D01*
X180189202Y-93404202D01*
X180325465Y-93448477D01*
X180426557Y-93464488D01*
X180527648Y-93480500D01*
X180527649Y-93480500D01*
X180732351Y-93480500D01*
X180732352Y-93480500D01*
X180934534Y-93448477D01*
X181129219Y-93385220D01*
X181311610Y-93292287D01*
X181435736Y-93202105D01*
X181477213Y-93171971D01*
X181477215Y-93171968D01*
X181477219Y-93171966D01*
X181621966Y-93027219D01*
X181621968Y-93027215D01*
X181621971Y-93027213D01*
X181674732Y-92954590D01*
X181742287Y-92861610D01*
X181835220Y-92679219D01*
X181898477Y-92484534D01*
X181930500Y-92282352D01*
X181930500Y-92077648D01*
X181898477Y-91875466D01*
X181893826Y-91861154D01*
X181891832Y-91791315D01*
X181924077Y-91735157D01*
X182051844Y-91607391D01*
X182192416Y-91466819D01*
X182253739Y-91433334D01*
X182280097Y-91430500D01*
X182795501Y-91430500D01*
X182862540Y-91450185D01*
X182908295Y-91502989D01*
X182919501Y-91554500D01*
X182919501Y-91777876D01*
X182925908Y-91837483D01*
X182976202Y-91972328D01*
X182976206Y-91972335D01*
X183062452Y-92087544D01*
X183062455Y-92087547D01*
X183177664Y-92173793D01*
X183177671Y-92173797D01*
X183312517Y-92224091D01*
X183312516Y-92224091D01*
X183319444Y-92224835D01*
X183372127Y-92230500D01*
X185267872Y-92230499D01*
X185327483Y-92224091D01*
X185462331Y-92173796D01*
X185577546Y-92087546D01*
X185663796Y-91972331D01*
X185691429Y-91898243D01*
X185693601Y-91892420D01*
X185735471Y-91836486D01*
X185800936Y-91812068D01*
X185869209Y-91826919D01*
X185897464Y-91848071D01*
X185947636Y-91898243D01*
X185947641Y-91898247D01*
X186049603Y-91972326D01*
X186125978Y-92027815D01*
X186248875Y-92090435D01*
X186322393Y-92127895D01*
X186322396Y-92127896D01*
X186388005Y-92149213D01*
X186532049Y-92196015D01*
X186749778Y-92230500D01*
X186749779Y-92230500D01*
X186970221Y-92230500D01*
X186970222Y-92230500D01*
X187187951Y-92196015D01*
X187397606Y-92127895D01*
X187594022Y-92027815D01*
X187772365Y-91898242D01*
X187928242Y-91742365D01*
X188057815Y-91564022D01*
X188157895Y-91367606D01*
X188226015Y-91157951D01*
X188260500Y-90940222D01*
X188260500Y-90719778D01*
X188226015Y-90502049D01*
X188179635Y-90359305D01*
X188157896Y-90292396D01*
X188157895Y-90292393D01*
X188123237Y-90224375D01*
X188057815Y-90095978D01*
X188011350Y-90032024D01*
X187928247Y-89917641D01*
X187928243Y-89917636D01*
X187772363Y-89761756D01*
X187772358Y-89761752D01*
X187594025Y-89632187D01*
X187594024Y-89632186D01*
X187594022Y-89632185D01*
X187515789Y-89592323D01*
X187397606Y-89532104D01*
X187397603Y-89532103D01*
X187187952Y-89463985D01*
X187011463Y-89436032D01*
X186970222Y-89429500D01*
X186869096Y-89429500D01*
X186802057Y-89409815D01*
X186756302Y-89357011D01*
X186746358Y-89287853D01*
X186775383Y-89224297D01*
X186781415Y-89217819D01*
X187551691Y-88447543D01*
X188357820Y-87641413D01*
X188419142Y-87607930D01*
X188488834Y-87612914D01*
X188544767Y-87654786D01*
X188569184Y-87720250D01*
X188569500Y-87729096D01*
X188569500Y-90213330D01*
X188569499Y-90213348D01*
X188569499Y-90379054D01*
X188569498Y-90379054D01*
X188608313Y-90523909D01*
X188610423Y-90531785D01*
X188628347Y-90562830D01*
X188630346Y-90566291D01*
X188630347Y-90566295D01*
X188689475Y-90668709D01*
X188689481Y-90668717D01*
X188808349Y-90787585D01*
X188808355Y-90787590D01*
X191933181Y-93912416D01*
X191966666Y-93973739D01*
X191969500Y-94000097D01*
X191969500Y-95447870D01*
X191969501Y-95447876D01*
X191975908Y-95507483D01*
X192026202Y-95642328D01*
X192026206Y-95642335D01*
X192112452Y-95757544D01*
X192112455Y-95757547D01*
X192227664Y-95843793D01*
X192227671Y-95843797D01*
X192272618Y-95860561D01*
X192362517Y-95894091D01*
X192422127Y-95900500D01*
X192645500Y-95900499D01*
X192712539Y-95920183D01*
X192758294Y-95972987D01*
X192769500Y-96024499D01*
X192769500Y-99269902D01*
X192749815Y-99336941D01*
X192733181Y-99357583D01*
X186397584Y-105693181D01*
X186336261Y-105726666D01*
X186309903Y-105729500D01*
X177599057Y-105729500D01*
X177440942Y-105729500D01*
X177288215Y-105770423D01*
X177288214Y-105770423D01*
X177288212Y-105770424D01*
X177288209Y-105770425D01*
X177238096Y-105799359D01*
X177238095Y-105799360D01*
X177206492Y-105817606D01*
X177151285Y-105849479D01*
X177151282Y-105849481D01*
X177039478Y-105961286D01*
X171381284Y-111619481D01*
X171269483Y-111731281D01*
X171269481Y-111731284D01*
X171190423Y-111868214D01*
X171185537Y-111886448D01*
X171149499Y-112020943D01*
X171149499Y-112020945D01*
X171149499Y-112179054D01*
X171149498Y-112179054D01*
X171182650Y-112302775D01*
X171190423Y-112331785D01*
X171269481Y-112468716D01*
X171269483Y-112468718D01*
X185269280Y-126468515D01*
X185295479Y-126507131D01*
X185443133Y-126849838D01*
X185443889Y-126851633D01*
X185567399Y-127151284D01*
X185580934Y-127184120D01*
X185581387Y-127188406D01*
X185583855Y-127191943D01*
X185590291Y-127231374D01*
X185590291Y-136314121D01*
X185590290Y-136314139D01*
X185590290Y-136479845D01*
X185590289Y-136479845D01*
X185590290Y-136479848D01*
X185631214Y-136632576D01*
X185631215Y-136632578D01*
X185631214Y-136632578D01*
X185647371Y-136660561D01*
X185647373Y-136660563D01*
X185647374Y-136660565D01*
X185683050Y-136722358D01*
X185710270Y-136769506D01*
X185829140Y-136888376D01*
X185829146Y-136888381D01*
X186151340Y-137210575D01*
X186184825Y-137271898D01*
X186179841Y-137341590D01*
X186137969Y-137397523D01*
X186072505Y-137421940D01*
X186044262Y-137420729D01*
X185910222Y-137399500D01*
X185689778Y-137399500D01*
X185649320Y-137405908D01*
X185472045Y-137433985D01*
X185401794Y-137456811D01*
X185386582Y-137457245D01*
X185372323Y-137462564D01*
X185352367Y-137458222D01*
X185331953Y-137458806D01*
X185317866Y-137450717D01*
X185304050Y-137447712D01*
X185275796Y-137426561D01*
X185156819Y-137307584D01*
X185123334Y-137246261D01*
X185120500Y-137219903D01*
X185120500Y-127240943D01*
X185120170Y-127239714D01*
X185120155Y-127239657D01*
X185107194Y-127191284D01*
X185079577Y-127088216D01*
X185051440Y-127039480D01*
X185000524Y-126951290D01*
X185000521Y-126951286D01*
X185000520Y-126951284D01*
X184888716Y-126839480D01*
X184888715Y-126839479D01*
X184884385Y-126835149D01*
X184884374Y-126835139D01*
X168977590Y-110928355D01*
X168977588Y-110928352D01*
X168858717Y-110809481D01*
X168858716Y-110809480D01*
X168765489Y-110755656D01*
X168765488Y-110755655D01*
X168721783Y-110730422D01*
X168665881Y-110715443D01*
X168569057Y-110689499D01*
X168410943Y-110689499D01*
X168403347Y-110689499D01*
X168403331Y-110689500D01*
X157650097Y-110689500D01*
X157583058Y-110669815D01*
X157562416Y-110653181D01*
X156744353Y-109835118D01*
X156710868Y-109773795D01*
X156709561Y-109728044D01*
X156728200Y-109610365D01*
X156728200Y-109429635D01*
X156699927Y-109251129D01*
X156644078Y-109079244D01*
X156562028Y-108918212D01*
X156538773Y-108886204D01*
X156455803Y-108772003D01*
X156327996Y-108644196D01*
X156181791Y-108537974D01*
X156181790Y-108537973D01*
X156181788Y-108537972D01*
X156020756Y-108455922D01*
X155848871Y-108400073D01*
X155848869Y-108400072D01*
X155848867Y-108400072D01*
X155735420Y-108382103D01*
X155670365Y-108371800D01*
X155489635Y-108371800D01*
X155475745Y-108374000D01*
X155311132Y-108400072D01*
X155139241Y-108455923D01*
X154978208Y-108537974D01*
X154832003Y-108644196D01*
X154704196Y-108772003D01*
X154597974Y-108918208D01*
X154515923Y-109079241D01*
X154460072Y-109251132D01*
X154431800Y-109429635D01*
X154431800Y-109610364D01*
X154458707Y-109780251D01*
X154460073Y-109788871D01*
X154515922Y-109960756D01*
X154589426Y-110105016D01*
X154597974Y-110121791D01*
X154704196Y-110267996D01*
X154832003Y-110395803D01*
X154938898Y-110473465D01*
X154978212Y-110502028D01*
X155139244Y-110584078D01*
X155311129Y-110639927D01*
X155485386Y-110667527D01*
X155548521Y-110697456D01*
X155585452Y-110756768D01*
X155584454Y-110826630D01*
X155545844Y-110884863D01*
X155485386Y-110912473D01*
X155311132Y-110940072D01*
X155139241Y-110995923D01*
X154978208Y-111077974D01*
X154832003Y-111184196D01*
X154704196Y-111312003D01*
X154597974Y-111458208D01*
X154515923Y-111619241D01*
X154460072Y-111791132D01*
X154444683Y-111888294D01*
X154431800Y-111969635D01*
X154431800Y-112150365D01*
X154437050Y-112183514D01*
X154460053Y-112328750D01*
X154460073Y-112328871D01*
X154515922Y-112500756D01*
X154587664Y-112641558D01*
X154597974Y-112661791D01*
X154704196Y-112807996D01*
X154832003Y-112935803D01*
X154929025Y-113006292D01*
X154978212Y-113042028D01*
X155139244Y-113124078D01*
X155311129Y-113179927D01*
X155489635Y-113208200D01*
X155489636Y-113208200D01*
X155670364Y-113208200D01*
X155670365Y-113208200D01*
X155848871Y-113179927D01*
X156020756Y-113124078D01*
X156181788Y-113042028D01*
X156305837Y-112951902D01*
X156327996Y-112935803D01*
X156327998Y-112935800D01*
X156328002Y-112935798D01*
X156455798Y-112808002D01*
X156455800Y-112807998D01*
X156455803Y-112807996D01*
X156505151Y-112740073D01*
X156562028Y-112661788D01*
X156644078Y-112500756D01*
X156699927Y-112328871D01*
X156728200Y-112150365D01*
X156728200Y-111969635D01*
X156702800Y-111809268D01*
X156705836Y-111785767D01*
X156704420Y-111762115D01*
X156710231Y-111751757D01*
X156711754Y-111739977D01*
X156727015Y-111721847D01*
X156738611Y-111701183D01*
X156749100Y-111695611D01*
X156756750Y-111686525D01*
X156779388Y-111679525D01*
X156800318Y-111668409D01*
X156812155Y-111669393D01*
X156823502Y-111665885D01*
X156846329Y-111672235D01*
X156869947Y-111674199D01*
X156882305Y-111682242D01*
X156890816Y-111684610D01*
X156900726Y-111691471D01*
X156907196Y-111696432D01*
X156981284Y-111770520D01*
X157065469Y-111819124D01*
X157118215Y-111849577D01*
X157270943Y-111890501D01*
X157270946Y-111890501D01*
X157436653Y-111890501D01*
X157436669Y-111890500D01*
X168189903Y-111890500D01*
X168256942Y-111910185D01*
X168277584Y-111926819D01*
X183883181Y-127532416D01*
X183916666Y-127593739D01*
X183919500Y-127620097D01*
X183919500Y-137275500D01*
X183899815Y-137342539D01*
X183847011Y-137388294D01*
X183795500Y-137399500D01*
X182312129Y-137399500D01*
X182312123Y-137399501D01*
X182252516Y-137405908D01*
X182117671Y-137456202D01*
X182117664Y-137456206D01*
X182002455Y-137542452D01*
X182002452Y-137542455D01*
X181916206Y-137657664D01*
X181916202Y-137657671D01*
X181865908Y-137792517D01*
X181859501Y-137852116D01*
X181859500Y-137852135D01*
X181859500Y-138106500D01*
X181839815Y-138173539D01*
X181787011Y-138219294D01*
X181735500Y-138230500D01*
X180248131Y-138230500D01*
X180181092Y-138210815D01*
X180135337Y-138158011D01*
X180125393Y-138088853D01*
X180130200Y-138068183D01*
X180166014Y-137957954D01*
X180166013Y-137957954D01*
X180166015Y-137957951D01*
X180200500Y-137740222D01*
X180200500Y-137519778D01*
X180166015Y-137302049D01*
X180117846Y-137153797D01*
X180097896Y-137092396D01*
X180097895Y-137092393D01*
X180059855Y-137017737D01*
X179997815Y-136895978D01*
X179948478Y-136828071D01*
X179868247Y-136717641D01*
X179868243Y-136717636D01*
X179712363Y-136561756D01*
X179712358Y-136561752D01*
X179534025Y-136432187D01*
X179534024Y-136432186D01*
X179534022Y-136432185D01*
X179416791Y-136372452D01*
X179337606Y-136332104D01*
X179337603Y-136332103D01*
X179127952Y-136263985D01*
X179019086Y-136246742D01*
X178910222Y-136229500D01*
X178689778Y-136229500D01*
X178617201Y-136240995D01*
X178472047Y-136263985D01*
X178262396Y-136332103D01*
X178262393Y-136332104D01*
X178065974Y-136432187D01*
X177887641Y-136561752D01*
X177887636Y-136561756D01*
X177837463Y-136611929D01*
X177776140Y-136645413D01*
X177706448Y-136640428D01*
X177650515Y-136598557D01*
X177633601Y-136567580D01*
X177603797Y-136487671D01*
X177603793Y-136487664D01*
X177517547Y-136372455D01*
X177517544Y-136372452D01*
X177402335Y-136286206D01*
X177402328Y-136286202D01*
X177267482Y-136235908D01*
X177267483Y-136235908D01*
X177207883Y-136229501D01*
X177207881Y-136229500D01*
X177207873Y-136229500D01*
X177207864Y-136229500D01*
X175312129Y-136229500D01*
X175312123Y-136229501D01*
X175252516Y-136235908D01*
X175117671Y-136286202D01*
X175117664Y-136286206D01*
X175002455Y-136372452D01*
X175002452Y-136372455D01*
X174916206Y-136487664D01*
X174916202Y-136487671D01*
X174865908Y-136622517D01*
X174859501Y-136682116D01*
X174859500Y-136682135D01*
X174859500Y-138129901D01*
X174839815Y-138196940D01*
X174823181Y-138217582D01*
X173851286Y-139189478D01*
X173739481Y-139301282D01*
X173739479Y-139301285D01*
X173730817Y-139316289D01*
X173692047Y-139383441D01*
X173687928Y-139390576D01*
X173664301Y-139431499D01*
X173660423Y-139438215D01*
X173619499Y-139590943D01*
X173619499Y-139590945D01*
X173619499Y-139759046D01*
X173619500Y-139759059D01*
X173619500Y-142945500D01*
X173599815Y-143012539D01*
X173547011Y-143058294D01*
X173495501Y-143069500D01*
X173272130Y-143069500D01*
X173272123Y-143069501D01*
X173212516Y-143075908D01*
X173077671Y-143126202D01*
X173077664Y-143126206D01*
X172962455Y-143212452D01*
X172962452Y-143212455D01*
X172876206Y-143327664D01*
X172876202Y-143327671D01*
X172825908Y-143462517D01*
X172819501Y-143522116D01*
X172819500Y-143522135D01*
X172819500Y-143745500D01*
X172799815Y-143812539D01*
X172747011Y-143858294D01*
X172695500Y-143869500D01*
X169930097Y-143869500D01*
X169863058Y-143849815D01*
X169842416Y-143833181D01*
X151947590Y-125938355D01*
X151947588Y-125938352D01*
X151828718Y-125819482D01*
X151828716Y-125819480D01*
X151691785Y-125740423D01*
X151539058Y-125699499D01*
X151539057Y-125699499D01*
X151380943Y-125699499D01*
X151266397Y-125730192D01*
X151228214Y-125740423D01*
X151201178Y-125756033D01*
X151201177Y-125756033D01*
X151091287Y-125819477D01*
X151091282Y-125819481D01*
X149759481Y-127151282D01*
X149759477Y-127151287D01*
X149713240Y-127231374D01*
X149711802Y-127233865D01*
X149680423Y-127288215D01*
X149639499Y-127440943D01*
X149639499Y-127440945D01*
X149639499Y-127609046D01*
X149639500Y-127609059D01*
X149639500Y-129389902D01*
X149619815Y-129456941D01*
X149603181Y-129477583D01*
X148629481Y-130451282D01*
X148629479Y-130451285D01*
X148598896Y-130504258D01*
X148598895Y-130504260D01*
X148550423Y-130588214D01*
X148550423Y-130588215D01*
X148509499Y-130740943D01*
X148509499Y-130740945D01*
X148509499Y-130909046D01*
X148509500Y-130909059D01*
X148509500Y-131519903D01*
X148489815Y-131586942D01*
X148473181Y-131607584D01*
X133467584Y-146613181D01*
X133406261Y-146646666D01*
X133379903Y-146649500D01*
X127994500Y-146649500D01*
X127927461Y-146629815D01*
X127881706Y-146577011D01*
X127870500Y-146525500D01*
X127870500Y-145594499D01*
X127890185Y-145527460D01*
X127942989Y-145481705D01*
X127994500Y-145470499D01*
X128217871Y-145470499D01*
X128217872Y-145470499D01*
X128277483Y-145464091D01*
X128412331Y-145413796D01*
X128527546Y-145327546D01*
X128613796Y-145212331D01*
X128627766Y-145174875D01*
X128643601Y-145132420D01*
X128685471Y-145076486D01*
X128750936Y-145052068D01*
X128819209Y-145066919D01*
X128847464Y-145088071D01*
X128897636Y-145138243D01*
X128897641Y-145138247D01*
X129041415Y-145242704D01*
X129075978Y-145267815D01*
X129194185Y-145328045D01*
X129272393Y-145367895D01*
X129272396Y-145367896D01*
X129332628Y-145387466D01*
X129482049Y-145436015D01*
X129699778Y-145470500D01*
X129699779Y-145470500D01*
X129920221Y-145470500D01*
X129920222Y-145470500D01*
X130137951Y-145436015D01*
X130347606Y-145367895D01*
X130544022Y-145267815D01*
X130722365Y-145138242D01*
X130878242Y-144982365D01*
X131007815Y-144804022D01*
X131025328Y-144769651D01*
X131041352Y-144738204D01*
X131089326Y-144687409D01*
X131151836Y-144670500D01*
X133323331Y-144670500D01*
X133323347Y-144670501D01*
X133330943Y-144670501D01*
X133489054Y-144670501D01*
X133489057Y-144670501D01*
X133641785Y-144629577D01*
X133698230Y-144596988D01*
X133778716Y-144550520D01*
X133890520Y-144438716D01*
X133890520Y-144438714D01*
X133900724Y-144428511D01*
X133900728Y-144428506D01*
X149058506Y-129270728D01*
X149058511Y-129270724D01*
X149068714Y-129260520D01*
X149068716Y-129260520D01*
X149180520Y-129148716D01*
X149259577Y-129011784D01*
X149300500Y-128859057D01*
X149300500Y-125590097D01*
X149320185Y-125523058D01*
X149336819Y-125502416D01*
X150232416Y-124606819D01*
X150293739Y-124573334D01*
X150320097Y-124570500D01*
X151139055Y-124570500D01*
X151139057Y-124570500D01*
X151291784Y-124529577D01*
X151428716Y-124450520D01*
X151540520Y-124338716D01*
X151619577Y-124201784D01*
X151660500Y-124049057D01*
X151660500Y-112709059D01*
X151660501Y-112709046D01*
X151660501Y-112540945D01*
X151660501Y-112540943D01*
X151619577Y-112388215D01*
X151586997Y-112331785D01*
X151540520Y-112251284D01*
X151428716Y-112139480D01*
X151428715Y-112139479D01*
X151424385Y-112135149D01*
X151424374Y-112135139D01*
X149124353Y-109835118D01*
X149090868Y-109773795D01*
X149089561Y-109728044D01*
X149108200Y-109610365D01*
X149108200Y-109429635D01*
X149079927Y-109251129D01*
X149024078Y-109079244D01*
X148942028Y-108918212D01*
X148918773Y-108886204D01*
X148835803Y-108772003D01*
X148707996Y-108644196D01*
X148561791Y-108537974D01*
X148561790Y-108537973D01*
X148561788Y-108537972D01*
X148400756Y-108455922D01*
X148228871Y-108400073D01*
X148228869Y-108400072D01*
X148228867Y-108400072D01*
X148115420Y-108382103D01*
X148050365Y-108371800D01*
X147869635Y-108371800D01*
X147855745Y-108374000D01*
X147691132Y-108400072D01*
X147519241Y-108455923D01*
X147358208Y-108537974D01*
X147212003Y-108644196D01*
X147084196Y-108772003D01*
X146977972Y-108918210D01*
X146964984Y-108943701D01*
X146917009Y-108994496D01*
X146849188Y-109011291D01*
X146783054Y-108988753D01*
X146739603Y-108934037D01*
X146730500Y-108887405D01*
X146730500Y-107612594D01*
X146732294Y-107606480D01*
X146731119Y-107600219D01*
X146742019Y-107573361D01*
X146750185Y-107545555D01*
X146754999Y-107541383D01*
X146757396Y-107535479D01*
X146781088Y-107518776D01*
X146802989Y-107499800D01*
X146809293Y-107498893D01*
X146814502Y-107495222D01*
X146843459Y-107493980D01*
X146872147Y-107489856D01*
X146877942Y-107492502D01*
X146884308Y-107492230D01*
X146909337Y-107506840D01*
X146935703Y-107518881D01*
X146940528Y-107525046D01*
X146944650Y-107527453D01*
X146964985Y-107556300D01*
X146977972Y-107581789D01*
X147084196Y-107727996D01*
X147212003Y-107855803D01*
X147295473Y-107916446D01*
X147358212Y-107962028D01*
X147519244Y-108044078D01*
X147691129Y-108099927D01*
X147869635Y-108128200D01*
X148050365Y-108128200D01*
X148228871Y-108099927D01*
X148400756Y-108044078D01*
X148561788Y-107962028D01*
X148696442Y-107864197D01*
X148707996Y-107855803D01*
X148707998Y-107855800D01*
X148708002Y-107855798D01*
X148835798Y-107728002D01*
X148835800Y-107727998D01*
X148835803Y-107727996D01*
X148889878Y-107653567D01*
X148942028Y-107581788D01*
X149024078Y-107420756D01*
X149079927Y-107248871D01*
X149108200Y-107070365D01*
X149108200Y-106889635D01*
X154431800Y-106889635D01*
X154431800Y-107070364D01*
X154456422Y-107225824D01*
X154460073Y-107248871D01*
X154515922Y-107420756D01*
X154593678Y-107573361D01*
X154597974Y-107581791D01*
X154704196Y-107727996D01*
X154832003Y-107855803D01*
X154915473Y-107916446D01*
X154978212Y-107962028D01*
X155139244Y-108044078D01*
X155311129Y-108099927D01*
X155489635Y-108128200D01*
X155670365Y-108128200D01*
X155848871Y-108099927D01*
X156020756Y-108044078D01*
X156181788Y-107962028D01*
X156316442Y-107864197D01*
X156327996Y-107855803D01*
X156327998Y-107855800D01*
X156328002Y-107855798D01*
X156455798Y-107728002D01*
X156455800Y-107727998D01*
X156455803Y-107727996D01*
X156509878Y-107653567D01*
X156562028Y-107581788D01*
X156644078Y-107420756D01*
X156699927Y-107248871D01*
X156728200Y-107070365D01*
X156728200Y-106889635D01*
X156699927Y-106711129D01*
X156644078Y-106539244D01*
X156562028Y-106378212D01*
X156539646Y-106347405D01*
X156455803Y-106232003D01*
X156327996Y-106104196D01*
X156181791Y-105997974D01*
X156181790Y-105997973D01*
X156181788Y-105997972D01*
X156020756Y-105915922D01*
X155848871Y-105860073D01*
X155848869Y-105860072D01*
X155848867Y-105860072D01*
X155735420Y-105842103D01*
X155670365Y-105831800D01*
X155489635Y-105831800D01*
X155475745Y-105834000D01*
X155311132Y-105860072D01*
X155311129Y-105860073D01*
X155165097Y-105907522D01*
X155139241Y-105915923D01*
X154978208Y-105997974D01*
X154832003Y-106104196D01*
X154704196Y-106232003D01*
X154597974Y-106378208D01*
X154515923Y-106539241D01*
X154460072Y-106711132D01*
X154431800Y-106889635D01*
X149108200Y-106889635D01*
X149079927Y-106711129D01*
X149024078Y-106539244D01*
X148942028Y-106378212D01*
X148919646Y-106347405D01*
X148835803Y-106232003D01*
X148707996Y-106104196D01*
X148561791Y-105997974D01*
X148561790Y-105997973D01*
X148561788Y-105997972D01*
X148400756Y-105915922D01*
X148228871Y-105860073D01*
X148228869Y-105860072D01*
X148228867Y-105860072D01*
X148115420Y-105842103D01*
X148050365Y-105831800D01*
X147869635Y-105831800D01*
X147855745Y-105834000D01*
X147691132Y-105860072D01*
X147691129Y-105860073D01*
X147545097Y-105907522D01*
X147519241Y-105915923D01*
X147358208Y-105997974D01*
X147212003Y-106104196D01*
X147084196Y-106232003D01*
X146977972Y-106378210D01*
X146964984Y-106403701D01*
X146917009Y-106454496D01*
X146849188Y-106471291D01*
X146783054Y-106448753D01*
X146739603Y-106394037D01*
X146730500Y-106347405D01*
X146730500Y-105072594D01*
X146750185Y-105005555D01*
X146802989Y-104959800D01*
X146872147Y-104949856D01*
X146935703Y-104978881D01*
X146964985Y-105016300D01*
X146977972Y-105041789D01*
X147084196Y-105187996D01*
X147212003Y-105315803D01*
X147313928Y-105389854D01*
X147358212Y-105422028D01*
X147519244Y-105504078D01*
X147691129Y-105559927D01*
X147869635Y-105588200D01*
X148050365Y-105588200D01*
X148228871Y-105559927D01*
X148400756Y-105504078D01*
X148561788Y-105422028D01*
X148643879Y-105362385D01*
X148707996Y-105315803D01*
X148707998Y-105315800D01*
X148708002Y-105315798D01*
X148835798Y-105188002D01*
X148835800Y-105187998D01*
X148835803Y-105187996D01*
X148919646Y-105072594D01*
X148942028Y-105041788D01*
X149024078Y-104880756D01*
X149079927Y-104708871D01*
X149108200Y-104530365D01*
X149108200Y-104349635D01*
X154431800Y-104349635D01*
X154431800Y-104530365D01*
X154460073Y-104708871D01*
X154515922Y-104880756D01*
X154594320Y-105034621D01*
X154597974Y-105041791D01*
X154704196Y-105187996D01*
X154832003Y-105315803D01*
X154933928Y-105389854D01*
X154978212Y-105422028D01*
X155139244Y-105504078D01*
X155311129Y-105559927D01*
X155489635Y-105588200D01*
X155670365Y-105588200D01*
X155848871Y-105559927D01*
X156020756Y-105504078D01*
X156181788Y-105422028D01*
X156263879Y-105362385D01*
X156327996Y-105315803D01*
X156327998Y-105315800D01*
X156328002Y-105315798D01*
X156455798Y-105188002D01*
X156455800Y-105187998D01*
X156455803Y-105187996D01*
X156539646Y-105072594D01*
X156562028Y-105041788D01*
X156644078Y-104880756D01*
X156699927Y-104708871D01*
X156728200Y-104530365D01*
X156728200Y-104349635D01*
X156699927Y-104171129D01*
X156644078Y-103999244D01*
X156562028Y-103838212D01*
X156549058Y-103820360D01*
X156455803Y-103692003D01*
X156327996Y-103564196D01*
X156181791Y-103457974D01*
X156181790Y-103457973D01*
X156181788Y-103457972D01*
X156020756Y-103375922D01*
X155848871Y-103320073D01*
X155848869Y-103320072D01*
X155848867Y-103320072D01*
X155682659Y-103293747D01*
X155682658Y-103293747D01*
X155670365Y-103291800D01*
X155489635Y-103291800D01*
X155477342Y-103293747D01*
X155477340Y-103293747D01*
X155311132Y-103320072D01*
X155139241Y-103375923D01*
X154978208Y-103457974D01*
X154832003Y-103564196D01*
X154704196Y-103692003D01*
X154597974Y-103838208D01*
X154515923Y-103999241D01*
X154460072Y-104171132D01*
X154446236Y-104258490D01*
X154431800Y-104349635D01*
X149108200Y-104349635D01*
X149079927Y-104171129D01*
X149024078Y-103999244D01*
X148942028Y-103838212D01*
X148929058Y-103820360D01*
X148835803Y-103692003D01*
X148707996Y-103564196D01*
X148561791Y-103457974D01*
X148561790Y-103457973D01*
X148561788Y-103457972D01*
X148400756Y-103375922D01*
X148228871Y-103320073D01*
X148228869Y-103320072D01*
X148228867Y-103320072D01*
X148110436Y-103301314D01*
X148054612Y-103292472D01*
X147991478Y-103262544D01*
X147954547Y-103203232D01*
X147955545Y-103133370D01*
X147994155Y-103075137D01*
X148054612Y-103047527D01*
X148228871Y-103019927D01*
X148400756Y-102964078D01*
X148561788Y-102882028D01*
X148643879Y-102822385D01*
X148707996Y-102775803D01*
X148707998Y-102775800D01*
X148708002Y-102775798D01*
X148835798Y-102648002D01*
X148835800Y-102647998D01*
X148835803Y-102647996D01*
X148905052Y-102552681D01*
X148942028Y-102501788D01*
X149024078Y-102340756D01*
X149079927Y-102168871D01*
X149108200Y-101990365D01*
X149108200Y-101809668D01*
X154432300Y-101809668D01*
X154432300Y-101990331D01*
X154460559Y-102168750D01*
X154516386Y-102340566D01*
X154598401Y-102501529D01*
X154609558Y-102516886D01*
X154609559Y-102516886D01*
X155186300Y-101940145D01*
X155186300Y-101951832D01*
X155213130Y-102051962D01*
X155264962Y-102141737D01*
X155338263Y-102215038D01*
X155428038Y-102266870D01*
X155528168Y-102293700D01*
X155539853Y-102293700D01*
X154963112Y-102870438D01*
X154963112Y-102870439D01*
X154978477Y-102881602D01*
X155139433Y-102963613D01*
X155311249Y-103019440D01*
X155477340Y-103045747D01*
X155682659Y-103045747D01*
X155848750Y-103019440D01*
X156020566Y-102963613D01*
X156181528Y-102881599D01*
X156181532Y-102881597D01*
X156196886Y-102870440D01*
X156196887Y-102870439D01*
X155620148Y-102293700D01*
X155631832Y-102293700D01*
X155731962Y-102266870D01*
X155821737Y-102215038D01*
X155895038Y-102141737D01*
X155946870Y-102051962D01*
X155973700Y-101951832D01*
X155973700Y-101940147D01*
X156550440Y-102516887D01*
X156550440Y-102516886D01*
X156561597Y-102501532D01*
X156561599Y-102501528D01*
X156643613Y-102340566D01*
X156699440Y-102168750D01*
X156727700Y-101990331D01*
X156727700Y-101809668D01*
X156699440Y-101631249D01*
X156643613Y-101459433D01*
X156561602Y-101298477D01*
X156550439Y-101283112D01*
X155973700Y-101859851D01*
X155973700Y-101848168D01*
X155946870Y-101748038D01*
X155895038Y-101658263D01*
X155821737Y-101584962D01*
X155731962Y-101533130D01*
X155631832Y-101506300D01*
X155620147Y-101506300D01*
X156196886Y-100929559D01*
X156196886Y-100929558D01*
X156181529Y-100918401D01*
X156020566Y-100836386D01*
X155848750Y-100780559D01*
X155848752Y-100780559D01*
X155682658Y-100754252D01*
X155477341Y-100754252D01*
X155311248Y-100780559D01*
X155139433Y-100836386D01*
X154978476Y-100918397D01*
X154978472Y-100918400D01*
X154963112Y-100929558D01*
X154963112Y-100929559D01*
X155539854Y-101506300D01*
X155528168Y-101506300D01*
X155428038Y-101533130D01*
X155338263Y-101584962D01*
X155264962Y-101658263D01*
X155213130Y-101748038D01*
X155186300Y-101848168D01*
X155186300Y-101859853D01*
X154609559Y-101283112D01*
X154609558Y-101283112D01*
X154598400Y-101298472D01*
X154598397Y-101298476D01*
X154516386Y-101459433D01*
X154460559Y-101631249D01*
X154432300Y-101809668D01*
X149108200Y-101809668D01*
X149108200Y-101809635D01*
X149079927Y-101631129D01*
X149024078Y-101459244D01*
X148942028Y-101298212D01*
X148923941Y-101273317D01*
X148835803Y-101152003D01*
X148708000Y-101024200D01*
X148688319Y-101009901D01*
X148645654Y-100954571D01*
X148639675Y-100884957D01*
X148672281Y-100823162D01*
X148677794Y-100817830D01*
X148687657Y-100808863D01*
X148721681Y-100789220D01*
X148833485Y-100677416D01*
X148833486Y-100677413D01*
X149267206Y-100243693D01*
X149267211Y-100243689D01*
X149277414Y-100233485D01*
X149277416Y-100233485D01*
X149389220Y-100121681D01*
X149441472Y-100031177D01*
X149468277Y-99984750D01*
X149509201Y-99832022D01*
X149509201Y-99673908D01*
X149509201Y-99666313D01*
X149509200Y-99666295D01*
X149509200Y-99269635D01*
X154431800Y-99269635D01*
X154431800Y-99450364D01*
X154453344Y-99586391D01*
X154460073Y-99628871D01*
X154515922Y-99800756D01*
X154591837Y-99949748D01*
X154597974Y-99961791D01*
X154704196Y-100107996D01*
X154832003Y-100235803D01*
X154922845Y-100301802D01*
X154978212Y-100342028D01*
X155139244Y-100424078D01*
X155311129Y-100479927D01*
X155489635Y-100508200D01*
X155670365Y-100508200D01*
X155848871Y-100479927D01*
X156020756Y-100424078D01*
X156181788Y-100342028D01*
X156263879Y-100282385D01*
X156327996Y-100235803D01*
X156327998Y-100235800D01*
X156328002Y-100235798D01*
X156455798Y-100108002D01*
X156455800Y-100107998D01*
X156455803Y-100107996D01*
X156523213Y-100015212D01*
X156562028Y-99961788D01*
X156644078Y-99800756D01*
X156699927Y-99628871D01*
X156728200Y-99450365D01*
X156728200Y-99269635D01*
X156699927Y-99091129D01*
X156644078Y-98919244D01*
X156562028Y-98758212D01*
X156534234Y-98719956D01*
X156455803Y-98612003D01*
X156327996Y-98484196D01*
X156181791Y-98377974D01*
X156181790Y-98377973D01*
X156181788Y-98377972D01*
X156020756Y-98295922D01*
X155848871Y-98240073D01*
X155848869Y-98240072D01*
X155848867Y-98240072D01*
X155682659Y-98213747D01*
X155682658Y-98213747D01*
X155670365Y-98211800D01*
X155489635Y-98211800D01*
X155477342Y-98213747D01*
X155477340Y-98213747D01*
X155311132Y-98240072D01*
X155139241Y-98295923D01*
X154978208Y-98377974D01*
X154832003Y-98484196D01*
X154704196Y-98612003D01*
X154597974Y-98758208D01*
X154515923Y-98919241D01*
X154460072Y-99091132D01*
X154431800Y-99269635D01*
X149509200Y-99269635D01*
X149509200Y-97689644D01*
X149509199Y-97689637D01*
X149508709Y-97687809D01*
X149508706Y-97687801D01*
X149486974Y-97606694D01*
X149468277Y-97536916D01*
X149461672Y-97525476D01*
X149389224Y-97399990D01*
X149389221Y-97399986D01*
X149389220Y-97399984D01*
X149277416Y-97288180D01*
X149277415Y-97288179D01*
X149273085Y-97283849D01*
X149273074Y-97283839D01*
X149124353Y-97135118D01*
X149090868Y-97073795D01*
X149089561Y-97028044D01*
X149108200Y-96910365D01*
X149108200Y-96729635D01*
X149079927Y-96551129D01*
X149024078Y-96379244D01*
X148942028Y-96218212D01*
X148931057Y-96203112D01*
X148835803Y-96072003D01*
X148804681Y-96040881D01*
X148771196Y-95979558D01*
X148776180Y-95909866D01*
X148818052Y-95853933D01*
X148883516Y-95829516D01*
X148892362Y-95829200D01*
X154544631Y-95829200D01*
X154544647Y-95829201D01*
X154552243Y-95829201D01*
X154710354Y-95829201D01*
X154710357Y-95829201D01*
X154824492Y-95798618D01*
X154894340Y-95800281D01*
X154944265Y-95830712D01*
X155539854Y-96426300D01*
X155528168Y-96426300D01*
X155428038Y-96453130D01*
X155338263Y-96504962D01*
X155264962Y-96578263D01*
X155213130Y-96668038D01*
X155186300Y-96768168D01*
X155186300Y-96779853D01*
X154609559Y-96203112D01*
X154609558Y-96203112D01*
X154598400Y-96218472D01*
X154598397Y-96218476D01*
X154516386Y-96379433D01*
X154460559Y-96551249D01*
X154432300Y-96729668D01*
X154432300Y-96910331D01*
X154460559Y-97088750D01*
X154516386Y-97260566D01*
X154598401Y-97421529D01*
X154609558Y-97436886D01*
X154609559Y-97436886D01*
X155186300Y-96860145D01*
X155186300Y-96871832D01*
X155213130Y-96971962D01*
X155264962Y-97061737D01*
X155338263Y-97135038D01*
X155428038Y-97186870D01*
X155528168Y-97213700D01*
X155539853Y-97213700D01*
X154963112Y-97790438D01*
X154963112Y-97790439D01*
X154978477Y-97801602D01*
X155139433Y-97883613D01*
X155311249Y-97939440D01*
X155477340Y-97965747D01*
X155682659Y-97965747D01*
X155848750Y-97939440D01*
X156020566Y-97883613D01*
X156181528Y-97801599D01*
X156181532Y-97801597D01*
X156196886Y-97790440D01*
X156196887Y-97790439D01*
X155620148Y-97213700D01*
X155631832Y-97213700D01*
X155731962Y-97186870D01*
X155821737Y-97135038D01*
X155895038Y-97061737D01*
X155946870Y-96971962D01*
X155973700Y-96871832D01*
X155973700Y-96860147D01*
X156550440Y-97436887D01*
X156550440Y-97436886D01*
X156561597Y-97421532D01*
X156561599Y-97421528D01*
X156643613Y-97260566D01*
X156699440Y-97088750D01*
X156727700Y-96910331D01*
X156727700Y-96729668D01*
X156699440Y-96551249D01*
X156643613Y-96379433D01*
X156561602Y-96218477D01*
X156550439Y-96203112D01*
X155973700Y-96779851D01*
X155973700Y-96768168D01*
X155946870Y-96668038D01*
X155895038Y-96578263D01*
X155821737Y-96504962D01*
X155731962Y-96453130D01*
X155631832Y-96426300D01*
X155620147Y-96426300D01*
X156196886Y-95849559D01*
X156196886Y-95849558D01*
X156181529Y-95838401D01*
X156020566Y-95756386D01*
X155848750Y-95700559D01*
X155848752Y-95700559D01*
X155673017Y-95672725D01*
X155609883Y-95642795D01*
X155572952Y-95583484D01*
X155573950Y-95513621D01*
X155612560Y-95455389D01*
X155673015Y-95427780D01*
X155848871Y-95399927D01*
X156020756Y-95344078D01*
X156181788Y-95262028D01*
X156263879Y-95202385D01*
X156327996Y-95155803D01*
X156327998Y-95155800D01*
X156328002Y-95155798D01*
X156455798Y-95028002D01*
X156455800Y-95027998D01*
X156455803Y-95027996D01*
X156502385Y-94963879D01*
X156562028Y-94881788D01*
X156644078Y-94720756D01*
X156699927Y-94548871D01*
X156728200Y-94370365D01*
X156728200Y-94189635D01*
X156699927Y-94011129D01*
X156644078Y-93839244D01*
X156562028Y-93678212D01*
X156555202Y-93668817D01*
X156455803Y-93532003D01*
X156327996Y-93404196D01*
X156181791Y-93297974D01*
X156181790Y-93297973D01*
X156181788Y-93297972D01*
X156020756Y-93215922D01*
X155848871Y-93160073D01*
X155848869Y-93160072D01*
X155848867Y-93160072D01*
X155684160Y-93133985D01*
X155670365Y-93131800D01*
X155489635Y-93131800D01*
X155475840Y-93133985D01*
X155311132Y-93160072D01*
X155139241Y-93215923D01*
X154978208Y-93297974D01*
X154832003Y-93404196D01*
X154704196Y-93532003D01*
X154597974Y-93678208D01*
X154515923Y-93839241D01*
X154460072Y-94011132D01*
X154431800Y-94189635D01*
X154431800Y-94370364D01*
X154449925Y-94484802D01*
X154440970Y-94554096D01*
X154395974Y-94607548D01*
X154329222Y-94628187D01*
X154327452Y-94628200D01*
X149232200Y-94628200D01*
X149165161Y-94608515D01*
X149119406Y-94555711D01*
X149108200Y-94504200D01*
X149108199Y-93584429D01*
X149108198Y-93584423D01*
X149108197Y-93584416D01*
X149102999Y-93536057D01*
X149101791Y-93524816D01*
X149051497Y-93389971D01*
X149051493Y-93389964D01*
X148965247Y-93274755D01*
X148965244Y-93274752D01*
X148850035Y-93188506D01*
X148850028Y-93188502D01*
X148715182Y-93138208D01*
X148715183Y-93138208D01*
X148655583Y-93131801D01*
X148655581Y-93131800D01*
X148655573Y-93131800D01*
X148655564Y-93131800D01*
X147264429Y-93131800D01*
X147264423Y-93131801D01*
X147204816Y-93138208D01*
X147069971Y-93188502D01*
X147069964Y-93188506D01*
X146954755Y-93274752D01*
X146954752Y-93274755D01*
X146868506Y-93389964D01*
X146868502Y-93389971D01*
X146818208Y-93524817D01*
X146811801Y-93584416D01*
X146811801Y-93584423D01*
X146811800Y-93584435D01*
X146811800Y-94975570D01*
X146811801Y-94975576D01*
X146818208Y-95035183D01*
X146868502Y-95170028D01*
X146868506Y-95170035D01*
X146869284Y-95171074D01*
X146869737Y-95172289D01*
X146872754Y-95177814D01*
X146871959Y-95178247D01*
X146893701Y-95236538D01*
X146878849Y-95304811D01*
X146857698Y-95333065D01*
X142162181Y-100028583D01*
X142100858Y-100062068D01*
X142031166Y-100057084D01*
X141975233Y-100015212D01*
X141950816Y-99949748D01*
X141950500Y-99940902D01*
X141950500Y-89209601D01*
X141970185Y-89142562D01*
X142018206Y-89099116D01*
X142031610Y-89092287D01*
X142197219Y-88971966D01*
X142341966Y-88827219D01*
X142341968Y-88827215D01*
X142341971Y-88827213D01*
X142408008Y-88736319D01*
X142462287Y-88661610D01*
X142555220Y-88479219D01*
X142618477Y-88284534D01*
X142650500Y-88082352D01*
X142650500Y-87877648D01*
X147669500Y-87877648D01*
X147669500Y-88082352D01*
X147671004Y-88091847D01*
X147701522Y-88284534D01*
X147764781Y-88479223D01*
X147819493Y-88586600D01*
X147849740Y-88645963D01*
X147857715Y-88661613D01*
X147978028Y-88827213D01*
X148122786Y-88971971D01*
X148277749Y-89084556D01*
X148288390Y-89092287D01*
X148369193Y-89133458D01*
X148470776Y-89185218D01*
X148470778Y-89185218D01*
X148470781Y-89185220D01*
X148545818Y-89209601D01*
X148665465Y-89248477D01*
X148715716Y-89256436D01*
X148867648Y-89280500D01*
X148867649Y-89280500D01*
X149072351Y-89280500D01*
X149072352Y-89280500D01*
X149274534Y-89248477D01*
X149469219Y-89185220D01*
X149651610Y-89092287D01*
X149754823Y-89017299D01*
X149817213Y-88971971D01*
X149817215Y-88971968D01*
X149817219Y-88971966D01*
X149961966Y-88827219D01*
X149961968Y-88827215D01*
X149961971Y-88827213D01*
X150028008Y-88736319D01*
X150082287Y-88661610D01*
X150175220Y-88479219D01*
X150238477Y-88284534D01*
X150270500Y-88082352D01*
X150270500Y-87877648D01*
X150238477Y-87675466D01*
X150175220Y-87480781D01*
X150175218Y-87480778D01*
X150175218Y-87480776D01*
X150106691Y-87346286D01*
X150082287Y-87298390D01*
X150055713Y-87261814D01*
X149961971Y-87132786D01*
X149817213Y-86988028D01*
X149651613Y-86867715D01*
X149651612Y-86867714D01*
X149651610Y-86867713D01*
X149571591Y-86826941D01*
X149469223Y-86774781D01*
X149274534Y-86711522D01*
X149099995Y-86683878D01*
X149072352Y-86679500D01*
X148867648Y-86679500D01*
X148843329Y-86683351D01*
X148665465Y-86711522D01*
X148470776Y-86774781D01*
X148288386Y-86867715D01*
X148122786Y-86988028D01*
X147978028Y-87132786D01*
X147857715Y-87298386D01*
X147764781Y-87480776D01*
X147701522Y-87675465D01*
X147670805Y-87869409D01*
X147669500Y-87877648D01*
X142650500Y-87877648D01*
X142618477Y-87675466D01*
X142555220Y-87480781D01*
X142555218Y-87480778D01*
X142555218Y-87480776D01*
X142486691Y-87346286D01*
X142462287Y-87298390D01*
X142435713Y-87261814D01*
X142341971Y-87132786D01*
X142197213Y-86988028D01*
X142031610Y-86867712D01*
X142018200Y-86860879D01*
X141967406Y-86812903D01*
X141950500Y-86750397D01*
X141950500Y-63860097D01*
X141970185Y-63793058D01*
X141986819Y-63772416D01*
X145857100Y-59902135D01*
X150099500Y-59902135D01*
X150099500Y-61697870D01*
X150099501Y-61697876D01*
X150105908Y-61757483D01*
X150156202Y-61892328D01*
X150156206Y-61892335D01*
X150242452Y-62007544D01*
X150242455Y-62007547D01*
X150357664Y-62093793D01*
X150357671Y-62093797D01*
X150492517Y-62144091D01*
X150492516Y-62144091D01*
X150499444Y-62144835D01*
X150552127Y-62150500D01*
X152347872Y-62150499D01*
X152407483Y-62144091D01*
X152542331Y-62093796D01*
X152657546Y-62007546D01*
X152743796Y-61892331D01*
X152794091Y-61757483D01*
X152800500Y-61697873D01*
X152800499Y-59902128D01*
X152794091Y-59842517D01*
X152773379Y-59786986D01*
X152743797Y-59707671D01*
X152743793Y-59707664D01*
X152657547Y-59592455D01*
X152657544Y-59592452D01*
X152542335Y-59506206D01*
X152542328Y-59506202D01*
X152407482Y-59455908D01*
X152407483Y-59455908D01*
X152347883Y-59449501D01*
X152347881Y-59449500D01*
X152347873Y-59449500D01*
X152347864Y-59449500D01*
X150552129Y-59449500D01*
X150552123Y-59449501D01*
X150492516Y-59455908D01*
X150357671Y-59506202D01*
X150357664Y-59506206D01*
X150242455Y-59592452D01*
X150242452Y-59592455D01*
X150156206Y-59707664D01*
X150156202Y-59707671D01*
X150105908Y-59842517D01*
X150104422Y-59856343D01*
X150099501Y-59902123D01*
X150099500Y-59902135D01*
X145857100Y-59902135D01*
X147382416Y-58376819D01*
X147443739Y-58343334D01*
X147470097Y-58340500D01*
X154369903Y-58340500D01*
X154436942Y-58360185D01*
X154457584Y-58376819D01*
X154963181Y-58882416D01*
X154996666Y-58943739D01*
X154999500Y-58970097D01*
X154999500Y-63809903D01*
X154990855Y-63839343D01*
X154984332Y-63869330D01*
X154980577Y-63874345D01*
X154979815Y-63876942D01*
X154963181Y-63897584D01*
X154947584Y-63913181D01*
X154886261Y-63946666D01*
X154859903Y-63949500D01*
X153624499Y-63949500D01*
X153557460Y-63929815D01*
X153511705Y-63877011D01*
X153500499Y-63825500D01*
X153500499Y-63652129D01*
X153500498Y-63652123D01*
X153500497Y-63652116D01*
X153494091Y-63592517D01*
X153452477Y-63480945D01*
X153443797Y-63457671D01*
X153443793Y-63457664D01*
X153357547Y-63342455D01*
X153357544Y-63342452D01*
X153242335Y-63256206D01*
X153242328Y-63256202D01*
X153107482Y-63205908D01*
X153107483Y-63205908D01*
X153047883Y-63199501D01*
X153047881Y-63199500D01*
X153047873Y-63199500D01*
X153047864Y-63199500D01*
X151252129Y-63199500D01*
X151252123Y-63199501D01*
X151192516Y-63205908D01*
X151057671Y-63256202D01*
X151057664Y-63256206D01*
X150942455Y-63342452D01*
X150942452Y-63342455D01*
X150856206Y-63457664D01*
X150856202Y-63457671D01*
X150805908Y-63592517D01*
X150799831Y-63649046D01*
X150799501Y-63652123D01*
X150799500Y-63652135D01*
X150799500Y-63662690D01*
X150779815Y-63729729D01*
X150763181Y-63750371D01*
X150092962Y-64420590D01*
X150075925Y-64357007D01*
X150010099Y-64242993D01*
X149917007Y-64149901D01*
X149802993Y-64084075D01*
X149739409Y-64067037D01*
X150371716Y-63434728D01*
X150317550Y-63395375D01*
X150128217Y-63298904D01*
X149926129Y-63233242D01*
X149716246Y-63200000D01*
X149503754Y-63200000D01*
X149293872Y-63233242D01*
X149293869Y-63233242D01*
X149091782Y-63298904D01*
X148902439Y-63395380D01*
X148848282Y-63434727D01*
X148848282Y-63434728D01*
X149480591Y-64067037D01*
X149417007Y-64084075D01*
X149302993Y-64149901D01*
X149209901Y-64242993D01*
X149144075Y-64357007D01*
X149127037Y-64420591D01*
X148494728Y-63788282D01*
X148494727Y-63788282D01*
X148455380Y-63842439D01*
X148358904Y-64031782D01*
X148293242Y-64233869D01*
X148293242Y-64233872D01*
X148260000Y-64443753D01*
X148260000Y-64656246D01*
X148293242Y-64866127D01*
X148293242Y-64866130D01*
X148358904Y-65068217D01*
X148455375Y-65257550D01*
X148494728Y-65311716D01*
X149127037Y-64679408D01*
X149144075Y-64742993D01*
X149209901Y-64857007D01*
X149302993Y-64950099D01*
X149417007Y-65015925D01*
X149480590Y-65032962D01*
X148848282Y-65665269D01*
X148848282Y-65665270D01*
X148902449Y-65704624D01*
X149091782Y-65801095D01*
X149293870Y-65866757D01*
X149503754Y-65900000D01*
X149716246Y-65900000D01*
X149926127Y-65866757D01*
X149926130Y-65866757D01*
X150128217Y-65801095D01*
X150317554Y-65704622D01*
X150371716Y-65665270D01*
X150371717Y-65665270D01*
X149739408Y-65032962D01*
X149802993Y-65015925D01*
X149917007Y-64950099D01*
X150010099Y-64857007D01*
X150075925Y-64742993D01*
X150092962Y-64679409D01*
X150763181Y-65349628D01*
X150796666Y-65410951D01*
X150799500Y-65437300D01*
X150799500Y-65447865D01*
X150799501Y-65447876D01*
X150805908Y-65507483D01*
X150856202Y-65642328D01*
X150856206Y-65642335D01*
X150942452Y-65757544D01*
X150942455Y-65757547D01*
X151057664Y-65843793D01*
X151057671Y-65843797D01*
X151192517Y-65894091D01*
X151192516Y-65894091D01*
X151199444Y-65894835D01*
X151252127Y-65900500D01*
X153047872Y-65900499D01*
X153107483Y-65894091D01*
X153242331Y-65843796D01*
X153357546Y-65757546D01*
X153443796Y-65642331D01*
X153494091Y-65507483D01*
X153500500Y-65447873D01*
X153500500Y-65274500D01*
X153520185Y-65207461D01*
X153572989Y-65161706D01*
X153624500Y-65150500D01*
X155073331Y-65150500D01*
X155073347Y-65150501D01*
X155080943Y-65150501D01*
X155239054Y-65150501D01*
X155239057Y-65150501D01*
X155391785Y-65109577D01*
X155452647Y-65074438D01*
X155528716Y-65030520D01*
X155640520Y-64918716D01*
X155640520Y-64918714D01*
X155650724Y-64908511D01*
X155650728Y-64908506D01*
X155958506Y-64600728D01*
X155958511Y-64600724D01*
X155968714Y-64590520D01*
X155968716Y-64590520D01*
X156080520Y-64478716D01*
X156140590Y-64374671D01*
X156159577Y-64341785D01*
X156200501Y-64189057D01*
X156200501Y-64030943D01*
X156200501Y-64023348D01*
X156200500Y-64023330D01*
X156200500Y-58759060D01*
X156200501Y-58759047D01*
X156200501Y-58590944D01*
X156200501Y-58590943D01*
X156159577Y-58438216D01*
X156124130Y-58376819D01*
X156080524Y-58301290D01*
X156080518Y-58301282D01*
X155157590Y-57378355D01*
X155157588Y-57378352D01*
X155038717Y-57259481D01*
X155038709Y-57259475D01*
X154927723Y-57195398D01*
X154927722Y-57195397D01*
X154909491Y-57184872D01*
X154901785Y-57180423D01*
X154749057Y-57139499D01*
X154590943Y-57139499D01*
X154583347Y-57139499D01*
X154583331Y-57139500D01*
X152397055Y-57139500D01*
X152330016Y-57119815D01*
X152284261Y-57067011D01*
X152274317Y-56997853D01*
X152287115Y-56958148D01*
X152521046Y-56509719D01*
X152920870Y-55743287D01*
X152921184Y-55742690D01*
X153157600Y-55298368D01*
X153158507Y-55296697D01*
X153400578Y-54859127D01*
X153401514Y-54857467D01*
X153650468Y-54424337D01*
X153651476Y-54422618D01*
X153907715Y-53993257D01*
X153908486Y-53991985D01*
X154207516Y-53506305D01*
X154208225Y-53505169D01*
X154215347Y-53493888D01*
X154512984Y-53022418D01*
X154513548Y-53021537D01*
X154823582Y-52542460D01*
X154824342Y-52541301D01*
X154859567Y-52488191D01*
X155140234Y-52065024D01*
X155140516Y-52064602D01*
X155449859Y-51606082D01*
X155450167Y-51605628D01*
X155524822Y-51496033D01*
X155761872Y-51148037D01*
X156075698Y-50691746D01*
X156247909Y-50443747D01*
X156302314Y-50399910D01*
X156371784Y-50392446D01*
X156434261Y-50423724D01*
G37*
%TD.AperFunction*%
%TA.AperFunction,Conductor*%
G36*
X149270215Y-111684007D02*
G01*
X149292353Y-111701588D01*
X150423181Y-112832416D01*
X150456666Y-112893739D01*
X150459500Y-112920097D01*
X150459500Y-123245500D01*
X150456949Y-123254185D01*
X150458238Y-123263147D01*
X150447259Y-123287187D01*
X150439815Y-123312539D01*
X150432974Y-123318466D01*
X150429213Y-123326703D01*
X150406978Y-123340992D01*
X150387011Y-123358294D01*
X150376496Y-123360581D01*
X150370435Y-123364477D01*
X150335500Y-123369500D01*
X150106669Y-123369500D01*
X150106653Y-123369499D01*
X150099057Y-123369499D01*
X149940943Y-123369499D01*
X149833587Y-123398265D01*
X149788210Y-123410424D01*
X149788209Y-123410425D01*
X149738096Y-123439359D01*
X149738095Y-123439360D01*
X149697920Y-123462555D01*
X149651285Y-123489479D01*
X149651282Y-123489481D01*
X148219479Y-124921284D01*
X148199585Y-124955743D01*
X148191176Y-124970309D01*
X148140423Y-125058215D01*
X148099499Y-125210943D01*
X148099499Y-125210945D01*
X148099499Y-125379046D01*
X148099500Y-125379059D01*
X148099500Y-128479903D01*
X148079815Y-128546942D01*
X148063181Y-128567584D01*
X133197584Y-143433181D01*
X133136261Y-143466666D01*
X133109903Y-143469500D01*
X131151836Y-143469500D01*
X131084797Y-143449815D01*
X131041352Y-143401796D01*
X131007814Y-143335976D01*
X130878247Y-143157641D01*
X130878243Y-143157636D01*
X130722363Y-143001756D01*
X130722358Y-143001752D01*
X130544025Y-142872187D01*
X130544024Y-142872186D01*
X130544022Y-142872185D01*
X130426791Y-142812452D01*
X130347606Y-142772104D01*
X130347603Y-142772103D01*
X130137952Y-142703985D01*
X130013236Y-142684232D01*
X129920222Y-142669500D01*
X129699778Y-142669500D01*
X129639627Y-142679027D01*
X129482047Y-142703985D01*
X129272396Y-142772103D01*
X129272393Y-142772104D01*
X129075974Y-142872187D01*
X128897641Y-143001752D01*
X128897636Y-143001756D01*
X128847463Y-143051929D01*
X128786140Y-143085413D01*
X128716448Y-143080428D01*
X128660515Y-143038557D01*
X128643601Y-143007580D01*
X128613797Y-142927671D01*
X128613793Y-142927664D01*
X128527547Y-142812455D01*
X128527544Y-142812452D01*
X128412335Y-142726206D01*
X128412328Y-142726202D01*
X128277482Y-142675908D01*
X128277483Y-142675908D01*
X128217883Y-142669501D01*
X128217881Y-142669500D01*
X128217873Y-142669500D01*
X128217865Y-142669500D01*
X126770097Y-142669500D01*
X126703058Y-142649815D01*
X126682416Y-142633181D01*
X121066822Y-137017587D01*
X121058276Y-137001936D01*
X121045668Y-136989327D01*
X121041879Y-136971908D01*
X121033337Y-136956264D01*
X121034608Y-136938479D01*
X121030819Y-136921054D01*
X121038318Y-136886582D01*
X121043604Y-136872409D01*
X121085478Y-136816481D01*
X121150943Y-136792067D01*
X121219215Y-136806923D01*
X121247464Y-136828071D01*
X121297636Y-136878243D01*
X121297641Y-136878247D01*
X121419002Y-136966420D01*
X121475978Y-137007815D01*
X121604057Y-137073075D01*
X121672393Y-137107895D01*
X121672396Y-137107896D01*
X121719166Y-137123092D01*
X121882049Y-137176015D01*
X122099778Y-137210500D01*
X122099779Y-137210500D01*
X122320221Y-137210500D01*
X122320222Y-137210500D01*
X122537951Y-137176015D01*
X122747606Y-137107895D01*
X122944022Y-137007815D01*
X123122365Y-136878242D01*
X123278242Y-136722365D01*
X123407815Y-136544022D01*
X123507895Y-136347606D01*
X123576015Y-136137951D01*
X123610500Y-135920222D01*
X123610500Y-135699778D01*
X123576015Y-135482049D01*
X123507895Y-135272394D01*
X123507895Y-135272393D01*
X123454333Y-135167274D01*
X123407815Y-135075978D01*
X123391260Y-135053192D01*
X123278247Y-134897641D01*
X123278243Y-134897636D01*
X123122363Y-134741756D01*
X123122358Y-134741752D01*
X122944023Y-134612185D01*
X122878204Y-134578648D01*
X122827409Y-134530674D01*
X122810500Y-134468164D01*
X122810500Y-127860097D01*
X122830185Y-127793058D01*
X122846819Y-127772416D01*
X131209252Y-119409983D01*
X144839500Y-119409983D01*
X144839500Y-120610001D01*
X144839501Y-120610018D01*
X144850000Y-120712796D01*
X144850001Y-120712799D01*
X144905185Y-120879331D01*
X144905186Y-120879334D01*
X144997288Y-121028656D01*
X145121344Y-121152712D01*
X145270666Y-121244814D01*
X145437203Y-121299999D01*
X145539991Y-121310500D01*
X146740008Y-121310499D01*
X146842797Y-121299999D01*
X147009334Y-121244814D01*
X147158656Y-121152712D01*
X147227879Y-121083489D01*
X147289202Y-121050004D01*
X147358894Y-121054988D01*
X147388446Y-121070853D01*
X147458646Y-121121857D01*
X147640968Y-121214755D01*
X147835582Y-121277990D01*
X148037683Y-121310000D01*
X148242317Y-121310000D01*
X148444417Y-121277990D01*
X148639031Y-121214755D01*
X148821349Y-121121859D01*
X148865921Y-121089474D01*
X148186447Y-120410000D01*
X148192661Y-120410000D01*
X148294394Y-120382741D01*
X148385606Y-120330080D01*
X148460080Y-120255606D01*
X148512741Y-120164394D01*
X148540000Y-120062661D01*
X148540000Y-120056447D01*
X149219474Y-120735921D01*
X149251859Y-120691349D01*
X149344755Y-120509031D01*
X149407990Y-120314417D01*
X149440000Y-120112317D01*
X149440000Y-119907682D01*
X149407990Y-119705582D01*
X149344755Y-119510968D01*
X149251859Y-119328650D01*
X149219474Y-119284077D01*
X149219474Y-119284076D01*
X148540000Y-119963551D01*
X148540000Y-119957339D01*
X148512741Y-119855606D01*
X148460080Y-119764394D01*
X148385606Y-119689920D01*
X148294394Y-119637259D01*
X148192661Y-119610000D01*
X148186446Y-119610000D01*
X148865922Y-118930524D01*
X148865921Y-118930523D01*
X148821359Y-118898147D01*
X148821350Y-118898141D01*
X148639031Y-118805244D01*
X148444417Y-118742009D01*
X148242317Y-118710000D01*
X148037683Y-118710000D01*
X147835582Y-118742009D01*
X147640968Y-118805244D01*
X147458651Y-118898139D01*
X147388444Y-118949148D01*
X147322637Y-118972627D01*
X147254583Y-118956801D01*
X147227878Y-118936510D01*
X147158657Y-118867289D01*
X147158656Y-118867288D01*
X147058066Y-118805244D01*
X147009336Y-118775187D01*
X147009331Y-118775185D01*
X147007862Y-118774698D01*
X146842797Y-118720001D01*
X146842795Y-118720000D01*
X146740010Y-118709500D01*
X145539998Y-118709500D01*
X145539981Y-118709501D01*
X145437203Y-118720000D01*
X145437200Y-118720001D01*
X145270668Y-118775185D01*
X145270663Y-118775187D01*
X145121342Y-118867289D01*
X144997289Y-118991342D01*
X144905187Y-119140663D01*
X144905185Y-119140668D01*
X144881407Y-119212426D01*
X144850001Y-119307203D01*
X144850001Y-119307204D01*
X144850000Y-119307204D01*
X144839500Y-119409983D01*
X131209252Y-119409983D01*
X137482416Y-113136819D01*
X137543739Y-113103334D01*
X137570097Y-113100500D01*
X145831947Y-113100500D01*
X145893950Y-113117115D01*
X145898211Y-113119575D01*
X145898212Y-113119575D01*
X145898215Y-113119577D01*
X146050943Y-113160501D01*
X146050946Y-113160501D01*
X146209054Y-113160501D01*
X146209057Y-113160501D01*
X146361785Y-113119577D01*
X146449764Y-113068782D01*
X146498716Y-113040520D01*
X146610520Y-112928716D01*
X146617851Y-112916019D01*
X146640253Y-112877216D01*
X146663383Y-112837153D01*
X146689577Y-112791785D01*
X146728385Y-112646951D01*
X146764749Y-112587294D01*
X146827596Y-112556765D01*
X146896972Y-112565060D01*
X146950850Y-112609545D01*
X146958644Y-112622754D01*
X146978399Y-112661527D01*
X146989558Y-112676886D01*
X146989559Y-112676886D01*
X147566300Y-112100145D01*
X147566300Y-112111832D01*
X147593130Y-112211962D01*
X147644962Y-112301737D01*
X147718263Y-112375038D01*
X147808038Y-112426870D01*
X147908168Y-112453700D01*
X147919853Y-112453700D01*
X147343112Y-113030438D01*
X147343112Y-113030439D01*
X147358477Y-113041602D01*
X147519433Y-113123613D01*
X147691249Y-113179440D01*
X147869669Y-113207700D01*
X148050331Y-113207700D01*
X148228750Y-113179440D01*
X148400566Y-113123613D01*
X148561528Y-113041599D01*
X148561532Y-113041597D01*
X148576886Y-113030440D01*
X148576887Y-113030439D01*
X148000148Y-112453700D01*
X148011832Y-112453700D01*
X148111962Y-112426870D01*
X148201737Y-112375038D01*
X148275038Y-112301737D01*
X148326870Y-112211962D01*
X148353700Y-112111832D01*
X148353700Y-112100146D01*
X148930440Y-112676887D01*
X148930440Y-112676886D01*
X148941597Y-112661532D01*
X148941599Y-112661528D01*
X149023613Y-112500566D01*
X149079440Y-112328750D01*
X149107700Y-112150331D01*
X149107700Y-111969668D01*
X149082199Y-111808667D01*
X149091153Y-111739374D01*
X149136149Y-111685922D01*
X149202901Y-111665282D01*
X149270215Y-111684007D01*
G37*
%TD.AperFunction*%
%TA.AperFunction,Conductor*%
G36*
X146935703Y-110058881D02*
G01*
X146964985Y-110096300D01*
X146977972Y-110121789D01*
X147084196Y-110267996D01*
X147212003Y-110395803D01*
X147318898Y-110473465D01*
X147358212Y-110502028D01*
X147519244Y-110584078D01*
X147691129Y-110639927D01*
X147866983Y-110667779D01*
X147930115Y-110697708D01*
X147967047Y-110757019D01*
X147966049Y-110826882D01*
X147927439Y-110885115D01*
X147866982Y-110912725D01*
X147691248Y-110940559D01*
X147519433Y-110996386D01*
X147358476Y-111078397D01*
X147358472Y-111078400D01*
X147343112Y-111089558D01*
X147343112Y-111089559D01*
X147919854Y-111666300D01*
X147908168Y-111666300D01*
X147808038Y-111693130D01*
X147718263Y-111744962D01*
X147644962Y-111818263D01*
X147593130Y-111908038D01*
X147566300Y-112008168D01*
X147566300Y-112019853D01*
X146989559Y-111443112D01*
X146989558Y-111443112D01*
X146978400Y-111458472D01*
X146978394Y-111458482D01*
X146964984Y-111484801D01*
X146917009Y-111535596D01*
X146849188Y-111552391D01*
X146783053Y-111529853D01*
X146739603Y-111475137D01*
X146730500Y-111428505D01*
X146730500Y-110152594D01*
X146750185Y-110085555D01*
X146802989Y-110039800D01*
X146872147Y-110029856D01*
X146935703Y-110058881D01*
G37*
%TD.AperFunction*%
%TA.AperFunction,Conductor*%
G36*
X147321378Y-50470405D02*
G01*
X147347108Y-50475527D01*
X147355510Y-50482573D01*
X147362479Y-50485058D01*
X147387795Y-50509648D01*
X147389648Y-50512050D01*
X147397040Y-50521630D01*
X147399502Y-50524933D01*
X147414544Y-50545829D01*
X147415924Y-50547785D01*
X147516627Y-50693566D01*
X147746925Y-51026953D01*
X147747323Y-51027533D01*
X148078136Y-51512284D01*
X148078530Y-51512866D01*
X148406693Y-51999642D01*
X148407084Y-52000226D01*
X148732043Y-52488191D01*
X148732596Y-52489028D01*
X148805791Y-52600891D01*
X149051353Y-52976181D01*
X149054391Y-52980823D01*
X149055083Y-52981892D01*
X149351027Y-53444764D01*
X149371544Y-53476853D01*
X149372222Y-53477927D01*
X149433038Y-53575291D01*
X149683587Y-53976411D01*
X149684272Y-53977520D01*
X149990430Y-54479337D01*
X149991174Y-54480574D01*
X150099310Y-54662550D01*
X150100089Y-54663880D01*
X150202832Y-54841930D01*
X150205768Y-54847017D01*
X150206550Y-54848392D01*
X150310018Y-55033101D01*
X150310782Y-55034485D01*
X150411917Y-55220553D01*
X150412662Y-55221945D01*
X150511568Y-55409565D01*
X150512293Y-55410963D01*
X150608790Y-55599789D01*
X150609498Y-55601196D01*
X150703756Y-55791570D01*
X150704444Y-55792982D01*
X150797114Y-55986270D01*
X150797451Y-55986977D01*
X151257649Y-56962599D01*
X151268445Y-57031630D01*
X151240208Y-57095539D01*
X151181901Y-57134037D01*
X151145499Y-57139500D01*
X147256669Y-57139500D01*
X147256653Y-57139499D01*
X147249057Y-57139499D01*
X147090943Y-57139499D01*
X146938215Y-57180423D01*
X146938213Y-57180424D01*
X146912276Y-57195397D01*
X146912277Y-57195398D01*
X146801287Y-57259477D01*
X146801282Y-57259481D01*
X140869481Y-63191282D01*
X140869479Y-63191285D01*
X140824482Y-63269224D01*
X140824481Y-63269225D01*
X140790423Y-63328214D01*
X140790423Y-63328215D01*
X140749499Y-63480943D01*
X140749499Y-63480945D01*
X140749499Y-63649046D01*
X140749500Y-63649059D01*
X140749500Y-86750397D01*
X140729815Y-86817436D01*
X140681800Y-86860879D01*
X140668389Y-86867712D01*
X140502786Y-86988028D01*
X140358028Y-87132786D01*
X140237715Y-87298386D01*
X140144781Y-87480776D01*
X140081522Y-87675465D01*
X140050805Y-87869409D01*
X140049500Y-87877648D01*
X140049500Y-88082352D01*
X140051004Y-88091847D01*
X140081522Y-88284534D01*
X140144781Y-88479223D01*
X140199493Y-88586600D01*
X140229740Y-88645963D01*
X140237715Y-88661613D01*
X140358028Y-88827213D01*
X140358034Y-88827219D01*
X140502781Y-88971966D01*
X140668390Y-89092287D01*
X140681793Y-89099116D01*
X140732589Y-89147088D01*
X140749500Y-89209601D01*
X140749500Y-95045613D01*
X140729815Y-95112652D01*
X140677011Y-95158407D01*
X140607853Y-95168351D01*
X140544297Y-95139326D01*
X140525182Y-95118498D01*
X140491971Y-95072786D01*
X140347213Y-94928028D01*
X140181613Y-94807715D01*
X140181612Y-94807714D01*
X140181610Y-94807713D01*
X140122930Y-94777814D01*
X139999223Y-94714781D01*
X139804534Y-94651522D01*
X139629995Y-94623878D01*
X139602352Y-94619500D01*
X139397648Y-94619500D01*
X139373329Y-94623351D01*
X139195465Y-94651522D01*
X139000776Y-94714781D01*
X138818386Y-94807715D01*
X138652786Y-94928028D01*
X138508028Y-95072786D01*
X138387715Y-95238386D01*
X138340485Y-95331080D01*
X138292510Y-95381876D01*
X138224689Y-95398671D01*
X138158554Y-95376134D01*
X138119515Y-95331080D01*
X138106130Y-95304811D01*
X138072287Y-95238390D01*
X138028591Y-95178247D01*
X137951971Y-95072786D01*
X137807213Y-94928028D01*
X137641613Y-94807715D01*
X137641612Y-94807714D01*
X137641610Y-94807713D01*
X137582930Y-94777814D01*
X137459223Y-94714781D01*
X137264534Y-94651522D01*
X137089995Y-94623878D01*
X137062352Y-94619500D01*
X136857648Y-94619500D01*
X136778955Y-94631963D01*
X136713898Y-94642268D01*
X136644605Y-94633313D01*
X136591153Y-94588317D01*
X136570513Y-94521566D01*
X136570500Y-94519795D01*
X136570500Y-90807661D01*
X136590185Y-90740622D01*
X136638207Y-90697175D01*
X136664714Y-90683670D01*
X136833505Y-90561035D01*
X136981035Y-90413505D01*
X137103670Y-90244714D01*
X137198389Y-90058816D01*
X137262862Y-89860389D01*
X137264990Y-89846956D01*
X137295500Y-89654324D01*
X137295500Y-89445675D01*
X137262862Y-89239610D01*
X137214992Y-89092284D01*
X137198389Y-89041184D01*
X137198387Y-89041181D01*
X137198387Y-89041179D01*
X137143461Y-88933381D01*
X137103670Y-88855286D01*
X136981035Y-88686495D01*
X136833505Y-88538965D01*
X136664714Y-88416330D01*
X136642448Y-88404985D01*
X136478820Y-88321612D01*
X136280389Y-88257137D01*
X136074324Y-88224500D01*
X136074319Y-88224500D01*
X135865681Y-88224500D01*
X135865676Y-88224500D01*
X135659610Y-88257137D01*
X135461179Y-88321612D01*
X135275285Y-88416330D01*
X135106493Y-88538966D01*
X134958966Y-88686493D01*
X134836330Y-88855285D01*
X134810485Y-88906010D01*
X134762510Y-88956806D01*
X134694690Y-88973601D01*
X134628555Y-88951064D01*
X134589515Y-88906010D01*
X134574034Y-88875627D01*
X134563670Y-88855286D01*
X134441035Y-88686495D01*
X134293505Y-88538965D01*
X134124714Y-88416330D01*
X134102448Y-88404985D01*
X133938820Y-88321612D01*
X133740389Y-88257137D01*
X133534324Y-88224500D01*
X133534319Y-88224500D01*
X133325681Y-88224500D01*
X133325676Y-88224500D01*
X133119610Y-88257137D01*
X132921179Y-88321612D01*
X132735285Y-88416330D01*
X132566493Y-88538966D01*
X132418966Y-88686493D01*
X132378314Y-88742446D01*
X132363030Y-88763483D01*
X132348883Y-88782954D01*
X132293552Y-88825619D01*
X132223939Y-88831598D01*
X132162144Y-88798992D01*
X132138080Y-88766363D01*
X132136822Y-88763895D01*
X132133196Y-88756778D01*
X132072425Y-88637507D01*
X131951645Y-88488354D01*
X131842274Y-88399789D01*
X131802494Y-88367576D01*
X131631492Y-88280446D01*
X131631491Y-88280445D01*
X131631490Y-88280445D01*
X131446109Y-88230772D01*
X131366409Y-88224500D01*
X131366402Y-88224500D01*
X130413598Y-88224500D01*
X130413590Y-88224500D01*
X130333890Y-88230772D01*
X130148509Y-88280445D01*
X129977507Y-88367575D01*
X129828354Y-88488354D01*
X129707575Y-88637507D01*
X129620445Y-88808509D01*
X129570772Y-88993890D01*
X129564500Y-89073590D01*
X129564500Y-90026409D01*
X129570772Y-90106109D01*
X129620413Y-90291367D01*
X129620446Y-90291492D01*
X129707576Y-90462494D01*
X129728134Y-90487881D01*
X129828354Y-90611645D01*
X129898824Y-90668709D01*
X129977506Y-90732424D01*
X130148508Y-90819554D01*
X130333889Y-90869227D01*
X130413598Y-90875500D01*
X130413606Y-90875500D01*
X131366394Y-90875500D01*
X131366402Y-90875500D01*
X131446111Y-90869227D01*
X131631492Y-90819554D01*
X131802494Y-90732424D01*
X131951645Y-90611645D01*
X132072424Y-90462494D01*
X132138080Y-90333636D01*
X132186054Y-90282840D01*
X132253875Y-90266045D01*
X132320010Y-90288582D01*
X132348879Y-90317041D01*
X132418965Y-90413505D01*
X132566495Y-90561035D01*
X132647236Y-90619697D01*
X132735287Y-90683671D01*
X132741790Y-90686984D01*
X132761792Y-90697175D01*
X132812589Y-90745148D01*
X132829500Y-90807661D01*
X132829500Y-94758981D01*
X132809815Y-94826020D01*
X132757011Y-94871775D01*
X132687853Y-94881719D01*
X132632616Y-94859300D01*
X132561612Y-94807714D01*
X132379223Y-94714781D01*
X132184534Y-94651522D01*
X132009995Y-94623878D01*
X131982352Y-94619500D01*
X131777648Y-94619500D01*
X131753329Y-94623351D01*
X131575465Y-94651522D01*
X131380776Y-94714781D01*
X131198386Y-94807715D01*
X131032786Y-94928028D01*
X130888028Y-95072786D01*
X130767715Y-95238386D01*
X130674781Y-95420776D01*
X130611522Y-95615465D01*
X130579500Y-95817648D01*
X130579500Y-96022351D01*
X130611522Y-96224534D01*
X130674781Y-96419223D01*
X130767715Y-96601613D01*
X130888028Y-96767213D01*
X131032786Y-96911971D01*
X131156824Y-97002088D01*
X131198390Y-97032287D01*
X131274930Y-97071286D01*
X131380776Y-97125218D01*
X131380778Y-97125218D01*
X131380781Y-97125220D01*
X131485137Y-97159127D01*
X131575465Y-97188477D01*
X131676557Y-97204488D01*
X131777648Y-97220500D01*
X131777649Y-97220500D01*
X131982351Y-97220500D01*
X131982352Y-97220500D01*
X132184534Y-97188477D01*
X132379219Y-97125220D01*
X132561610Y-97032287D01*
X132654590Y-96964732D01*
X132727213Y-96911971D01*
X132727215Y-96911968D01*
X132727219Y-96911966D01*
X132871966Y-96767219D01*
X132871968Y-96767215D01*
X132871971Y-96767213D01*
X132992284Y-96601614D01*
X132992285Y-96601613D01*
X132992287Y-96601610D01*
X133039516Y-96508917D01*
X133087489Y-96458123D01*
X133155310Y-96441328D01*
X133221445Y-96463865D01*
X133260483Y-96508917D01*
X133283535Y-96554158D01*
X133307715Y-96601614D01*
X133428028Y-96767213D01*
X133572786Y-96911971D01*
X133696824Y-97002088D01*
X133738390Y-97032287D01*
X133814930Y-97071286D01*
X133920776Y-97125218D01*
X133920778Y-97125218D01*
X133920781Y-97125220D01*
X134025137Y-97159127D01*
X134115465Y-97188477D01*
X134216557Y-97204488D01*
X134317648Y-97220500D01*
X134317649Y-97220500D01*
X134510902Y-97220500D01*
X134577941Y-97240185D01*
X134623696Y-97292989D01*
X134633640Y-97362147D01*
X134604615Y-97425703D01*
X134598583Y-97432181D01*
X133939481Y-98091282D01*
X133939479Y-98091284D01*
X133927894Y-98111351D01*
X133913425Y-98136413D01*
X133860423Y-98228215D01*
X133819499Y-98380943D01*
X133819499Y-98380945D01*
X133819499Y-98549046D01*
X133819500Y-98549059D01*
X133819500Y-102310397D01*
X133799815Y-102377436D01*
X133751800Y-102420879D01*
X133738389Y-102427712D01*
X133572786Y-102548028D01*
X133428032Y-102692782D01*
X133359616Y-102786949D01*
X133304286Y-102829614D01*
X133234672Y-102835593D01*
X133172877Y-102802987D01*
X133141592Y-102753067D01*
X133114358Y-102670880D01*
X133114356Y-102670875D01*
X133022315Y-102521654D01*
X132898345Y-102397684D01*
X132749124Y-102305643D01*
X132749119Y-102305641D01*
X132582697Y-102250494D01*
X132582690Y-102250493D01*
X132479986Y-102240000D01*
X132130000Y-102240000D01*
X132130000Y-103224314D01*
X132125606Y-103219920D01*
X132034394Y-103167259D01*
X131932661Y-103140000D01*
X131827339Y-103140000D01*
X131725606Y-103167259D01*
X131634394Y-103219920D01*
X131630000Y-103224314D01*
X131630000Y-102240000D01*
X131280028Y-102240000D01*
X131280012Y-102240001D01*
X131177302Y-102250494D01*
X131010880Y-102305641D01*
X131010875Y-102305643D01*
X130861654Y-102397684D01*
X130737684Y-102521654D01*
X130645643Y-102670875D01*
X130645641Y-102670880D01*
X130590494Y-102837302D01*
X130590493Y-102837309D01*
X130580000Y-102940013D01*
X130580000Y-103290000D01*
X131564314Y-103290000D01*
X131559920Y-103294394D01*
X131507259Y-103385606D01*
X131480000Y-103487339D01*
X131480000Y-103592661D01*
X131507259Y-103694394D01*
X131559920Y-103785606D01*
X131564314Y-103790000D01*
X130580001Y-103790000D01*
X130580001Y-104139986D01*
X130590494Y-104242697D01*
X130645641Y-104409119D01*
X130645643Y-104409124D01*
X130737684Y-104558345D01*
X130861654Y-104682315D01*
X131010875Y-104774356D01*
X131010880Y-104774358D01*
X131177302Y-104829505D01*
X131177309Y-104829506D01*
X131280019Y-104839999D01*
X131629999Y-104839999D01*
X131630000Y-104839998D01*
X131630000Y-103855686D01*
X131634394Y-103860080D01*
X131725606Y-103912741D01*
X131827339Y-103940000D01*
X131932661Y-103940000D01*
X132034394Y-103912741D01*
X132125606Y-103860080D01*
X132130000Y-103855686D01*
X132130000Y-104839999D01*
X132479972Y-104839999D01*
X132479986Y-104839998D01*
X132582697Y-104829505D01*
X132749119Y-104774358D01*
X132749124Y-104774356D01*
X132898345Y-104682315D01*
X133022315Y-104558345D01*
X133114356Y-104409124D01*
X133114359Y-104409117D01*
X133141592Y-104326932D01*
X133181364Y-104269487D01*
X133245879Y-104242663D01*
X133314655Y-104254977D01*
X133359616Y-104293049D01*
X133383832Y-104326380D01*
X133428034Y-104387219D01*
X133572786Y-104531971D01*
X133698744Y-104623483D01*
X133738390Y-104652287D01*
X133849434Y-104708867D01*
X133920776Y-104745218D01*
X133920778Y-104745218D01*
X133920781Y-104745220D01*
X134010459Y-104774358D01*
X134115465Y-104808477D01*
X134189108Y-104820141D01*
X134317648Y-104840500D01*
X134317649Y-104840500D01*
X134522351Y-104840500D01*
X134522352Y-104840500D01*
X134724534Y-104808477D01*
X134919219Y-104745220D01*
X135101610Y-104652287D01*
X135201408Y-104579780D01*
X135267213Y-104531971D01*
X135267215Y-104531968D01*
X135267219Y-104531966D01*
X135411966Y-104387219D01*
X135411968Y-104387215D01*
X135411971Y-104387213D01*
X135532284Y-104221614D01*
X135532285Y-104221613D01*
X135532287Y-104221610D01*
X135579516Y-104128917D01*
X135627489Y-104078123D01*
X135695310Y-104061328D01*
X135761445Y-104083865D01*
X135800483Y-104128917D01*
X135821992Y-104171129D01*
X135847715Y-104221614D01*
X135968028Y-104387213D01*
X136112786Y-104531971D01*
X136238744Y-104623483D01*
X136278390Y-104652287D01*
X136389434Y-104708867D01*
X136460776Y-104745218D01*
X136460778Y-104745218D01*
X136460781Y-104745220D01*
X136550459Y-104774358D01*
X136655465Y-104808477D01*
X136729108Y-104820141D01*
X136857648Y-104840500D01*
X136857649Y-104840500D01*
X137062351Y-104840500D01*
X137062352Y-104840500D01*
X137264534Y-104808477D01*
X137459219Y-104745220D01*
X137641610Y-104652287D01*
X137741408Y-104579780D01*
X137807213Y-104531971D01*
X137807215Y-104531968D01*
X137807219Y-104531966D01*
X137951966Y-104387219D01*
X137951968Y-104387215D01*
X137951971Y-104387213D01*
X138072284Y-104221614D01*
X138072285Y-104221613D01*
X138072287Y-104221610D01*
X138119516Y-104128917D01*
X138167489Y-104078123D01*
X138235310Y-104061328D01*
X138301445Y-104083865D01*
X138340483Y-104128917D01*
X138361992Y-104171129D01*
X138387715Y-104221614D01*
X138508028Y-104387213D01*
X138652786Y-104531971D01*
X138778744Y-104623483D01*
X138818390Y-104652287D01*
X138929434Y-104708867D01*
X139000776Y-104745218D01*
X139000778Y-104745218D01*
X139000781Y-104745220D01*
X139090459Y-104774358D01*
X139195465Y-104808477D01*
X139269108Y-104820141D01*
X139397648Y-104840500D01*
X139397649Y-104840500D01*
X139602351Y-104840500D01*
X139602352Y-104840500D01*
X139804534Y-104808477D01*
X139999219Y-104745220D01*
X140181610Y-104652287D01*
X140281408Y-104579780D01*
X140347213Y-104531971D01*
X140347215Y-104531968D01*
X140347219Y-104531966D01*
X140491966Y-104387219D01*
X140491968Y-104387215D01*
X140491971Y-104387213D01*
X140560383Y-104293050D01*
X140612287Y-104221610D01*
X140705220Y-104039219D01*
X140768477Y-103844534D01*
X140800500Y-103642352D01*
X140800500Y-103437648D01*
X140781878Y-103320073D01*
X140768478Y-103235472D01*
X140768477Y-103235471D01*
X140768477Y-103235466D01*
X140763825Y-103221151D01*
X140761832Y-103151312D01*
X140794075Y-103095158D01*
X141718713Y-102170521D01*
X141718716Y-102170520D01*
X141830520Y-102058716D01*
X141830521Y-102058713D01*
X146687254Y-97201979D01*
X146748575Y-97168496D01*
X146818267Y-97173480D01*
X146874200Y-97215352D01*
X146892864Y-97251343D01*
X146895923Y-97260759D01*
X146923294Y-97314476D01*
X146977840Y-97421529D01*
X146977974Y-97421791D01*
X147084196Y-97567996D01*
X147212003Y-97695803D01*
X147321531Y-97775378D01*
X147358212Y-97802028D01*
X147519244Y-97884078D01*
X147691129Y-97939927D01*
X147854148Y-97965747D01*
X147865386Y-97967527D01*
X147928521Y-97997456D01*
X147965452Y-98056768D01*
X147964454Y-98126630D01*
X147925844Y-98184863D01*
X147865386Y-98212473D01*
X147691132Y-98240072D01*
X147519241Y-98295923D01*
X147358208Y-98377974D01*
X147212003Y-98484196D01*
X147084200Y-98611999D01*
X147084196Y-98612004D01*
X147005765Y-98719956D01*
X146990047Y-98732076D01*
X146977850Y-98747738D01*
X146956791Y-98757720D01*
X146950435Y-98762622D01*
X146946556Y-98764058D01*
X146942092Y-98765626D01*
X146812229Y-98800423D01*
X146774263Y-98822343D01*
X146764267Y-98828113D01*
X146764264Y-98828115D01*
X146675301Y-98879477D01*
X146675296Y-98879481D01*
X144239481Y-101315296D01*
X144239477Y-101315301D01*
X144192572Y-101396545D01*
X144192572Y-101396546D01*
X144160423Y-101452228D01*
X144153629Y-101477583D01*
X144119499Y-101604957D01*
X144119499Y-101604959D01*
X144119499Y-101773060D01*
X144119500Y-101773073D01*
X144119500Y-108339902D01*
X144099815Y-108406941D01*
X144083181Y-108427583D01*
X141887584Y-110623181D01*
X141826261Y-110656666D01*
X141799903Y-110659500D01*
X133650097Y-110659500D01*
X133583058Y-110639815D01*
X133562416Y-110623181D01*
X131857590Y-108918355D01*
X131857588Y-108918352D01*
X131738717Y-108799481D01*
X131738712Y-108799477D01*
X131631169Y-108737388D01*
X131631167Y-108737387D01*
X131601787Y-108720424D01*
X131601786Y-108720423D01*
X131601785Y-108720423D01*
X131449057Y-108679499D01*
X131290943Y-108679499D01*
X131283347Y-108679499D01*
X131283331Y-108679500D01*
X125610098Y-108679500D01*
X125543059Y-108659815D01*
X125522417Y-108643181D01*
X125201138Y-108321902D01*
X132829500Y-108321902D01*
X132829500Y-108558097D01*
X132866446Y-108791368D01*
X132939433Y-109015996D01*
X133037420Y-109208305D01*
X133046657Y-109226433D01*
X133185483Y-109417510D01*
X133352490Y-109584517D01*
X133543567Y-109723343D01*
X133624048Y-109764350D01*
X133754003Y-109830566D01*
X133754005Y-109830566D01*
X133754008Y-109830568D01*
X133802537Y-109846336D01*
X133978631Y-109903553D01*
X134211903Y-109940500D01*
X134211908Y-109940500D01*
X134448097Y-109940500D01*
X134681368Y-109903553D01*
X134691734Y-109900185D01*
X134905992Y-109830568D01*
X135116433Y-109723343D01*
X135307510Y-109584517D01*
X135474517Y-109417510D01*
X135613343Y-109226433D01*
X135720568Y-109015992D01*
X135793553Y-108791368D01*
X135803984Y-108725508D01*
X135830500Y-108558097D01*
X135830500Y-108321947D01*
X137830000Y-108321947D01*
X137830000Y-108558052D01*
X137866934Y-108791247D01*
X137939897Y-109015802D01*
X138047087Y-109226174D01*
X138107338Y-109309104D01*
X138107340Y-109309105D01*
X138847037Y-108569408D01*
X138864075Y-108632993D01*
X138929901Y-108747007D01*
X139022993Y-108840099D01*
X139137007Y-108905925D01*
X139200590Y-108922962D01*
X138460893Y-109662658D01*
X138543828Y-109722914D01*
X138754197Y-109830102D01*
X138978752Y-109903065D01*
X138978751Y-109903065D01*
X139211948Y-109940000D01*
X139448052Y-109940000D01*
X139681247Y-109903065D01*
X139905802Y-109830102D01*
X140116163Y-109722918D01*
X140116169Y-109722914D01*
X140199104Y-109662658D01*
X140199105Y-109662658D01*
X139459408Y-108922962D01*
X139522993Y-108905925D01*
X139637007Y-108840099D01*
X139730099Y-108747007D01*
X139795925Y-108632993D01*
X139812962Y-108569409D01*
X140552658Y-109309105D01*
X140552658Y-109309104D01*
X140612914Y-109226169D01*
X140612918Y-109226163D01*
X140720102Y-109015802D01*
X140793065Y-108791247D01*
X140830000Y-108558052D01*
X140830000Y-108321947D01*
X140793065Y-108088752D01*
X140720102Y-107864197D01*
X140612914Y-107653828D01*
X140552658Y-107570894D01*
X140552658Y-107570893D01*
X139812962Y-108310590D01*
X139795925Y-108247007D01*
X139730099Y-108132993D01*
X139637007Y-108039901D01*
X139522993Y-107974075D01*
X139459409Y-107957037D01*
X140199105Y-107217340D01*
X140199104Y-107217338D01*
X140116174Y-107157087D01*
X139905802Y-107049897D01*
X139681247Y-106976934D01*
X139681248Y-106976934D01*
X139448052Y-106940000D01*
X139211948Y-106940000D01*
X138978752Y-106976934D01*
X138754197Y-107049897D01*
X138543830Y-107157084D01*
X138460894Y-107217340D01*
X139200591Y-107957037D01*
X139137007Y-107974075D01*
X139022993Y-108039901D01*
X138929901Y-108132993D01*
X138864075Y-108247007D01*
X138847037Y-108310591D01*
X138107340Y-107570894D01*
X138047084Y-107653830D01*
X137939897Y-107864197D01*
X137866934Y-108088752D01*
X137830000Y-108321947D01*
X135830500Y-108321947D01*
X135830500Y-108321902D01*
X135793553Y-108088631D01*
X135720566Y-107864003D01*
X135661417Y-107747917D01*
X135613343Y-107653567D01*
X135474517Y-107462490D01*
X135307510Y-107295483D01*
X135116433Y-107156657D01*
X135074459Y-107135270D01*
X134905996Y-107049433D01*
X134681368Y-106976446D01*
X134448097Y-106939500D01*
X134448092Y-106939500D01*
X134211908Y-106939500D01*
X134211903Y-106939500D01*
X133978631Y-106976446D01*
X133754003Y-107049433D01*
X133543566Y-107156657D01*
X133460047Y-107217338D01*
X133352490Y-107295483D01*
X133352488Y-107295485D01*
X133352487Y-107295485D01*
X133185485Y-107462487D01*
X133185485Y-107462488D01*
X133185483Y-107462490D01*
X133136070Y-107530501D01*
X133046657Y-107653566D01*
X132939433Y-107864003D01*
X132866446Y-108088631D01*
X132829500Y-108321902D01*
X125201138Y-108321902D01*
X115496819Y-98617583D01*
X115463334Y-98556260D01*
X115460500Y-98529902D01*
X115460500Y-85481835D01*
X115480185Y-85414796D01*
X115528206Y-85371350D01*
X115562110Y-85354075D01*
X115594022Y-85337815D01*
X115772365Y-85208242D01*
X115928242Y-85052365D01*
X116057815Y-84874022D01*
X116157895Y-84677606D01*
X116226015Y-84467951D01*
X116260500Y-84250222D01*
X116260500Y-84029778D01*
X116226015Y-83812049D01*
X116189876Y-83700824D01*
X116157896Y-83602396D01*
X116157895Y-83602393D01*
X116113586Y-83515434D01*
X116057815Y-83405978D01*
X116013216Y-83344592D01*
X115928247Y-83227641D01*
X115928243Y-83227636D01*
X115772363Y-83071756D01*
X115772358Y-83071752D01*
X115594025Y-82942187D01*
X115594024Y-82942186D01*
X115594022Y-82942185D01*
X115476791Y-82882452D01*
X115397606Y-82842104D01*
X115397603Y-82842103D01*
X115187952Y-82773985D01*
X115074234Y-82755974D01*
X114970222Y-82739500D01*
X114749778Y-82739500D01*
X114677201Y-82750995D01*
X114532047Y-82773985D01*
X114322396Y-82842103D01*
X114322393Y-82842104D01*
X114125974Y-82942187D01*
X113947641Y-83071752D01*
X113947636Y-83071756D01*
X113897463Y-83121929D01*
X113836140Y-83155413D01*
X113766448Y-83150428D01*
X113710515Y-83108557D01*
X113693601Y-83077580D01*
X113663797Y-82997671D01*
X113663793Y-82997664D01*
X113577547Y-82882455D01*
X113577544Y-82882452D01*
X113462335Y-82796206D01*
X113462328Y-82796202D01*
X113327482Y-82745908D01*
X113327483Y-82745908D01*
X113267883Y-82739501D01*
X113267881Y-82739500D01*
X113267873Y-82739500D01*
X113267864Y-82739500D01*
X111372129Y-82739500D01*
X111372123Y-82739501D01*
X111312516Y-82745908D01*
X111177671Y-82796202D01*
X111177664Y-82796206D01*
X111062455Y-82882452D01*
X111062452Y-82882455D01*
X110976206Y-82997664D01*
X110976202Y-82997671D01*
X110925908Y-83132517D01*
X110919501Y-83192116D01*
X110919500Y-83192135D01*
X110919500Y-85087870D01*
X110919501Y-85087876D01*
X110925908Y-85147483D01*
X110976202Y-85282328D01*
X110976206Y-85282335D01*
X111062452Y-85397544D01*
X111062455Y-85397547D01*
X111177664Y-85483793D01*
X111177671Y-85483797D01*
X111200252Y-85492219D01*
X111312517Y-85534091D01*
X111372127Y-85540500D01*
X111595500Y-85540499D01*
X111662539Y-85560183D01*
X111708294Y-85612987D01*
X111719500Y-85664499D01*
X111719500Y-86759902D01*
X111699815Y-86826941D01*
X111683181Y-86847583D01*
X110350126Y-88180637D01*
X110319894Y-88197144D01*
X110289812Y-88213898D01*
X110289275Y-88213864D01*
X110288803Y-88214122D01*
X110254437Y-88211664D01*
X110220081Y-88209495D01*
X110219647Y-88209176D01*
X110219111Y-88209138D01*
X110191533Y-88188493D01*
X110163801Y-88168091D01*
X110163458Y-88167475D01*
X110163178Y-88167266D01*
X110146629Y-88137257D01*
X110144285Y-88131129D01*
X110138903Y-88113040D01*
X110135056Y-88095255D01*
X110135056Y-88095253D01*
X110117454Y-88061010D01*
X110103696Y-88025052D01*
X110087457Y-88002651D01*
X110074810Y-87978046D01*
X110053502Y-87954549D01*
X110048941Y-87949520D01*
X110026349Y-87918354D01*
X110004867Y-87900920D01*
X110000237Y-87895815D01*
X109998512Y-87893912D01*
X109998506Y-87893906D01*
X109994462Y-87889447D01*
X109060001Y-86859020D01*
X109030545Y-86826385D01*
X108957531Y-86745490D01*
X108957140Y-86745054D01*
X108856072Y-86632009D01*
X108855682Y-86631571D01*
X108754971Y-86517847D01*
X108754676Y-86517513D01*
X108654321Y-86403111D01*
X108438744Y-86154295D01*
X108438180Y-86153639D01*
X108224883Y-85903645D01*
X108224470Y-85903157D01*
X108029395Y-85670965D01*
X108028807Y-85670258D01*
X108011443Y-85649267D01*
X107835865Y-85437009D01*
X107835179Y-85436172D01*
X107768467Y-85354075D01*
X107767704Y-85353127D01*
X107702063Y-85270708D01*
X107701314Y-85269759D01*
X107653292Y-85208242D01*
X107636235Y-85186391D01*
X107635532Y-85185480D01*
X107607167Y-85148402D01*
X107571989Y-85102417D01*
X107571045Y-85101167D01*
X107393381Y-84862703D01*
X107392231Y-84861134D01*
X107310343Y-84747547D01*
X107218670Y-84620387D01*
X107217609Y-84618890D01*
X107047639Y-84375171D01*
X107046544Y-84373574D01*
X107037102Y-84359574D01*
X106879565Y-84125991D01*
X106878947Y-84125063D01*
X106672030Y-83810250D01*
X106671605Y-83809597D01*
X106667177Y-83802738D01*
X106466587Y-83492055D01*
X106466236Y-83491507D01*
X106263608Y-83171986D01*
X106263168Y-83171285D01*
X106062977Y-82849848D01*
X106062494Y-82849067D01*
X105666417Y-82202477D01*
X105665986Y-82201767D01*
X105513530Y-81949103D01*
X105363686Y-81700767D01*
X105362078Y-81694655D01*
X105357865Y-81689941D01*
X105353293Y-81661270D01*
X105345907Y-81633200D01*
X105347858Y-81627187D01*
X105346863Y-81620943D01*
X105358515Y-81594356D01*
X105367479Y-81566744D01*
X105373012Y-81561282D01*
X105374911Y-81556950D01*
X105401221Y-81533435D01*
X105403529Y-81531901D01*
X105404581Y-81531212D01*
X105459625Y-81495604D01*
X105460532Y-81495025D01*
X105516232Y-81459814D01*
X105517288Y-81459153D01*
X105573229Y-81424608D01*
X105574251Y-81423983D01*
X105630626Y-81389982D01*
X105631599Y-81389402D01*
X105688340Y-81355989D01*
X105689283Y-81355440D01*
X105746300Y-81322667D01*
X105747191Y-81322160D01*
X105804644Y-81289938D01*
X105805485Y-81289471D01*
X105864029Y-81257441D01*
X105864538Y-81257165D01*
X106066524Y-81148757D01*
X106269584Y-81041187D01*
X106269824Y-81041061D01*
X106473384Y-80934642D01*
X106473554Y-80934553D01*
X106675790Y-80830220D01*
X106676996Y-80829606D01*
X107328299Y-80503307D01*
X107330161Y-80502396D01*
X107984830Y-80189254D01*
X107986785Y-80188341D01*
X108646367Y-79887568D01*
X108648366Y-79886678D01*
X109313823Y-79597861D01*
X109315441Y-79597174D01*
X109618371Y-79471130D01*
X109619597Y-79470628D01*
X109924884Y-79347878D01*
X109925982Y-79347444D01*
X110232587Y-79228420D01*
X110233685Y-79228001D01*
X110541484Y-79112750D01*
X110542563Y-79112354D01*
X110851587Y-79000866D01*
X110852752Y-79000453D01*
X111162846Y-78892779D01*
X111164053Y-78892368D01*
X111475246Y-78788501D01*
X111476580Y-78788065D01*
X111788771Y-78688035D01*
X111790056Y-78687631D01*
X112099405Y-78592646D01*
X112100660Y-78592269D01*
X112410931Y-78501154D01*
X112412140Y-78500807D01*
X112723267Y-78413576D01*
X112724678Y-78413191D01*
X113036644Y-78329847D01*
X113038032Y-78329484D01*
X113350943Y-78249999D01*
X113352222Y-78249682D01*
X113666042Y-78174064D01*
X113667180Y-78173797D01*
X113981933Y-78102047D01*
X113983328Y-78101738D01*
X114297505Y-78034182D01*
X114299188Y-78033835D01*
X114979594Y-77899101D01*
X114982030Y-77898645D01*
X115663281Y-77778043D01*
X115665630Y-77777651D01*
X116348969Y-77670933D01*
X116351415Y-77670577D01*
X117035296Y-77577963D01*
X117038143Y-77577611D01*
X117715317Y-77502423D01*
X117718685Y-77502096D01*
X118395858Y-77445892D01*
X118399162Y-77445664D01*
X119077203Y-77408307D01*
X119080585Y-77408168D01*
X119759236Y-77389663D01*
X119762552Y-77389618D01*
X120441404Y-77389972D01*
X120444834Y-77390021D01*
X121123532Y-77409233D01*
X121126844Y-77409373D01*
X121805143Y-77447456D01*
X121808495Y-77447692D01*
X122486256Y-77504669D01*
X122489518Y-77504988D01*
X123181890Y-77581976D01*
X123185038Y-77582367D01*
X123826367Y-77670574D01*
X123875510Y-77677333D01*
X123878687Y-77677812D01*
X124566647Y-77790661D01*
X124569693Y-77791203D01*
X125254819Y-77921875D01*
X125257899Y-77922504D01*
X125939841Y-78070925D01*
X125942899Y-78071631D01*
X126621459Y-78237768D01*
X126624481Y-78238549D01*
X127299329Y-78422334D01*
X127302312Y-78423188D01*
X127790256Y-78569664D01*
X127972960Y-78624510D01*
X127976024Y-78625473D01*
X128130498Y-78676241D01*
X128631387Y-78840859D01*
X128634428Y-78841903D01*
X128776739Y-78892816D01*
X129277584Y-79071998D01*
X129284268Y-79074389D01*
X129287256Y-79075501D01*
X129623139Y-79205603D01*
X129931424Y-79325015D01*
X129934404Y-79326214D01*
X130015406Y-79360028D01*
X130545645Y-79581374D01*
X130572514Y-79592590D01*
X130575455Y-79593863D01*
X130873476Y-79727416D01*
X131207382Y-79877051D01*
X131210216Y-79878365D01*
X131698156Y-80112316D01*
X131835569Y-80178201D01*
X131838427Y-80179617D01*
X132456834Y-80495935D01*
X132459648Y-80497420D01*
X133070341Y-80829833D01*
X133073314Y-80831505D01*
X133640435Y-81160938D01*
X133643122Y-81162499D01*
X133646288Y-81164402D01*
X133756893Y-81233145D01*
X134206008Y-81512278D01*
X134209108Y-81514269D01*
X134759077Y-81879176D01*
X134762106Y-81881251D01*
X134893727Y-81974308D01*
X135302004Y-82262963D01*
X135304918Y-82265088D01*
X135834406Y-82663372D01*
X135837238Y-82665568D01*
X136355911Y-83080129D01*
X136358678Y-83082407D01*
X136583162Y-83272866D01*
X136866257Y-83513052D01*
X136868983Y-83515434D01*
X137365241Y-83962026D01*
X137366109Y-83962815D01*
X137373317Y-83969426D01*
X137374412Y-83971117D01*
X137421394Y-84013523D01*
X137421775Y-84013872D01*
X137421901Y-84014081D01*
X137427708Y-84020004D01*
X137429671Y-84021745D01*
X137429672Y-84021746D01*
X137432942Y-84024646D01*
X137448604Y-84038536D01*
X137450210Y-84039986D01*
X137474617Y-84062404D01*
X137474417Y-84062620D01*
X137479034Y-84066750D01*
X137479224Y-84066533D01*
X137504374Y-84088445D01*
X137504482Y-84088539D01*
X137505236Y-84089197D01*
X137524619Y-84106693D01*
X137526188Y-84107494D01*
X137533057Y-84113493D01*
X137534668Y-84116022D01*
X137536102Y-84117279D01*
X137536157Y-84117216D01*
X137564367Y-84141231D01*
X137566265Y-84142880D01*
X137587074Y-84161335D01*
X137590697Y-84164873D01*
X137592649Y-84166487D01*
X137592650Y-84166488D01*
X137612650Y-84183024D01*
X137616850Y-84186496D01*
X137619287Y-84188564D01*
X137636246Y-84203340D01*
X137639115Y-84205839D01*
X137641309Y-84207933D01*
X137643527Y-84209714D01*
X137643529Y-84209716D01*
X137664693Y-84226708D01*
X137667410Y-84228955D01*
X137688086Y-84246557D01*
X137688087Y-84246557D01*
X137691506Y-84249468D01*
X137716444Y-84268907D01*
X137719214Y-84271130D01*
X137740116Y-84288412D01*
X137742245Y-84290172D01*
X137744996Y-84292076D01*
X137756105Y-84300536D01*
X137761491Y-84304638D01*
X137765343Y-84307571D01*
X137767823Y-84309510D01*
X137787316Y-84325160D01*
X137793562Y-84330175D01*
X137801052Y-84335234D01*
X137812618Y-84343897D01*
X137814439Y-84345289D01*
X137822851Y-84351847D01*
X137822954Y-84351927D01*
X137826248Y-84354780D01*
X137831535Y-84358674D01*
X137834233Y-84360719D01*
X137846908Y-84370599D01*
X137854706Y-84375742D01*
X137858461Y-84378507D01*
X137860076Y-84379717D01*
X137863669Y-84382454D01*
X137868519Y-84386575D01*
X137878852Y-84394060D01*
X137881218Y-84395818D01*
X137887383Y-84400513D01*
X137891496Y-84403645D01*
X137896899Y-84407133D01*
X137900450Y-84409705D01*
X137902045Y-84410880D01*
X137903183Y-84411733D01*
X137905467Y-84413444D01*
X137913470Y-84420903D01*
X137913925Y-84420396D01*
X137923557Y-84429030D01*
X137931701Y-84436011D01*
X137931744Y-84435959D01*
X137939346Y-84442189D01*
X137951399Y-84451608D01*
X137957763Y-84456349D01*
X137965556Y-84461121D01*
X137972546Y-84465800D01*
X137977452Y-84470151D01*
X137983744Y-84473297D01*
X137990257Y-84477657D01*
X137991639Y-84479314D01*
X138000771Y-84484907D01*
X138015384Y-84493034D01*
X138017105Y-84494203D01*
X138024215Y-84498117D01*
X138029814Y-84500954D01*
X138029816Y-84500956D01*
X138029818Y-84500956D01*
X138034199Y-84503177D01*
X138034433Y-84503313D01*
X138035152Y-84503668D01*
X138035837Y-84504011D01*
X138035907Y-84504040D01*
X138040425Y-84506267D01*
X138040428Y-84506269D01*
X138040431Y-84506270D01*
X138045730Y-84508882D01*
X138056528Y-84513765D01*
X138057120Y-84514033D01*
X138057140Y-84514040D01*
X138062664Y-84516454D01*
X138062670Y-84516458D01*
X138062676Y-84516459D01*
X138068076Y-84518820D01*
X138073714Y-84521062D01*
X138073716Y-84521063D01*
X138073717Y-84521063D01*
X138078487Y-84522960D01*
X138078639Y-84523031D01*
X138078792Y-84523090D01*
X138079941Y-84523539D01*
X138080057Y-84523576D01*
X138084878Y-84525428D01*
X138084883Y-84525431D01*
X138084887Y-84525432D01*
X138090626Y-84527637D01*
X138096446Y-84529648D01*
X138096451Y-84529651D01*
X138096455Y-84529651D01*
X138101487Y-84531391D01*
X138101486Y-84531391D01*
X138102794Y-84531842D01*
X138102852Y-84531858D01*
X138107959Y-84533556D01*
X138107964Y-84533558D01*
X138107968Y-84533558D01*
X138113531Y-84535408D01*
X138119227Y-84537094D01*
X138119234Y-84537097D01*
X138119240Y-84537098D01*
X138124038Y-84538518D01*
X138124037Y-84538518D01*
X138125346Y-84538905D01*
X138125348Y-84538906D01*
X138125460Y-84538939D01*
X138125668Y-84539000D01*
X138125842Y-84539039D01*
X138135190Y-84541691D01*
X138135265Y-84541706D01*
X138142864Y-84543613D01*
X138143043Y-84543683D01*
X138143220Y-84543702D01*
X138148222Y-84544958D01*
X138148249Y-84544974D01*
X138148509Y-84545035D01*
X138149594Y-84545296D01*
X138149705Y-84545315D01*
X138154417Y-84546419D01*
X138154420Y-84546420D01*
X138154422Y-84546420D01*
X138160064Y-84547742D01*
X138166359Y-84548999D01*
X138166394Y-84549011D01*
X138166429Y-84549013D01*
X138170919Y-84549910D01*
X138170948Y-84549925D01*
X138170979Y-84549933D01*
X138171323Y-84549998D01*
X138172697Y-84550263D01*
X138173034Y-84550330D01*
X138173216Y-84550353D01*
X138177641Y-84551183D01*
X138177647Y-84551185D01*
X138177652Y-84551185D01*
X138182342Y-84552065D01*
X138182584Y-84552091D01*
X138190255Y-84553297D01*
X138190463Y-84553357D01*
X138190660Y-84553360D01*
X138195273Y-84554086D01*
X138195295Y-84554096D01*
X138195562Y-84554134D01*
X138196838Y-84554321D01*
X138197226Y-84554379D01*
X138197410Y-84554394D01*
X138201538Y-84554975D01*
X138201546Y-84554978D01*
X138201553Y-84554978D01*
X138207881Y-84555870D01*
X138218655Y-84557007D01*
X138218656Y-84557007D01*
X138220742Y-84557227D01*
X138220743Y-84557227D01*
X138220788Y-84557232D01*
X138220947Y-84557248D01*
X138221104Y-84557254D01*
X138225602Y-84557679D01*
X138225603Y-84557680D01*
X138225603Y-84557679D01*
X138230389Y-84558133D01*
X138230651Y-84558137D01*
X138238401Y-84558642D01*
X138238572Y-84558675D01*
X138238730Y-84558663D01*
X138242542Y-84558912D01*
X138242563Y-84558919D01*
X138242965Y-84558940D01*
X138244069Y-84559000D01*
X138245525Y-84559086D01*
X138245802Y-84559083D01*
X138248985Y-84559243D01*
X138248989Y-84559244D01*
X138248992Y-84559243D01*
X138255726Y-84559583D01*
X138262205Y-84559677D01*
X138262210Y-84559678D01*
X138262214Y-84559677D01*
X138266239Y-84559736D01*
X138266281Y-84559737D01*
X138268037Y-84559762D01*
X138268141Y-84559764D01*
X138269039Y-84559777D01*
X138269290Y-84559763D01*
X138273286Y-84559781D01*
X138273293Y-84559782D01*
X138273299Y-84559781D01*
X138278108Y-84559803D01*
X138278971Y-84559739D01*
X138286498Y-84559572D01*
X138286761Y-84559599D01*
X138286986Y-84559562D01*
X138290658Y-84559481D01*
X138290665Y-84559483D01*
X138291120Y-84559465D01*
X138292175Y-84559427D01*
X138293794Y-84559376D01*
X138294071Y-84559348D01*
X138296769Y-84559240D01*
X138296771Y-84559241D01*
X138296772Y-84559240D01*
X138303698Y-84558966D01*
X138310436Y-84558451D01*
X138310440Y-84558452D01*
X138310443Y-84558451D01*
X138313540Y-84558215D01*
X138315770Y-84558044D01*
X138315858Y-84558037D01*
X138317389Y-84557920D01*
X138317681Y-84557877D01*
X138320753Y-84557615D01*
X138320762Y-84557616D01*
X138320770Y-84557614D01*
X138325531Y-84557209D01*
X138326836Y-84556995D01*
X138334162Y-84556186D01*
X138334531Y-84556190D01*
X138334828Y-84556113D01*
X138338682Y-84555688D01*
X138338923Y-84555657D01*
X138339926Y-84555530D01*
X138341513Y-84555335D01*
X138341790Y-84555282D01*
X138349285Y-84554303D01*
X138350940Y-84553955D01*
X138358109Y-84552845D01*
X138358506Y-84552831D01*
X138358813Y-84552736D01*
X138362267Y-84552202D01*
X138362917Y-84552088D01*
X138363911Y-84551917D01*
X138365534Y-84551643D01*
X138365787Y-84551582D01*
X138368108Y-84551172D01*
X138368114Y-84551172D01*
X138368119Y-84551170D01*
X138374913Y-84549971D01*
X138381543Y-84548547D01*
X138381548Y-84548547D01*
X138381551Y-84548545D01*
X138384042Y-84548011D01*
X138384043Y-84548011D01*
X138386404Y-84547504D01*
X138386427Y-84547499D01*
X138388475Y-84547059D01*
X138388777Y-84546972D01*
X138391214Y-84546429D01*
X138391217Y-84546429D01*
X138391219Y-84546428D01*
X138395864Y-84545394D01*
X138397859Y-84544787D01*
X138404779Y-84543085D01*
X138405225Y-84543029D01*
X138405550Y-84542895D01*
X138408743Y-84542111D01*
X138409342Y-84541949D01*
X138410260Y-84541704D01*
X138412156Y-84541205D01*
X138412417Y-84541117D01*
X138414454Y-84540565D01*
X138414461Y-84540565D01*
X138414467Y-84540562D01*
X138419130Y-84539301D01*
X138420513Y-84538810D01*
X138427504Y-84536737D01*
X138427836Y-84536681D01*
X138428085Y-84536566D01*
X138430940Y-84535720D01*
X138431221Y-84535631D01*
X138432076Y-84535362D01*
X138434690Y-84534549D01*
X138435001Y-84534429D01*
X138443884Y-84531602D01*
X138450667Y-84529151D01*
X138450674Y-84529150D01*
X138450679Y-84529146D01*
X138452969Y-84528320D01*
X138455742Y-84527318D01*
X138455742Y-84527317D01*
X138455786Y-84527302D01*
X138457390Y-84526722D01*
X138457625Y-84526619D01*
X138459916Y-84525772D01*
X138459921Y-84525771D01*
X138459925Y-84525768D01*
X138464413Y-84524110D01*
X138465973Y-84523393D01*
X138472697Y-84520727D01*
X138473056Y-84520632D01*
X138473314Y-84520483D01*
X138476216Y-84519333D01*
X138476730Y-84519117D01*
X138477555Y-84518773D01*
X138479696Y-84517889D01*
X138479964Y-84517756D01*
X138481838Y-84516967D01*
X138481842Y-84516966D01*
X138481845Y-84516963D01*
X138486259Y-84515106D01*
X138488044Y-84514188D01*
X138494545Y-84511280D01*
X138494950Y-84511153D01*
X138495230Y-84510974D01*
X138497950Y-84509758D01*
X138498422Y-84509535D01*
X138499203Y-84509168D01*
X138501489Y-84508101D01*
X138501754Y-84507955D01*
X138503456Y-84507146D01*
X138503463Y-84507145D01*
X138503468Y-84507141D01*
X138509950Y-84504066D01*
X138516156Y-84500827D01*
X138516161Y-84500826D01*
X138516164Y-84500823D01*
X138518153Y-84499786D01*
X138518158Y-84499783D01*
X138520490Y-84498566D01*
X138520518Y-84498552D01*
X138522522Y-84497506D01*
X138522780Y-84497348D01*
X138524730Y-84496313D01*
X138524734Y-84496312D01*
X138524736Y-84496309D01*
X138528950Y-84494075D01*
X138530599Y-84493031D01*
X138536838Y-84489538D01*
X138537226Y-84489377D01*
X138537487Y-84489175D01*
X138540100Y-84487713D01*
X138540350Y-84487566D01*
X138541046Y-84487159D01*
X138543469Y-84485752D01*
X138543734Y-84485573D01*
X138545387Y-84484598D01*
X138545392Y-84484597D01*
X138545395Y-84484594D01*
X138551512Y-84480991D01*
X138557271Y-84477300D01*
X138557275Y-84477299D01*
X138557277Y-84477296D01*
X138559161Y-84476090D01*
X138560555Y-84475197D01*
X138560567Y-84475189D01*
X138563302Y-84473436D01*
X138563617Y-84473202D01*
X138565364Y-84472065D01*
X138565370Y-84472063D01*
X138565374Y-84472059D01*
X138569367Y-84469463D01*
X138571455Y-84467870D01*
X138577164Y-84463995D01*
X138577608Y-84463762D01*
X138577880Y-84463510D01*
X138580073Y-84462022D01*
X138580409Y-84461782D01*
X138581005Y-84461357D01*
X138583603Y-84459518D01*
X138583841Y-84459324D01*
X138585029Y-84458473D01*
X138585039Y-84458468D01*
X138585046Y-84458460D01*
X138588967Y-84455654D01*
X138590717Y-84454189D01*
X138596316Y-84450003D01*
X138596671Y-84449796D01*
X138596889Y-84449574D01*
X138598686Y-84448232D01*
X138598730Y-84448198D01*
X138599301Y-84447752D01*
X138602489Y-84445277D01*
X138602742Y-84445051D01*
X138603702Y-84444297D01*
X138603710Y-84444293D01*
X138603715Y-84444287D01*
X138609637Y-84439642D01*
X138615181Y-84434926D01*
X138615191Y-84434920D01*
X138615198Y-84434911D01*
X138620772Y-84430171D01*
X138626099Y-84425512D01*
X138626175Y-84425462D01*
X138626232Y-84425396D01*
X138629754Y-84422317D01*
X138630113Y-84421947D01*
X138639086Y-84413597D01*
X138639126Y-84413640D01*
X138647050Y-84405926D01*
X138650145Y-84402776D01*
X138650210Y-84402701D01*
X138650244Y-84402675D01*
X138650310Y-84402586D01*
X138651244Y-84401518D01*
X138651680Y-84401185D01*
X138652722Y-84399827D01*
X138655315Y-84396862D01*
X138657233Y-84395640D01*
X138657458Y-84395417D01*
X138657466Y-84395425D01*
X138661081Y-84391614D01*
X138670914Y-84380681D01*
X138671401Y-84380055D01*
X138675282Y-84375653D01*
X138675288Y-84375648D01*
X138675292Y-84375641D01*
X138679003Y-84371433D01*
X138682207Y-84367532D01*
X138682210Y-84367530D01*
X138682211Y-84367527D01*
X138687376Y-84361241D01*
X138687441Y-84361294D01*
X138692104Y-84355352D01*
X138692066Y-84355323D01*
X138692585Y-84354654D01*
X138693255Y-84353886D01*
X138693828Y-84353154D01*
X138695253Y-84351250D01*
X138696611Y-84349469D01*
X138697100Y-84348838D01*
X138697100Y-84348837D01*
X138697104Y-84348834D01*
X138698816Y-84345901D01*
X138712591Y-84326766D01*
X138714854Y-84324183D01*
X138715719Y-84322424D01*
X138716983Y-84321008D01*
X138720313Y-84314394D01*
X138721971Y-84311503D01*
X138723314Y-84310214D01*
X138731208Y-84297645D01*
X138733675Y-84294434D01*
X138733680Y-84294421D01*
X138734256Y-84293427D01*
X138734747Y-84292588D01*
X138734757Y-84292563D01*
X138734761Y-84292559D01*
X138736643Y-84288175D01*
X138747661Y-84267940D01*
X138750359Y-84263926D01*
X138750363Y-84263913D01*
X138750441Y-84263758D01*
X138750653Y-84263329D01*
X138750671Y-84263277D01*
X138750676Y-84263271D01*
X138752558Y-84258033D01*
X138762149Y-84237490D01*
X138762821Y-84236339D01*
X138763883Y-84234556D01*
X138764809Y-84233035D01*
X138764811Y-84233027D01*
X138764848Y-84232967D01*
X138764992Y-84232623D01*
X138764998Y-84232615D01*
X138765685Y-84230100D01*
X138766183Y-84228336D01*
X138766264Y-84228058D01*
X138775743Y-84204642D01*
X138776952Y-84202359D01*
X138776953Y-84202353D01*
X138777504Y-84200869D01*
X138777518Y-84200797D01*
X138777521Y-84200793D01*
X138777929Y-84198826D01*
X138786457Y-84172707D01*
X138787260Y-84170943D01*
X138787261Y-84170931D01*
X138787849Y-84169004D01*
X138787866Y-84168886D01*
X138787868Y-84168882D01*
X138788108Y-84167221D01*
X138795077Y-84140520D01*
X138795655Y-84139017D01*
X138795655Y-84139009D01*
X138796197Y-84136752D01*
X138796208Y-84136612D01*
X138796211Y-84136606D01*
X138796331Y-84135159D01*
X138801705Y-84107985D01*
X138802121Y-84106674D01*
X138802121Y-84106662D01*
X138802589Y-84104037D01*
X138802622Y-84102613D01*
X138805187Y-84080173D01*
X138805715Y-84077629D01*
X138806655Y-84073907D01*
X138806643Y-84073163D01*
X138806886Y-84071999D01*
X138806956Y-84071339D01*
X138806948Y-84071134D01*
X138806949Y-84071132D01*
X138806895Y-84069682D01*
X138808156Y-84046866D01*
X138808511Y-84044471D01*
X138809235Y-84040641D01*
X138809182Y-84039948D01*
X138809340Y-84038890D01*
X138809364Y-84038355D01*
X138809344Y-84038152D01*
X138809345Y-84038149D01*
X138809176Y-84036422D01*
X138809119Y-84013002D01*
X138809309Y-84010934D01*
X138809797Y-84007087D01*
X138809718Y-84006512D01*
X138809796Y-84005672D01*
X138809790Y-84005305D01*
X138809762Y-84005132D01*
X138809763Y-84005130D01*
X138809410Y-84002902D01*
X138807989Y-83978524D01*
X138808047Y-83977068D01*
X138808296Y-83973218D01*
X138808218Y-83972829D01*
X138808239Y-83972316D01*
X138808202Y-83971820D01*
X138808159Y-83971179D01*
X138807998Y-83970155D01*
X138808059Y-83969680D01*
X138807876Y-83966931D01*
X138807708Y-83966306D01*
X138807514Y-83964035D01*
X138808128Y-83963982D01*
X138807917Y-83961714D01*
X138807147Y-83961792D01*
X138805530Y-83945611D01*
X138805609Y-83945603D01*
X138804681Y-83939274D01*
X138803914Y-83936571D01*
X138799554Y-83912025D01*
X138799290Y-83908519D01*
X138799128Y-83906359D01*
X138798164Y-83903607D01*
X138792335Y-83879413D01*
X138792101Y-83877705D01*
X138791547Y-83873652D01*
X138790332Y-83870762D01*
X138785408Y-83856741D01*
X138784044Y-83851957D01*
X138781880Y-83841137D01*
X138779703Y-83836734D01*
X138776611Y-83825891D01*
X138776619Y-83824775D01*
X138775501Y-83821723D01*
X138773075Y-83811933D01*
X138772760Y-83810629D01*
X138770855Y-83802513D01*
X138770073Y-83798068D01*
X138766998Y-83785981D01*
X138766451Y-83783745D01*
X138764914Y-83777196D01*
X138764456Y-83775246D01*
X138764455Y-83775245D01*
X138763535Y-83771324D01*
X138762154Y-83766944D01*
X138761004Y-83762423D01*
X138760139Y-83759024D01*
X138759814Y-83757712D01*
X138757805Y-83749387D01*
X138756500Y-83742290D01*
X138755817Y-83739707D01*
X138755818Y-83739705D01*
X138751781Y-83724420D01*
X138751254Y-83722233D01*
X138751157Y-83722055D01*
X138745526Y-83700729D01*
X138745084Y-83699004D01*
X138741170Y-83683215D01*
X138739745Y-83675842D01*
X138739174Y-83673778D01*
X138739174Y-83673774D01*
X138730490Y-83642395D01*
X138729881Y-83640099D01*
X138723883Y-83616521D01*
X138723881Y-83616518D01*
X138723308Y-83614264D01*
X138722734Y-83611433D01*
X138721762Y-83608074D01*
X138721762Y-83608071D01*
X138714121Y-83581673D01*
X138713345Y-83578869D01*
X138710182Y-83566892D01*
X138706317Y-83552253D01*
X138705034Y-83547394D01*
X138702844Y-83540150D01*
X138695607Y-83516206D01*
X138694799Y-83513414D01*
X138688675Y-83491283D01*
X138687475Y-83486944D01*
X138687474Y-83486943D01*
X138686487Y-83483374D01*
X138685726Y-83481301D01*
X138684830Y-83478437D01*
X138684830Y-83478435D01*
X138677330Y-83454462D01*
X138676608Y-83452066D01*
X138667874Y-83421889D01*
X138667872Y-83421886D01*
X138665613Y-83414080D01*
X138666018Y-83413962D01*
X138665858Y-83413437D01*
X138665141Y-83413668D01*
X138656494Y-83386745D01*
X138655884Y-83384791D01*
X138647512Y-83357091D01*
X138647511Y-83357090D01*
X138646948Y-83355226D01*
X138643464Y-83346175D01*
X138643168Y-83345251D01*
X138642959Y-83344592D01*
X138642722Y-83343833D01*
X138640870Y-83336441D01*
X138639929Y-83333585D01*
X138632064Y-83309719D01*
X138631520Y-83308026D01*
X138623974Y-83283902D01*
X138623972Y-83283900D01*
X138623081Y-83281049D01*
X138620288Y-83273982D01*
X138620000Y-83273108D01*
X138619795Y-83272475D01*
X138619530Y-83271650D01*
X138617622Y-83264263D01*
X138608589Y-83237535D01*
X138608587Y-83237530D01*
X138608291Y-83236654D01*
X138600329Y-83211860D01*
X138599454Y-83210503D01*
X138596248Y-83201015D01*
X138596058Y-83200446D01*
X138576148Y-83140022D01*
X138574986Y-83136494D01*
X138571832Y-83128708D01*
X138399608Y-82609989D01*
X138398918Y-82607847D01*
X138345855Y-82437768D01*
X138236251Y-82086465D01*
X138235611Y-82084342D01*
X138227693Y-82057247D01*
X138082334Y-81559808D01*
X138081745Y-81557724D01*
X137937516Y-81028798D01*
X137937142Y-81027384D01*
X137875537Y-80787412D01*
X137875222Y-80786150D01*
X137873576Y-80779409D01*
X137816212Y-80544532D01*
X137815947Y-80543418D01*
X137759781Y-80301146D01*
X137759460Y-80299727D01*
X137744767Y-80232790D01*
X137706113Y-80056686D01*
X137705852Y-80055461D01*
X137655343Y-79811737D01*
X137655060Y-79810328D01*
X137648556Y-79776981D01*
X137607411Y-79566042D01*
X137607149Y-79564653D01*
X137605471Y-79555478D01*
X137562332Y-79319640D01*
X137562133Y-79318515D01*
X137520117Y-79072591D01*
X137519902Y-79071285D01*
X137517112Y-79053759D01*
X137478847Y-78813378D01*
X137478646Y-78812068D01*
X137467763Y-78738494D01*
X137440400Y-78553513D01*
X137440250Y-78552462D01*
X137404822Y-78293265D01*
X137404654Y-78291982D01*
X137404322Y-78289333D01*
X137372087Y-78032475D01*
X137371934Y-78031195D01*
X137371795Y-78029979D01*
X137342228Y-77771386D01*
X137342105Y-77770262D01*
X137315216Y-77509755D01*
X137315116Y-77508724D01*
X137291100Y-77248042D01*
X137291002Y-77246906D01*
X137269875Y-76986256D01*
X137269784Y-76985040D01*
X137226836Y-76360516D01*
X137226750Y-76359135D01*
X137192221Y-75734635D01*
X137192141Y-75732990D01*
X137191594Y-75719920D01*
X137165992Y-75108035D01*
X137165937Y-75106433D01*
X137162052Y-74969637D01*
X137148179Y-74481140D01*
X137148144Y-74479512D01*
X137147536Y-74439590D01*
X137138470Y-73844225D01*
X137138457Y-73842643D01*
X137138134Y-73702306D01*
X137136995Y-73207167D01*
X137137001Y-73205808D01*
X137143755Y-72570378D01*
X137143782Y-72568805D01*
X137149550Y-72323953D01*
X137158722Y-71934586D01*
X137158781Y-71932750D01*
X137180522Y-71392228D01*
X137180640Y-71389892D01*
X137213305Y-70851276D01*
X137213481Y-70848804D01*
X137213790Y-70844999D01*
X137257098Y-70311163D01*
X137257315Y-70308784D01*
X137312035Y-69770662D01*
X137312220Y-69768970D01*
X137342580Y-69510300D01*
X137342709Y-69509256D01*
X137375975Y-69249634D01*
X137376090Y-69248764D01*
X137412126Y-68989368D01*
X137412244Y-68988551D01*
X137450997Y-68729775D01*
X137451192Y-68728521D01*
X137465284Y-68640789D01*
X137492652Y-68470393D01*
X137492831Y-68469320D01*
X137537023Y-68211693D01*
X137537240Y-68210474D01*
X137558220Y-68095512D01*
X137584164Y-67953347D01*
X137584347Y-67952372D01*
X137633859Y-67696506D01*
X137634146Y-67695073D01*
X137752711Y-67122721D01*
X137753109Y-67120876D01*
X137880376Y-66551510D01*
X137880786Y-66549740D01*
X138016869Y-65982779D01*
X138017331Y-65980921D01*
X138029938Y-65931801D01*
X138162123Y-65416767D01*
X138162597Y-65414983D01*
X138299969Y-64915219D01*
X138300548Y-64913186D01*
X138446751Y-64417085D01*
X138447368Y-64415059D01*
X138602546Y-63922069D01*
X138603191Y-63920085D01*
X138767222Y-63430592D01*
X138767966Y-63428440D01*
X138798552Y-63342455D01*
X138940834Y-62942467D01*
X138941565Y-62940470D01*
X139123201Y-62458216D01*
X139124021Y-62456099D01*
X139155260Y-62377587D01*
X139314423Y-61977569D01*
X139315201Y-61975666D01*
X139514523Y-61500525D01*
X139515322Y-61498669D01*
X139649202Y-61194127D01*
X139736445Y-60995668D01*
X139737212Y-60993960D01*
X139842191Y-60764806D01*
X139966076Y-60494384D01*
X139966762Y-60492914D01*
X140203123Y-59997315D01*
X140203838Y-59995845D01*
X140447618Y-59504385D01*
X140448379Y-59502882D01*
X140699520Y-59015675D01*
X140700260Y-59014266D01*
X140958650Y-58531529D01*
X140959388Y-58530175D01*
X141225067Y-58051835D01*
X141225983Y-58050218D01*
X141256692Y-57996901D01*
X141498746Y-57576643D01*
X141499653Y-57575097D01*
X141778372Y-57108206D01*
X141779293Y-57106690D01*
X142064964Y-56644764D01*
X142065944Y-56643207D01*
X142358469Y-56186397D01*
X142359510Y-56184801D01*
X142371462Y-56166768D01*
X142658803Y-55733227D01*
X142659825Y-55731709D01*
X142965988Y-55285223D01*
X142967032Y-55283725D01*
X143279826Y-54842672D01*
X143280901Y-54841181D01*
X143600353Y-54405531D01*
X143601457Y-54404049D01*
X143927161Y-53974339D01*
X143928394Y-53972742D01*
X144237274Y-53579951D01*
X144238712Y-53578160D01*
X144554387Y-53192633D01*
X144555827Y-53190910D01*
X144878441Y-52812436D01*
X144879967Y-52810680D01*
X145209648Y-52439100D01*
X145211210Y-52437375D01*
X145547606Y-52073080D01*
X145549201Y-52071386D01*
X145892419Y-51714259D01*
X145894096Y-51712551D01*
X146243822Y-51362919D01*
X146245560Y-51361215D01*
X146578784Y-51041183D01*
X146579420Y-51040579D01*
X146584584Y-51035702D01*
X146612273Y-51014988D01*
X146628907Y-50993847D01*
X146635560Y-50987565D01*
X146635714Y-50987486D01*
X146636160Y-50987002D01*
X146688815Y-50937936D01*
X146689622Y-50937191D01*
X146776187Y-50858142D01*
X146776744Y-50857639D01*
X146864112Y-50779458D01*
X146864806Y-50778844D01*
X146952212Y-50702206D01*
X146953184Y-50701366D01*
X147027605Y-50637781D01*
X147028914Y-50636679D01*
X147103661Y-50574796D01*
X147105013Y-50573697D01*
X147137309Y-50547796D01*
X147180389Y-50513245D01*
X147181904Y-50512050D01*
X147213562Y-50487463D01*
X147222168Y-50484077D01*
X147228616Y-50477440D01*
X147254171Y-50471490D01*
X147278583Y-50461888D01*
X147287655Y-50463693D01*
X147296666Y-50461596D01*
X147321378Y-50470405D01*
G37*
%TD.AperFunction*%
%TD*%
M02*
