%TF.GenerationSoftware,KiCad,Pcbnew,9.0.7*%
%TF.CreationDate,2026-02-10T20:55:20-08:00*%
%TF.ProjectId,Blinky,426c696e-6b79-42e6-9b69-6361645f7063,rev?*%
%TF.SameCoordinates,Original*%
%TF.FileFunction,Profile,NP*%
%FSLAX46Y46*%
G04 Gerber Fmt 4.6, Leading zero omitted, Abs format (unit mm)*
G04 Created by KiCad (PCBNEW 9.0.7) date 2026-02-10 20:55:20*
%MOMM*%
%LPD*%
G01*
G04 APERTURE LIST*
%TA.AperFunction,Profile*%
%ADD10C,0.067055*%
%TD*%
G04 APERTURE END LIST*
D10*
X156358332Y-49758483D02*
X156376700Y-49759936D01*
X156394921Y-49762345D01*
X156412968Y-49765699D01*
X156430812Y-49769990D01*
X156448427Y-49775206D01*
X156465785Y-49781339D01*
X156482860Y-49788377D01*
X156499624Y-49796311D01*
X156516050Y-49805130D01*
X156532110Y-49814825D01*
X156547778Y-49825386D01*
X156563027Y-49836802D01*
X156577828Y-49849063D01*
X156592156Y-49862160D01*
X156605982Y-49876082D01*
X157351306Y-50665856D01*
X158093915Y-51458781D01*
X158443477Y-51836042D01*
X158790689Y-52215886D01*
X159135485Y-52598241D01*
X159477799Y-52983034D01*
X159594619Y-53116572D01*
X159710181Y-53251342D01*
X159824478Y-53387331D01*
X159937500Y-53524530D01*
X160049238Y-53662926D01*
X160159684Y-53802511D01*
X160268829Y-53943273D01*
X160376663Y-54085200D01*
X160652187Y-54456896D01*
X160922730Y-54832663D01*
X161188252Y-55212444D01*
X161448716Y-55596182D01*
X161704084Y-55983819D01*
X161954316Y-56375299D01*
X162199375Y-56770562D01*
X162439223Y-57169552D01*
X162673901Y-57572342D01*
X162903206Y-57978572D01*
X163127105Y-58388181D01*
X163345566Y-58801107D01*
X163558558Y-59217289D01*
X163766049Y-59636666D01*
X163968005Y-60059175D01*
X164164397Y-60484755D01*
X164351244Y-60904632D01*
X164532391Y-61327273D01*
X164707813Y-61752612D01*
X164877483Y-62180583D01*
X165041378Y-62611123D01*
X165199471Y-63044165D01*
X165351737Y-63479645D01*
X165498151Y-63917497D01*
X165632566Y-64339810D01*
X165760501Y-64764327D01*
X165881932Y-65190961D01*
X165996838Y-65619627D01*
X166105195Y-66050239D01*
X166206982Y-66482710D01*
X166302176Y-66916956D01*
X166390753Y-67352890D01*
X166474038Y-67795639D01*
X166551253Y-68239573D01*
X166622387Y-68684619D01*
X166687432Y-69130704D01*
X166746376Y-69577755D01*
X166799210Y-70025699D01*
X166845923Y-70474464D01*
X166886507Y-70923977D01*
X166921072Y-71375403D01*
X166949516Y-71827250D01*
X166971836Y-72279448D01*
X166988031Y-72731925D01*
X166998098Y-73184609D01*
X167002034Y-73637431D01*
X166999839Y-74090318D01*
X166991509Y-74543199D01*
X166977218Y-74989111D01*
X166956804Y-75434677D01*
X166930273Y-75879823D01*
X166897628Y-76324480D01*
X166858877Y-76768575D01*
X166814025Y-77212036D01*
X166763076Y-77654792D01*
X166706038Y-78096773D01*
X166644669Y-78523465D01*
X166576847Y-78948957D01*
X166502588Y-79373164D01*
X166421908Y-79796004D01*
X166334823Y-80217394D01*
X166241351Y-80637249D01*
X166141508Y-81055487D01*
X166035309Y-81472024D01*
X165997173Y-81615470D01*
X165958311Y-81758679D01*
X165918714Y-81901683D01*
X165878374Y-82044513D01*
X165793723Y-82336035D01*
X165706278Y-82626719D01*
X165626172Y-82884039D01*
X165543643Y-83140491D01*
X165515641Y-83223787D01*
X165486310Y-83306555D01*
X165455656Y-83388775D01*
X165423686Y-83470428D01*
X165400357Y-83529662D01*
X165377744Y-83589210D01*
X165355848Y-83649064D01*
X165334674Y-83709212D01*
X165326275Y-83733982D01*
X165318146Y-83758853D01*
X165310287Y-83783823D01*
X165302699Y-83808888D01*
X165295383Y-83834046D01*
X165288339Y-83859294D01*
X165281569Y-83884630D01*
X165275073Y-83910051D01*
X165266085Y-83947703D01*
X165257874Y-83985551D01*
X165250444Y-84023583D01*
X165243799Y-84061786D01*
X165243599Y-84063236D01*
X165243475Y-84064687D01*
X165243426Y-84066137D01*
X165243451Y-84067583D01*
X165243549Y-84069021D01*
X165243720Y-84070448D01*
X165243962Y-84071861D01*
X165244275Y-84073258D01*
X165244658Y-84074634D01*
X165245111Y-84075987D01*
X165245633Y-84077314D01*
X165246222Y-84078611D01*
X165246878Y-84079875D01*
X165247601Y-84081104D01*
X165248389Y-84082294D01*
X165249242Y-84083442D01*
X165250153Y-84084538D01*
X165251113Y-84085572D01*
X165252121Y-84086545D01*
X165253173Y-84087453D01*
X165254266Y-84088297D01*
X165255399Y-84089075D01*
X165256567Y-84089786D01*
X165257769Y-84090427D01*
X165259001Y-84090998D01*
X165260261Y-84091497D01*
X165261547Y-84091924D01*
X165262854Y-84092276D01*
X165264181Y-84092552D01*
X165265525Y-84092751D01*
X165266883Y-84092872D01*
X165268253Y-84092914D01*
X165271977Y-84092832D01*
X165275683Y-84092589D01*
X165279369Y-84092186D01*
X165283028Y-84091625D01*
X165286657Y-84090906D01*
X165290252Y-84090032D01*
X165293808Y-84089004D01*
X165297321Y-84087823D01*
X165300786Y-84086492D01*
X165304200Y-84085011D01*
X165307558Y-84083383D01*
X165310855Y-84081608D01*
X165314087Y-84079689D01*
X165317251Y-84077627D01*
X165320341Y-84075423D01*
X165323354Y-84073079D01*
X165355974Y-84046273D01*
X165388300Y-84019067D01*
X165420327Y-83991461D01*
X165452054Y-83963458D01*
X165471232Y-83946198D01*
X165490284Y-83928782D01*
X165509211Y-83911209D01*
X165528011Y-83893482D01*
X165546684Y-83875600D01*
X165565228Y-83857564D01*
X165583642Y-83839375D01*
X165601926Y-83821034D01*
X165642532Y-83779537D01*
X165682707Y-83737568D01*
X165722450Y-83695130D01*
X165761759Y-83652225D01*
X165835564Y-83572392D01*
X165910820Y-83494169D01*
X165987502Y-83417580D01*
X166065590Y-83342643D01*
X166145058Y-83269383D01*
X166225886Y-83197819D01*
X166308050Y-83127974D01*
X166391527Y-83059869D01*
X166677033Y-82833866D01*
X166964464Y-82610632D01*
X167253791Y-82390192D01*
X167544982Y-82172568D01*
X167858273Y-81943136D01*
X168173695Y-81717025D01*
X168491201Y-81494265D01*
X168810744Y-81274888D01*
X169082847Y-81093434D01*
X169357666Y-80916788D01*
X169635156Y-80744981D01*
X169915273Y-80578044D01*
X170206413Y-80410100D01*
X170499248Y-80245631D01*
X170793752Y-80084652D01*
X171089897Y-79927177D01*
X171387654Y-79773222D01*
X171686996Y-79622800D01*
X171987895Y-79475926D01*
X172290325Y-79332615D01*
X172583271Y-79198174D01*
X172877720Y-79067638D01*
X173173635Y-78941019D01*
X173470984Y-78818332D01*
X173769732Y-78699591D01*
X174069845Y-78584810D01*
X174371288Y-78474003D01*
X174674028Y-78367183D01*
X174980934Y-78263356D01*
X175288968Y-78163567D01*
X175598097Y-78067827D01*
X175908287Y-77976145D01*
X176219504Y-77888531D01*
X176531712Y-77804995D01*
X176844880Y-77725545D01*
X177158971Y-77650192D01*
X177491602Y-77574613D01*
X177824926Y-77502739D01*
X178158915Y-77434574D01*
X178493541Y-77370125D01*
X178828775Y-77309397D01*
X179164588Y-77252395D01*
X179500953Y-77199125D01*
X179837841Y-77149591D01*
X180078237Y-77117087D01*
X180318942Y-77087511D01*
X180559934Y-77060868D01*
X180801187Y-77037157D01*
X181042677Y-77016382D01*
X181284381Y-76998545D01*
X181526273Y-76983647D01*
X181768331Y-76971690D01*
X182346088Y-76950840D01*
X182924060Y-76938314D01*
X183502156Y-76934112D01*
X184080284Y-76938237D01*
X184648379Y-76950477D01*
X185216218Y-76970908D01*
X185783751Y-76999528D01*
X186350929Y-77036336D01*
X186575734Y-77054169D01*
X186800264Y-77075209D01*
X187024492Y-77099452D01*
X187248388Y-77126893D01*
X187471923Y-77157530D01*
X187695068Y-77191357D01*
X187917794Y-77228371D01*
X188140071Y-77268568D01*
X188681558Y-77375198D01*
X189221384Y-77490953D01*
X189759432Y-77615806D01*
X190295589Y-77749733D01*
X190820169Y-77890396D01*
X191342468Y-78040381D01*
X191862373Y-78199653D01*
X192379769Y-78368176D01*
X192900652Y-78547962D01*
X193418669Y-78736869D01*
X193933722Y-78934860D01*
X194445711Y-79141902D01*
X194975821Y-79366366D01*
X195502819Y-79599055D01*
X196026677Y-79839957D01*
X196547368Y-80089061D01*
X197171681Y-80396368D01*
X197793996Y-80708255D01*
X197874340Y-80749431D01*
X197954272Y-80791499D01*
X198033787Y-80834454D01*
X198112876Y-80878292D01*
X198191534Y-80923011D01*
X198269754Y-80968606D01*
X198347528Y-81015075D01*
X198424849Y-81062413D01*
X198469871Y-81090937D01*
X198514354Y-81120385D01*
X198558285Y-81150746D01*
X198601652Y-81182013D01*
X198644443Y-81214175D01*
X198686645Y-81247225D01*
X198728246Y-81281153D01*
X198769234Y-81315950D01*
X198779893Y-81325728D01*
X198789965Y-81336072D01*
X198799436Y-81346951D01*
X198808292Y-81358335D01*
X198816519Y-81370192D01*
X198824103Y-81382491D01*
X198831031Y-81395201D01*
X198837288Y-81408292D01*
X198842862Y-81421731D01*
X198847737Y-81435488D01*
X198851900Y-81449533D01*
X198855338Y-81463833D01*
X198858036Y-81478359D01*
X198859981Y-81493078D01*
X198861159Y-81507960D01*
X198861556Y-81522973D01*
X198861271Y-81539838D01*
X198860420Y-81556643D01*
X198859006Y-81573372D01*
X198857034Y-81590011D01*
X198854508Y-81606545D01*
X198851431Y-81622957D01*
X198847809Y-81639233D01*
X198843643Y-81655358D01*
X198838940Y-81671316D01*
X198833703Y-81687093D01*
X198827935Y-81702672D01*
X198821642Y-81718040D01*
X198814826Y-81733180D01*
X198807493Y-81748077D01*
X198799646Y-81762716D01*
X198791289Y-81777083D01*
X198433994Y-82363936D01*
X198073726Y-82948678D01*
X197887278Y-83247157D01*
X197698802Y-83544144D01*
X197508289Y-83839647D01*
X197315734Y-84133673D01*
X197145489Y-84388641D01*
X196972636Y-84641582D01*
X196797190Y-84892476D01*
X196619164Y-85141302D01*
X196543699Y-85244292D01*
X196467069Y-85346301D01*
X196389290Y-85447312D01*
X196310375Y-85547307D01*
X196203469Y-85680407D01*
X196095943Y-85812895D01*
X195987777Y-85944795D01*
X195878951Y-86076129D01*
X195762032Y-86215795D01*
X195644496Y-86354771D01*
X195526290Y-86493119D01*
X195407363Y-86630897D01*
X195297915Y-86756213D01*
X195187685Y-86880752D01*
X195076685Y-87004506D01*
X194964925Y-87127466D01*
X193927083Y-88261813D01*
X194770769Y-88350839D01*
X195069781Y-88385428D01*
X195368109Y-88426015D01*
X195665683Y-88472590D01*
X195962428Y-88525142D01*
X196325362Y-88595234D01*
X196687583Y-88669306D01*
X197049073Y-88747356D01*
X197409813Y-88829381D01*
X197779813Y-88917740D01*
X198148909Y-89010114D01*
X198517106Y-89106503D01*
X198884407Y-89206907D01*
X199207294Y-89299776D01*
X199528850Y-89397745D01*
X199849025Y-89500799D01*
X200167766Y-89608925D01*
X200581516Y-89755210D01*
X200993947Y-89905675D01*
X201045963Y-89925421D01*
X201097684Y-89946006D01*
X201149101Y-89967427D01*
X201200204Y-89989678D01*
X201250985Y-90012757D01*
X201301436Y-90036659D01*
X201351548Y-90061380D01*
X201401311Y-90086917D01*
X201415539Y-90094522D01*
X201429637Y-90102380D01*
X201443602Y-90110491D01*
X201457431Y-90118850D01*
X201471122Y-90127457D01*
X201484670Y-90136309D01*
X201498075Y-90145405D01*
X201511332Y-90154743D01*
X201524439Y-90164319D01*
X201537394Y-90174133D01*
X201550193Y-90184182D01*
X201562833Y-90194465D01*
X201575312Y-90204979D01*
X201587627Y-90215722D01*
X201599776Y-90226692D01*
X201611754Y-90237887D01*
X201619648Y-90245808D01*
X201627100Y-90254124D01*
X201634099Y-90262815D01*
X201640636Y-90271858D01*
X201646703Y-90281232D01*
X201652291Y-90290914D01*
X201657390Y-90300884D01*
X201661990Y-90311119D01*
X201666084Y-90321597D01*
X201669661Y-90332298D01*
X201672713Y-90343198D01*
X201675230Y-90354277D01*
X201677203Y-90365512D01*
X201678623Y-90376883D01*
X201679482Y-90388366D01*
X201679769Y-90399940D01*
X201678997Y-90461782D01*
X201676689Y-90523503D01*
X201672848Y-90585071D01*
X201667483Y-90646454D01*
X201660599Y-90707621D01*
X201652202Y-90768539D01*
X201642300Y-90829177D01*
X201630899Y-90889503D01*
X201618005Y-90949485D01*
X201603624Y-91009092D01*
X201587763Y-91068290D01*
X201570428Y-91127050D01*
X201551627Y-91185338D01*
X201531364Y-91243122D01*
X201509647Y-91300372D01*
X201486482Y-91357055D01*
X201238858Y-91934656D01*
X200986364Y-92509918D01*
X200729046Y-93082735D01*
X200466951Y-93652997D01*
X200179398Y-94261724D01*
X199884496Y-94866430D01*
X199582300Y-95467005D01*
X199272865Y-96063342D01*
X199136702Y-96318787D01*
X198998152Y-96572735D01*
X198857227Y-96825167D01*
X198713938Y-97076064D01*
X198568297Y-97325406D01*
X198420314Y-97573175D01*
X198270001Y-97819351D01*
X198117369Y-98063916D01*
X197954115Y-98319384D01*
X197788054Y-98572736D01*
X197619206Y-98823947D01*
X197447588Y-99072989D01*
X197273218Y-99319837D01*
X197096115Y-99564464D01*
X196916295Y-99806843D01*
X196733779Y-100046948D01*
X196529308Y-100310352D01*
X196322696Y-100571816D01*
X196113954Y-100831325D01*
X195903095Y-101088864D01*
X195690133Y-101344416D01*
X195475080Y-101597967D01*
X195257949Y-101849501D01*
X195038753Y-102099002D01*
X194818232Y-102345635D01*
X194595699Y-102590178D01*
X194371170Y-102832615D01*
X194144660Y-103072930D01*
X193916186Y-103311107D01*
X193685763Y-103547131D01*
X193453407Y-103780986D01*
X193219133Y-104012655D01*
X193006976Y-104218085D01*
X192792519Y-104420719D01*
X192575788Y-104620533D01*
X192356807Y-104817507D01*
X192135602Y-105011618D01*
X191912196Y-105202846D01*
X191686616Y-105391166D01*
X191458885Y-105576559D01*
X190989184Y-105946707D01*
X190513113Y-106307137D01*
X190030807Y-106657756D01*
X189542399Y-106998474D01*
X189048023Y-107329200D01*
X188547813Y-107649842D01*
X188041901Y-107960309D01*
X187530422Y-108260510D01*
X187019507Y-108546757D01*
X186503570Y-108822111D01*
X185982763Y-109086499D01*
X185457241Y-109339849D01*
X184927157Y-109582090D01*
X184392666Y-109813150D01*
X183853921Y-110032956D01*
X183311077Y-110241437D01*
X182774628Y-110434666D01*
X182234823Y-110616284D01*
X181691827Y-110786243D01*
X181145806Y-110944497D01*
X180596926Y-111091002D01*
X180045354Y-111225710D01*
X179491253Y-111348577D01*
X178934792Y-111459555D01*
X178389666Y-111555746D01*
X177842914Y-111639296D01*
X177294729Y-111710186D01*
X176745304Y-111768399D01*
X176194831Y-111813915D01*
X175643505Y-111846717D01*
X175091517Y-111866787D01*
X174539061Y-111874106D01*
X173681340Y-111875534D01*
X174421150Y-112249856D01*
X174521336Y-112301281D01*
X174620969Y-112353894D01*
X174720040Y-112407690D01*
X174818540Y-112462664D01*
X174916459Y-112518811D01*
X175013789Y-112576127D01*
X175110521Y-112634606D01*
X175206645Y-112694244D01*
X175464040Y-112857726D01*
X175719975Y-113023762D01*
X175974451Y-113192354D01*
X176227468Y-113363504D01*
X176491226Y-113545631D01*
X176753342Y-113730364D01*
X177013830Y-113917710D01*
X177272707Y-114107681D01*
X177496382Y-114275988D01*
X177717801Y-114447639D01*
X177936935Y-114622614D01*
X178153755Y-114800891D01*
X178284630Y-114911299D01*
X178414377Y-115023190D01*
X178542987Y-115136554D01*
X178670449Y-115251381D01*
X178796754Y-115367662D01*
X178921890Y-115485387D01*
X179045848Y-115604548D01*
X179168617Y-115725134D01*
X179505187Y-116062104D01*
X179839117Y-116402067D01*
X180170407Y-116745025D01*
X180499062Y-117090982D01*
X180826004Y-117440930D01*
X181150209Y-117793806D01*
X181471641Y-118149574D01*
X181790267Y-118508200D01*
X181906299Y-118641258D01*
X182021040Y-118775574D01*
X182134481Y-118911134D01*
X182246613Y-119047930D01*
X182357428Y-119185948D01*
X182466917Y-119325180D01*
X182575071Y-119465612D01*
X182681880Y-119607235D01*
X182987805Y-120024308D01*
X183287093Y-120446710D01*
X183579684Y-120874351D01*
X183865520Y-121307140D01*
X184144540Y-121744985D01*
X184416687Y-122187797D01*
X184681900Y-122635482D01*
X184940120Y-123087951D01*
X185192034Y-123546384D01*
X185436751Y-124009125D01*
X185674224Y-124476080D01*
X185904406Y-124947151D01*
X186127250Y-125422240D01*
X186342710Y-125901252D01*
X186550739Y-126384089D01*
X186751290Y-126870654D01*
X186944051Y-127360178D01*
X187129146Y-127852957D01*
X187306539Y-128348888D01*
X187476197Y-128847867D01*
X187638085Y-129349792D01*
X187792168Y-129854558D01*
X187938411Y-130362064D01*
X188076781Y-130872204D01*
X188206471Y-131382091D01*
X188328073Y-131894133D01*
X188441565Y-132408220D01*
X188546925Y-132924244D01*
X188644132Y-133442097D01*
X188733164Y-133961669D01*
X188814001Y-134482851D01*
X188886620Y-135005536D01*
X188922378Y-135291751D01*
X188954786Y-135578391D01*
X188983841Y-135865419D01*
X189009540Y-136152800D01*
X189031879Y-136440498D01*
X189050857Y-136728478D01*
X189066470Y-137016704D01*
X189078716Y-137305139D01*
X189100115Y-138013319D01*
X189112483Y-138721697D01*
X189115818Y-139430217D01*
X189110118Y-140138824D01*
X189095864Y-140826567D01*
X189072933Y-141514044D01*
X189041328Y-142201131D01*
X189001052Y-142887704D01*
X188982846Y-143136974D01*
X188960663Y-143385822D01*
X188934511Y-143634194D01*
X188904396Y-143882033D01*
X188870324Y-144129285D01*
X188832303Y-144375893D01*
X188790339Y-144621801D01*
X188744438Y-144866955D01*
X188740895Y-144883000D01*
X188736607Y-144898755D01*
X188731592Y-144914195D01*
X188725866Y-144929293D01*
X188719446Y-144944024D01*
X188712350Y-144958362D01*
X188704595Y-144972282D01*
X188696197Y-144985756D01*
X188687174Y-144998761D01*
X188677542Y-145011268D01*
X188667318Y-145023254D01*
X188656520Y-145034691D01*
X188645165Y-145045554D01*
X188633269Y-145055817D01*
X188620850Y-145065455D01*
X188607924Y-145074441D01*
X188593241Y-145083684D01*
X188578281Y-145092310D01*
X188563062Y-145100315D01*
X188547601Y-145107694D01*
X188531916Y-145114442D01*
X188516022Y-145120554D01*
X188499939Y-145126027D01*
X188483681Y-145130855D01*
X188467268Y-145135033D01*
X188450715Y-145138558D01*
X188434040Y-145141423D01*
X188417260Y-145143626D01*
X188400393Y-145145160D01*
X188383454Y-145146021D01*
X188366462Y-145146204D01*
X188349434Y-145145706D01*
X188287491Y-145141810D01*
X188225690Y-145136243D01*
X188164059Y-145129011D01*
X188102627Y-145120117D01*
X188041425Y-145109567D01*
X187980480Y-145097364D01*
X187919822Y-145083515D01*
X187859480Y-145068024D01*
X187599880Y-144996704D01*
X187340776Y-144923637D01*
X187082113Y-144848806D01*
X186823836Y-144772198D01*
X186516856Y-144677975D01*
X186210911Y-144580003D01*
X185906034Y-144478290D01*
X185602257Y-144372845D01*
X185278857Y-144256608D01*
X184956497Y-144137131D01*
X184635204Y-144014424D01*
X184315007Y-143888495D01*
X184000550Y-143761210D01*
X183687277Y-143630759D01*
X183375173Y-143497134D01*
X183064223Y-143360327D01*
X182784257Y-143233230D01*
X182505839Y-143102311D01*
X182228989Y-142967577D01*
X181953725Y-142829037D01*
X181753561Y-142727599D01*
X181552669Y-142627740D01*
X181467207Y-142586010D01*
X181381525Y-142544838D01*
X181295671Y-142504248D01*
X181209694Y-142464264D01*
X181060090Y-142395577D01*
X180910280Y-142327392D01*
X180909294Y-142326969D01*
X180908298Y-142326588D01*
X180907296Y-142326249D01*
X180906287Y-142325952D01*
X180905272Y-142325697D01*
X180904253Y-142325484D01*
X180903231Y-142325311D01*
X180902207Y-142325180D01*
X180901181Y-142325090D01*
X180900155Y-142325040D01*
X180898108Y-142325062D01*
X180896071Y-142325244D01*
X180894056Y-142325584D01*
X180892069Y-142326081D01*
X180890118Y-142326733D01*
X180888214Y-142327538D01*
X180886363Y-142328494D01*
X180885460Y-142329029D01*
X180884574Y-142329601D01*
X180883706Y-142330209D01*
X180882856Y-142330855D01*
X180882026Y-142331537D01*
X180881217Y-142332256D01*
X180880429Y-142333010D01*
X180879665Y-142333801D01*
X180878168Y-142335505D01*
X180876780Y-142337292D01*
X180875505Y-142339156D01*
X180874343Y-142341092D01*
X180873297Y-142343093D01*
X180872369Y-142345153D01*
X180871559Y-142347267D01*
X180870870Y-142349429D01*
X180870304Y-142351632D01*
X180869862Y-142353872D01*
X180869546Y-142356140D01*
X180869359Y-142358433D01*
X180869301Y-142360743D01*
X180869375Y-142363065D01*
X180869581Y-142365393D01*
X180869924Y-142367721D01*
X180898093Y-142525450D01*
X180926750Y-142683075D01*
X180943703Y-142774142D01*
X180961162Y-142865110D01*
X180979123Y-142955984D01*
X180997585Y-143046768D01*
X181042162Y-143259215D01*
X181088194Y-143471325D01*
X181160944Y-143814474D01*
X181228050Y-144158921D01*
X181289499Y-144504579D01*
X181345275Y-144851364D01*
X181401324Y-145234870D01*
X181452682Y-145619140D01*
X181499340Y-146004098D01*
X181541289Y-146389670D01*
X181579524Y-146785692D01*
X181613009Y-147182176D01*
X181641739Y-147579078D01*
X181665709Y-147976352D01*
X181683842Y-148357875D01*
X181696794Y-148739628D01*
X181704565Y-149121554D01*
X181707155Y-149503598D01*
X181707155Y-151342004D01*
X180939595Y-151267059D01*
X179955380Y-151169251D01*
X178971275Y-151068051D01*
X178671927Y-151035700D01*
X178372816Y-151001268D01*
X178073921Y-150964755D01*
X177775221Y-150926163D01*
X177543116Y-150894110D01*
X177311315Y-150859628D01*
X177079836Y-150822716D01*
X176848699Y-150783377D01*
X176607689Y-150739917D01*
X176367048Y-150694242D01*
X176126782Y-150646351D01*
X175886900Y-150596243D01*
X175506927Y-150512535D01*
X175127954Y-150423994D01*
X174750022Y-150330631D01*
X174373171Y-150232458D01*
X173997443Y-150129486D01*
X173622877Y-150021724D01*
X173249515Y-149909185D01*
X172877397Y-149791879D01*
X172504175Y-149669079D01*
X172132366Y-149541632D01*
X171762005Y-149409552D01*
X171393128Y-149272853D01*
X171025772Y-149131548D01*
X170659971Y-148985651D01*
X170295762Y-148835176D01*
X169933180Y-148680136D01*
X169576515Y-148522395D01*
X169221662Y-148360172D01*
X168868656Y-148193485D01*
X168517534Y-148022350D01*
X168168329Y-147846786D01*
X167821077Y-147666809D01*
X167475814Y-147482438D01*
X167132573Y-147293689D01*
X166801622Y-147106112D01*
X166473012Y-146913995D01*
X166146782Y-146717362D01*
X165822973Y-146516239D01*
X165501625Y-146310650D01*
X165182778Y-146100620D01*
X164866471Y-145886174D01*
X164552745Y-145667337D01*
X164028886Y-145288942D01*
X163512067Y-144899963D01*
X163002424Y-144500514D01*
X162500095Y-144090709D01*
X162005217Y-143670662D01*
X161517926Y-143240487D01*
X161038359Y-142800297D01*
X160566654Y-142350207D01*
X160105712Y-141892932D01*
X159653335Y-141426248D01*
X159209646Y-140950295D01*
X158774770Y-140465215D01*
X158348831Y-139971150D01*
X157931950Y-139468239D01*
X157524254Y-138956624D01*
X157125864Y-138436447D01*
X156746047Y-137920019D01*
X156376069Y-137395731D01*
X156016033Y-136863747D01*
X155666042Y-136324227D01*
X155326201Y-135777335D01*
X154996611Y-135223234D01*
X154677377Y-134662087D01*
X154368602Y-134094055D01*
X154082638Y-133541271D01*
X153808415Y-132981771D01*
X153545966Y-132415586D01*
X153295322Y-131842749D01*
X153056516Y-131263291D01*
X152829579Y-130677242D01*
X152614544Y-130084635D01*
X152411443Y-129485501D01*
X152214691Y-128882745D01*
X152024509Y-128296130D01*
X151886388Y-127867819D01*
X151875660Y-127834061D01*
X151865169Y-127800216D01*
X151854917Y-127766290D01*
X151844905Y-127732284D01*
X151844273Y-127730369D01*
X151843515Y-127728531D01*
X151842635Y-127726774D01*
X151841642Y-127725104D01*
X151840539Y-127723527D01*
X151839335Y-127722048D01*
X151838035Y-127720671D01*
X151836644Y-127719402D01*
X151835170Y-127718246D01*
X151833619Y-127717209D01*
X151831996Y-127716295D01*
X151830307Y-127715510D01*
X151828560Y-127714859D01*
X151826759Y-127714348D01*
X151825841Y-127714146D01*
X151824912Y-127713981D01*
X151823973Y-127713853D01*
X151823024Y-127713763D01*
X151822073Y-127713712D01*
X151821125Y-127713699D01*
X151820183Y-127713726D01*
X151819248Y-127713790D01*
X151818319Y-127713892D01*
X151817398Y-127714030D01*
X151816485Y-127714206D01*
X151815582Y-127714417D01*
X151814690Y-127714663D01*
X151813809Y-127714945D01*
X151812939Y-127715261D01*
X151812083Y-127715611D01*
X151811240Y-127715994D01*
X151810412Y-127716409D01*
X151809599Y-127716857D01*
X151808802Y-127717337D01*
X151808022Y-127717848D01*
X151807261Y-127718390D01*
X151806518Y-127718962D01*
X151805795Y-127719563D01*
X151805092Y-127720193D01*
X151804410Y-127720852D01*
X151803751Y-127721539D01*
X151803114Y-127722254D01*
X151802502Y-127722996D01*
X151801914Y-127723763D01*
X151801351Y-127724557D01*
X151800815Y-127725377D01*
X151800306Y-127726221D01*
X151799825Y-127727089D01*
X151799373Y-127727981D01*
X151798950Y-127728897D01*
X151759608Y-127819524D01*
X151721132Y-127910574D01*
X151683522Y-128002037D01*
X151646781Y-128093899D01*
X151598150Y-128219348D01*
X151550948Y-128345416D01*
X151505182Y-128472087D01*
X151460860Y-128599344D01*
X151406889Y-128758798D01*
X151353851Y-128918643D01*
X151301755Y-129078845D01*
X151250609Y-129239371D01*
X151156627Y-129531535D01*
X151059339Y-129822421D01*
X150958755Y-130111999D01*
X150854888Y-130400236D01*
X150747750Y-130687102D01*
X150637351Y-130972565D01*
X150523703Y-131256594D01*
X150406818Y-131539157D01*
X150279625Y-131837565D01*
X150149608Y-132134553D01*
X150016778Y-132430098D01*
X149881144Y-132724175D01*
X149742720Y-133016762D01*
X149601515Y-133307833D01*
X149457540Y-133597364D01*
X149310808Y-133885333D01*
X149157258Y-134179601D01*
X149000997Y-134472200D01*
X148842037Y-134763109D01*
X148680389Y-135052309D01*
X148516064Y-135339780D01*
X148349072Y-135625502D01*
X148179425Y-135909455D01*
X148007134Y-136191620D01*
X147832817Y-136470974D01*
X147655902Y-136748427D01*
X147476402Y-137023955D01*
X147294331Y-137297539D01*
X147109704Y-137569157D01*
X146922535Y-137838787D01*
X146732839Y-138106410D01*
X146540628Y-138372003D01*
X146418958Y-138536491D01*
X146295583Y-138699497D01*
X146170516Y-138861007D01*
X146043768Y-139021007D01*
X145915348Y-139179482D01*
X145785268Y-139336419D01*
X145653539Y-139491803D01*
X145520172Y-139645620D01*
X145162454Y-140049623D01*
X144801067Y-140449851D01*
X144436047Y-140846266D01*
X144067432Y-141238830D01*
X143690722Y-141632218D01*
X143310398Y-142021643D01*
X142926518Y-142407051D01*
X142539137Y-142788388D01*
X142384830Y-142937313D01*
X142229170Y-143084589D01*
X142072170Y-143230206D01*
X141913838Y-143374155D01*
X141754186Y-143516426D01*
X141593224Y-143657010D01*
X141430962Y-143795898D01*
X141267411Y-143933081D01*
X141021079Y-144135502D01*
X140772881Y-144335267D01*
X140522837Y-144532359D01*
X140270968Y-144726763D01*
X140017293Y-144918465D01*
X139761833Y-145107448D01*
X139504607Y-145293698D01*
X139245638Y-145477200D01*
X138974013Y-145665755D01*
X138700858Y-145851725D01*
X138426188Y-146035100D01*
X138150019Y-146215870D01*
X137872366Y-146394027D01*
X137593246Y-146569559D01*
X137312674Y-146742457D01*
X137030666Y-146912710D01*
X136467617Y-147242145D01*
X135899204Y-147560793D01*
X135325575Y-147868576D01*
X134746878Y-148165417D01*
X134472796Y-148300904D01*
X134197400Y-148433240D01*
X133920713Y-148562415D01*
X133642758Y-148688419D01*
X133363559Y-148811241D01*
X133083140Y-148930872D01*
X132801523Y-149047299D01*
X132518732Y-149160513D01*
X132141472Y-149304992D01*
X131761887Y-149442179D01*
X131380056Y-149572043D01*
X130996054Y-149694559D01*
X130544212Y-149831075D01*
X130091011Y-149962149D01*
X129636454Y-150087777D01*
X129180541Y-150207959D01*
X128717845Y-150324073D01*
X128253998Y-150434652D01*
X127789021Y-150539691D01*
X127322938Y-150639181D01*
X126910888Y-150720876D01*
X126497651Y-150795402D01*
X126083306Y-150862746D01*
X125667930Y-150922894D01*
X125324224Y-150968385D01*
X124980185Y-151011443D01*
X124635874Y-151052061D01*
X124291350Y-151090234D01*
X123999393Y-151119823D01*
X123707127Y-151146009D01*
X123414567Y-151168791D01*
X123121730Y-151188168D01*
X122881147Y-151201927D01*
X122640450Y-151214157D01*
X122399690Y-151224857D01*
X122158917Y-151234027D01*
X122144545Y-151234132D01*
X122130255Y-151233447D01*
X122116073Y-151231984D01*
X122102024Y-151229753D01*
X122088136Y-151226766D01*
X122074433Y-151223033D01*
X122060941Y-151218566D01*
X122047687Y-151213375D01*
X122034697Y-151207471D01*
X122021995Y-151200866D01*
X122009609Y-151193571D01*
X121997564Y-151185595D01*
X121985886Y-151176951D01*
X121974601Y-151167649D01*
X121963735Y-151157700D01*
X121953313Y-151147116D01*
X121943824Y-151136444D01*
X121934891Y-151125326D01*
X121926522Y-151113790D01*
X121918726Y-151101863D01*
X121911515Y-151089572D01*
X121904897Y-151076945D01*
X121898881Y-151064008D01*
X121893478Y-151050790D01*
X121888696Y-151037316D01*
X121884546Y-151023615D01*
X121881037Y-151009714D01*
X121878179Y-150995640D01*
X121875981Y-150981419D01*
X121874452Y-150967081D01*
X121873603Y-150952650D01*
X121873442Y-150938156D01*
X121886299Y-150056809D01*
X121902094Y-149175482D01*
X121911620Y-148755880D01*
X121923762Y-148336442D01*
X121938525Y-147917087D01*
X121955911Y-147497732D01*
X121971952Y-147191648D01*
X121992767Y-146885905D01*
X122018348Y-146580575D01*
X122048692Y-146275732D01*
X122074357Y-146049154D01*
X122102629Y-145822950D01*
X122133503Y-145597139D01*
X122166976Y-145371740D01*
X122212062Y-145085219D01*
X122258773Y-144798976D01*
X122307109Y-144513013D01*
X122357072Y-144227331D01*
X122457009Y-143681686D01*
X122562573Y-143137222D01*
X122579013Y-143057129D01*
X122596362Y-142977263D01*
X122614616Y-142897633D01*
X122633773Y-142818249D01*
X122653832Y-142739119D01*
X122674790Y-142660253D01*
X122696645Y-142581659D01*
X122719394Y-142503348D01*
X122720181Y-142500484D01*
X122720846Y-142497608D01*
X122721391Y-142494724D01*
X122721817Y-142491836D01*
X122722125Y-142488946D01*
X122722317Y-142486058D01*
X122722394Y-142483177D01*
X122722358Y-142480305D01*
X122722209Y-142477447D01*
X122721948Y-142474605D01*
X122721578Y-142471784D01*
X122721099Y-142468986D01*
X122720514Y-142466217D01*
X122719821Y-142463478D01*
X122719025Y-142460774D01*
X122718125Y-142458109D01*
X122717122Y-142455486D01*
X122716019Y-142452908D01*
X122714817Y-142450380D01*
X122713516Y-142447904D01*
X122712118Y-142445485D01*
X122710625Y-142443125D01*
X122709037Y-142440830D01*
X122707356Y-142438601D01*
X122705583Y-142436443D01*
X122703720Y-142434360D01*
X122701768Y-142432355D01*
X122699728Y-142430431D01*
X122697601Y-142428592D01*
X122695388Y-142426842D01*
X122693092Y-142425185D01*
X122690713Y-142423623D01*
X122684947Y-142420227D01*
X122679055Y-142417163D01*
X122673048Y-142414432D01*
X122666939Y-142412037D01*
X122660740Y-142409979D01*
X122654463Y-142408261D01*
X122648121Y-142406882D01*
X122641726Y-142405846D01*
X122635291Y-142405154D01*
X122628828Y-142404808D01*
X122622348Y-142404809D01*
X122615865Y-142405159D01*
X122609391Y-142405859D01*
X122602938Y-142406913D01*
X122596518Y-142408320D01*
X122590145Y-142410083D01*
X122558483Y-142420131D01*
X122527028Y-142430860D01*
X122495789Y-142442268D01*
X122464774Y-142454352D01*
X122433992Y-142467108D01*
X122403452Y-142480534D01*
X122373162Y-142494626D01*
X122343133Y-142509381D01*
X122214452Y-142574731D01*
X122086056Y-142640804D01*
X121957978Y-142707582D01*
X121830250Y-142775049D01*
X121572620Y-142909527D01*
X121313195Y-143039979D01*
X121052012Y-143166388D01*
X120789105Y-143288733D01*
X120493626Y-143421563D01*
X120196867Y-143551098D01*
X119898861Y-143677319D01*
X119599639Y-143800210D01*
X119283249Y-143926210D01*
X118965682Y-144048833D01*
X118646982Y-144168061D01*
X118327193Y-144283874D01*
X118005617Y-144396532D01*
X117683026Y-144505768D01*
X117359423Y-144611582D01*
X117034814Y-144713971D01*
X116794896Y-144787223D01*
X116554510Y-144858534D01*
X116313630Y-144927909D01*
X116072226Y-144995358D01*
X115995518Y-145015862D01*
X115918563Y-145035234D01*
X115841374Y-145053470D01*
X115763961Y-145070570D01*
X115686336Y-145086530D01*
X115608509Y-145101348D01*
X115530493Y-145115023D01*
X115452297Y-145127551D01*
X115402258Y-145134609D01*
X115352107Y-145140532D01*
X115301861Y-145145319D01*
X115251538Y-145148967D01*
X115201154Y-145151477D01*
X115150726Y-145152847D01*
X115100271Y-145153075D01*
X115049806Y-145152160D01*
X115043075Y-145151849D01*
X115036381Y-145151315D01*
X115029730Y-145150559D01*
X115023125Y-145149584D01*
X115016571Y-145148393D01*
X115010072Y-145146989D01*
X115003632Y-145145374D01*
X114997254Y-145143550D01*
X114990944Y-145141520D01*
X114984704Y-145139286D01*
X114978540Y-145136852D01*
X114972456Y-145134219D01*
X114960541Y-145128368D01*
X114948994Y-145121753D01*
X114937846Y-145114396D01*
X114927131Y-145106316D01*
X114916882Y-145097533D01*
X114907132Y-145088068D01*
X114897913Y-145077941D01*
X114889259Y-145067172D01*
X114885154Y-145061553D01*
X114881202Y-145055781D01*
X114877408Y-145049859D01*
X114873776Y-145043789D01*
X114860946Y-145020864D01*
X114848748Y-144997590D01*
X114837186Y-144973982D01*
X114826264Y-144950054D01*
X114815989Y-144925820D01*
X114806363Y-144901295D01*
X114797392Y-144876491D01*
X114789081Y-144851423D01*
X114781434Y-144826106D01*
X114774456Y-144800553D01*
X114768152Y-144774779D01*
X114762527Y-144748796D01*
X114757584Y-144722620D01*
X114753329Y-144696265D01*
X114749767Y-144669744D01*
X114746902Y-144643072D01*
X114667597Y-143768981D01*
X114593974Y-142894113D01*
X114559548Y-142448567D01*
X114528313Y-142002744D01*
X114500272Y-141556691D01*
X114475427Y-141110455D01*
X114458792Y-140745222D01*
X114446908Y-140379791D01*
X114439777Y-140014216D01*
X114437401Y-139648550D01*
X114442350Y-139041128D01*
X114457191Y-138434026D01*
X114481914Y-137827384D01*
X114516511Y-137221341D01*
X114560974Y-136616033D01*
X114615292Y-136011601D01*
X114679457Y-135408182D01*
X114753459Y-134805914D01*
X114835112Y-134224031D01*
X114927157Y-133644088D01*
X115029560Y-133066244D01*
X115142290Y-132490659D01*
X115265315Y-131917490D01*
X115398600Y-131346896D01*
X115542115Y-130779036D01*
X115695825Y-130214068D01*
X115858791Y-129655383D01*
X116031756Y-129100317D01*
X116214664Y-128549021D01*
X116407461Y-128001650D01*
X116610090Y-127458355D01*
X116822496Y-126919289D01*
X117044625Y-126384605D01*
X117276422Y-125854455D01*
X117522793Y-125317350D01*
X117778130Y-124785217D01*
X118042367Y-124258183D01*
X118315434Y-123736377D01*
X118597263Y-123219927D01*
X118887787Y-122708959D01*
X119186936Y-122203603D01*
X119494644Y-121703985D01*
X119720421Y-121350299D01*
X119951127Y-121000355D01*
X120186719Y-120654212D01*
X120427156Y-120311928D01*
X120672395Y-119973563D01*
X120922395Y-119639175D01*
X121177114Y-119308821D01*
X121436509Y-118982562D01*
X121707615Y-118651427D01*
X121982961Y-118324402D01*
X122262506Y-118001533D01*
X122546207Y-117682866D01*
X122834022Y-117368447D01*
X123125910Y-117058324D01*
X123421829Y-116752542D01*
X123721736Y-116451147D01*
X124022241Y-116157496D01*
X124326526Y-115868429D01*
X124634545Y-115583988D01*
X124946254Y-115304215D01*
X125261605Y-115029149D01*
X125580554Y-114758833D01*
X125903054Y-114493308D01*
X126229059Y-114232614D01*
X126542635Y-113989707D01*
X126859812Y-113752353D01*
X127180525Y-113520595D01*
X127504708Y-113294479D01*
X127832298Y-113074048D01*
X128163227Y-112859348D01*
X128497432Y-112650423D01*
X128834847Y-112447317D01*
X129692568Y-111940829D01*
X128957363Y-111910031D01*
X128237011Y-111871147D01*
X127517940Y-111814889D01*
X126800423Y-111741296D01*
X126084733Y-111650406D01*
X125371145Y-111542257D01*
X124659931Y-111416887D01*
X123951365Y-111274335D01*
X123245722Y-111114639D01*
X122563913Y-110942234D01*
X121886593Y-110751989D01*
X121214068Y-110544011D01*
X120546639Y-110318406D01*
X119884610Y-110075282D01*
X119228284Y-109814746D01*
X118577966Y-109536904D01*
X117933958Y-109241864D01*
X117300616Y-108931659D01*
X116674959Y-108604890D01*
X116057265Y-108261726D01*
X115447812Y-107902337D01*
X114846881Y-107526893D01*
X114254751Y-107135563D01*
X113671700Y-106728517D01*
X113098007Y-106305923D01*
X112523296Y-105860326D01*
X111958745Y-105400627D01*
X111404576Y-104927029D01*
X110861010Y-104439734D01*
X110328268Y-103938946D01*
X109806573Y-103424869D01*
X109296144Y-102897705D01*
X108797204Y-102357657D01*
X108535165Y-102064639D01*
X108275601Y-101769052D01*
X108018560Y-101470953D01*
X107764091Y-101170401D01*
X107547365Y-100908378D01*
X107334139Y-100643134D01*
X107124438Y-100374695D01*
X106918283Y-100103088D01*
X106710988Y-99822095D01*
X106507304Y-99538098D01*
X106307260Y-99251134D01*
X106110883Y-98961242D01*
X105877615Y-98608985D01*
X105646969Y-98254835D01*
X105418928Y-97898763D01*
X105193471Y-97540738D01*
X105043222Y-97297244D01*
X104895479Y-97052036D01*
X104750253Y-96805134D01*
X104607556Y-96556560D01*
X104467401Y-96306334D01*
X104329799Y-96054478D01*
X104194762Y-95801013D01*
X104062303Y-95545959D01*
X103757973Y-94942723D01*
X103461309Y-94335194D01*
X103172330Y-93723416D01*
X102891056Y-93107434D01*
X102622303Y-92504483D01*
X102356529Y-91899871D01*
X102093797Y-91293740D01*
X101834169Y-90686235D01*
X101822980Y-90656908D01*
X101814034Y-90627072D01*
X101807309Y-90596856D01*
X101802781Y-90566392D01*
X101800429Y-90535810D01*
X101800231Y-90505242D01*
X101802164Y-90474817D01*
X101806207Y-90444667D01*
X101812336Y-90414923D01*
X101820531Y-90385714D01*
X101830768Y-90357173D01*
X101843026Y-90329429D01*
X101857282Y-90302614D01*
X101873514Y-90276859D01*
X101891700Y-90252293D01*
X101911817Y-90229048D01*
X101946573Y-90193034D01*
X101982313Y-90158273D01*
X102019006Y-90124785D01*
X102056622Y-90092590D01*
X102095130Y-90061706D01*
X102134499Y-90032153D01*
X102174699Y-90003950D01*
X102215699Y-89977118D01*
X102257468Y-89951675D01*
X102299977Y-89927640D01*
X102343194Y-89905034D01*
X102387089Y-89883876D01*
X102431631Y-89864185D01*
X102476790Y-89845980D01*
X102522534Y-89829281D01*
X102568834Y-89814108D01*
X103103983Y-89651131D01*
X103640360Y-89492903D01*
X104177967Y-89339423D01*
X104716802Y-89190693D01*
X105280185Y-89042046D01*
X105845314Y-88901317D01*
X106412117Y-88768528D01*
X106980519Y-88643698D01*
X107210401Y-88596469D01*
X107440785Y-88552291D01*
X107671644Y-88511170D01*
X107902951Y-88473109D01*
X108134682Y-88438112D01*
X108366809Y-88406185D01*
X108599306Y-88377330D01*
X108832147Y-88351553D01*
X109659795Y-88265457D01*
X108688841Y-87194789D01*
X108585116Y-87079870D01*
X108481946Y-86964473D01*
X108379276Y-86848537D01*
X108277052Y-86732004D01*
X108058999Y-86480330D01*
X107842689Y-86226806D01*
X107644711Y-85991158D01*
X107448430Y-85753872D01*
X107378122Y-85667349D01*
X107308616Y-85580078D01*
X107239919Y-85492074D01*
X107172044Y-85403349D01*
X106989095Y-85157792D01*
X106809851Y-84909161D01*
X106634349Y-84657509D01*
X106462623Y-84402888D01*
X106252465Y-84083143D01*
X106044805Y-83761511D01*
X105839627Y-83437966D01*
X105636916Y-83112485D01*
X105238608Y-82462254D01*
X104844507Y-81809112D01*
X104834158Y-81791131D01*
X104824439Y-81772806D01*
X104815354Y-81754158D01*
X104806910Y-81735205D01*
X104799112Y-81715968D01*
X104791964Y-81696463D01*
X104785471Y-81676713D01*
X104779640Y-81656734D01*
X104774475Y-81636546D01*
X104769982Y-81616169D01*
X104766166Y-81595622D01*
X104763032Y-81574924D01*
X104760585Y-81554094D01*
X104758831Y-81533151D01*
X104757774Y-81512114D01*
X104757421Y-81491003D01*
X104757726Y-81479664D01*
X104758634Y-81468429D01*
X104760135Y-81457323D01*
X104762216Y-81446369D01*
X104764867Y-81435593D01*
X104768077Y-81425018D01*
X104771834Y-81414670D01*
X104776128Y-81404571D01*
X104780946Y-81394747D01*
X104786279Y-81385223D01*
X104792114Y-81376022D01*
X104798441Y-81367168D01*
X104805249Y-81358687D01*
X104812527Y-81350602D01*
X104820262Y-81342939D01*
X104828445Y-81335721D01*
X104864798Y-81305923D01*
X104901531Y-81276676D01*
X104938639Y-81247984D01*
X104976117Y-81219851D01*
X105013959Y-81192282D01*
X105052160Y-81165279D01*
X105090715Y-81138847D01*
X105129618Y-81112991D01*
X105190384Y-81073681D01*
X105251518Y-81035036D01*
X105313014Y-80997059D01*
X105374869Y-80959752D01*
X105437078Y-80923119D01*
X105499636Y-80887160D01*
X105562539Y-80851880D01*
X105625781Y-80817280D01*
X105830969Y-80707152D01*
X106036612Y-80598215D01*
X106242788Y-80490427D01*
X106449575Y-80383746D01*
X107109137Y-80053309D01*
X107773983Y-79735299D01*
X108443942Y-79429796D01*
X109118846Y-79136880D01*
X109429504Y-79007620D01*
X109741495Y-78882174D01*
X110054788Y-78760553D01*
X110369350Y-78642770D01*
X110685150Y-78528837D01*
X111002154Y-78418764D01*
X111320332Y-78312566D01*
X111639650Y-78210252D01*
X111956047Y-78113103D01*
X112273450Y-78019893D01*
X112591824Y-77930630D01*
X112911137Y-77845324D01*
X113231356Y-77763982D01*
X113552446Y-77686613D01*
X113874375Y-77613227D01*
X114197109Y-77543831D01*
X114888527Y-77406917D01*
X115582203Y-77284115D01*
X116277941Y-77175460D01*
X116975550Y-77080986D01*
X117668642Y-77004030D01*
X118363018Y-76946397D01*
X119058326Y-76908090D01*
X119754211Y-76889115D01*
X120450323Y-76889477D01*
X121146308Y-76909179D01*
X121841813Y-76948228D01*
X122536488Y-77006627D01*
X123245266Y-77085440D01*
X123951731Y-77182605D01*
X124655573Y-77298061D01*
X125356483Y-77431743D01*
X126054152Y-77583588D01*
X126748272Y-77753534D01*
X127438533Y-77941517D01*
X128124626Y-78147474D01*
X128795354Y-78367910D01*
X129460491Y-78605869D01*
X130119739Y-78861223D01*
X130772802Y-79133842D01*
X131419382Y-79423597D01*
X132059184Y-79730361D01*
X132691908Y-80054002D01*
X133317259Y-80394394D01*
X133902563Y-80734391D01*
X134478088Y-81092089D01*
X135043491Y-81467236D01*
X135598429Y-81859582D01*
X136142559Y-82268878D01*
X136675538Y-82694873D01*
X137197024Y-83137317D01*
X137706673Y-83595961D01*
X137758675Y-83643727D01*
X137811054Y-83691004D01*
X137863815Y-83737794D01*
X137916960Y-83784097D01*
X137962355Y-83822743D01*
X138008255Y-83860693D01*
X138054654Y-83897946D01*
X138101544Y-83934495D01*
X138140079Y-83963842D01*
X138178822Y-83992861D01*
X138217776Y-84021554D01*
X138256941Y-84049925D01*
X138258014Y-84050659D01*
X138259106Y-84051337D01*
X138260218Y-84051958D01*
X138261346Y-84052522D01*
X138262490Y-84053031D01*
X138263648Y-84053483D01*
X138264818Y-84053880D01*
X138265999Y-84054221D01*
X138267188Y-84054507D01*
X138268384Y-84054737D01*
X138269585Y-84054913D01*
X138270790Y-84055033D01*
X138271996Y-84055099D01*
X138273203Y-84055110D01*
X138274409Y-84055066D01*
X138275611Y-84054969D01*
X138276808Y-84054817D01*
X138277999Y-84054612D01*
X138279181Y-84054353D01*
X138280354Y-84054040D01*
X138281514Y-84053674D01*
X138282662Y-84053255D01*
X138283794Y-84052783D01*
X138284910Y-84052259D01*
X138286007Y-84051681D01*
X138287084Y-84051051D01*
X138288139Y-84050369D01*
X138289170Y-84049635D01*
X138290176Y-84048849D01*
X138291156Y-84048011D01*
X138292107Y-84047121D01*
X138293027Y-84046181D01*
X138294892Y-84044051D01*
X138296611Y-84041813D01*
X138298182Y-84039475D01*
X138299601Y-84037046D01*
X138300866Y-84034534D01*
X138301976Y-84031949D01*
X138302929Y-84029298D01*
X138303721Y-84026590D01*
X138304351Y-84023834D01*
X138304816Y-84021038D01*
X138305114Y-84018210D01*
X138305243Y-84015361D01*
X138305201Y-84012497D01*
X138304985Y-84009627D01*
X138304593Y-84006761D01*
X138304022Y-84003906D01*
X138292251Y-83953751D01*
X138280169Y-83903674D01*
X138267778Y-83853683D01*
X138255083Y-83803786D01*
X138239229Y-83743750D01*
X138222676Y-83683931D01*
X138205427Y-83624337D01*
X138187485Y-83564979D01*
X138165975Y-83496220D01*
X138143949Y-83427637D01*
X138121411Y-83359238D01*
X138098363Y-83291035D01*
X137922825Y-82762340D01*
X137756803Y-82230201D01*
X137600337Y-81694752D01*
X137453465Y-81156131D01*
X137389868Y-80908398D01*
X137329169Y-80659866D01*
X137271374Y-80410563D01*
X137216490Y-80160520D01*
X137164524Y-79909765D01*
X137115481Y-79658328D01*
X137069369Y-79406238D01*
X137026193Y-79153525D01*
X136984039Y-78888720D01*
X136944798Y-78623432D01*
X136908474Y-78357687D01*
X136875071Y-78091512D01*
X136844590Y-77824934D01*
X136817035Y-77557978D01*
X136792409Y-77290672D01*
X136770716Y-77023042D01*
X136727240Y-76390843D01*
X136692253Y-75758080D01*
X136665759Y-75124850D01*
X136647765Y-74491247D01*
X136637968Y-73847863D01*
X136636489Y-73204442D01*
X136643327Y-72561050D01*
X136658481Y-71917750D01*
X136680679Y-71365868D01*
X136714105Y-70814696D01*
X136758746Y-70264430D01*
X136814588Y-69715266D01*
X136845852Y-69448898D01*
X136879928Y-69182951D01*
X136916812Y-68917449D01*
X136956501Y-68652418D01*
X136998992Y-68387880D01*
X137044281Y-68123861D01*
X137092364Y-67860384D01*
X137143239Y-67597473D01*
X137263606Y-67016426D01*
X137392981Y-66437634D01*
X137531332Y-65861219D01*
X137678630Y-65287305D01*
X137818860Y-64777145D01*
X137968277Y-64270135D01*
X138126833Y-63766417D01*
X138294481Y-63266129D01*
X138471171Y-62769413D01*
X138656855Y-62276409D01*
X138851484Y-61787256D01*
X139055011Y-61302096D01*
X139280195Y-60789857D01*
X139513010Y-60281658D01*
X139753408Y-59777595D01*
X140001340Y-59277765D01*
X140256757Y-58782263D01*
X140519611Y-58291185D01*
X140789854Y-57804628D01*
X141067436Y-57322688D01*
X141351104Y-56847507D01*
X141641848Y-56377378D01*
X141939610Y-55912389D01*
X142244330Y-55452629D01*
X142555947Y-54998188D01*
X142874402Y-54549153D01*
X143199636Y-54105615D01*
X143531587Y-53667663D01*
X143847603Y-53265798D01*
X144170963Y-52870885D01*
X144501568Y-52483037D01*
X144839315Y-52102366D01*
X145184102Y-51728984D01*
X145535828Y-51363005D01*
X145894391Y-51004539D01*
X146259690Y-50653701D01*
X146259680Y-50653705D01*
X146349874Y-50569659D01*
X146440855Y-50486578D01*
X146532608Y-50404474D01*
X146625122Y-50323358D01*
X146706129Y-50254147D01*
X146788115Y-50186272D01*
X146871063Y-50119748D01*
X146954959Y-50054589D01*
X147024152Y-50002252D01*
X147093816Y-49950644D01*
X147163947Y-49899765D01*
X147234543Y-49849618D01*
X147239582Y-49846311D01*
X147244766Y-49843362D01*
X147250080Y-49840774D01*
X147255507Y-49838547D01*
X147261031Y-49836683D01*
X147266635Y-49835185D01*
X147272305Y-49834053D01*
X147278023Y-49833290D01*
X147283774Y-49832896D01*
X147289541Y-49832874D01*
X147295309Y-49833225D01*
X147301060Y-49833951D01*
X147306780Y-49835053D01*
X147312452Y-49836533D01*
X147318060Y-49838393D01*
X147323587Y-49840635D01*
X147360600Y-49857844D01*
X147396975Y-49876343D01*
X147432686Y-49896111D01*
X147467705Y-49917124D01*
X147502007Y-49939360D01*
X147535564Y-49962798D01*
X147568349Y-49987414D01*
X147600336Y-50013188D01*
X147631499Y-50040095D01*
X147661809Y-50068115D01*
X147691241Y-50097225D01*
X147719768Y-50127403D01*
X147747363Y-50158626D01*
X147774000Y-50190873D01*
X147799651Y-50224120D01*
X147824289Y-50258346D01*
X148159729Y-50743940D01*
X148492480Y-51231531D01*
X148822577Y-51721174D01*
X149150055Y-52212922D01*
X149475042Y-52709596D01*
X149794973Y-53209985D01*
X150109823Y-53714047D01*
X150419566Y-54221742D01*
X150531606Y-54410288D01*
X150641295Y-54600374D01*
X150748622Y-54791973D01*
X150853573Y-54985061D01*
X150956133Y-55179612D01*
X151056290Y-55375601D01*
X151154029Y-55573004D01*
X151249336Y-55771794D01*
X151767942Y-56871242D01*
X152478226Y-55509683D01*
X152718115Y-55058833D01*
X152965083Y-54612411D01*
X153219080Y-54170508D01*
X153480055Y-53733212D01*
X153783131Y-53240959D01*
X154091550Y-52752413D01*
X154405300Y-52267594D01*
X154724372Y-51786524D01*
X155035698Y-51325062D01*
X155348836Y-50865368D01*
X155663942Y-50407215D01*
X155981175Y-49950372D01*
X155997572Y-49928261D01*
X156015046Y-49907347D01*
X156033539Y-49887663D01*
X156052991Y-49869239D01*
X156073344Y-49852108D01*
X156094539Y-49836301D01*
X156116517Y-49821850D01*
X156139219Y-49808785D01*
X156162587Y-49797140D01*
X156186561Y-49786944D01*
X156211082Y-49778231D01*
X156236093Y-49771031D01*
X156261533Y-49765376D01*
X156287343Y-49761297D01*
X156313466Y-49758827D01*
X156339842Y-49757997D01*
X156358332Y-49758483D01*
M02*
