%TF.GenerationSoftware,KiCad,Pcbnew,9.0.7*%
%TF.CreationDate,2026-02-10T20:55:20-08:00*%
%TF.ProjectId,Blinky,426c696e-6b79-42e6-9b69-6361645f7063,rev?*%
%TF.SameCoordinates,Original*%
%TF.FileFunction,Legend,Top*%
%TF.FilePolarity,Positive*%
%FSLAX46Y46*%
G04 Gerber Fmt 4.6, Leading zero omitted, Abs format (unit mm)*
G04 Created by KiCad (PCBNEW 9.0.7) date 2026-02-10 20:55:20*
%MOMM*%
%LPD*%
G01*
G04 APERTURE LIST*
%ADD10C,0.150000*%
%ADD11C,0.120000*%
%ADD12C,0.000000*%
%ADD13C,0.152400*%
G04 APERTURE END LIST*
D10*
X184851905Y-88324819D02*
X184851905Y-87324819D01*
X184851905Y-87324819D02*
X185090000Y-87324819D01*
X185090000Y-87324819D02*
X185232857Y-87372438D01*
X185232857Y-87372438D02*
X185328095Y-87467676D01*
X185328095Y-87467676D02*
X185375714Y-87562914D01*
X185375714Y-87562914D02*
X185423333Y-87753390D01*
X185423333Y-87753390D02*
X185423333Y-87896247D01*
X185423333Y-87896247D02*
X185375714Y-88086723D01*
X185375714Y-88086723D02*
X185328095Y-88181961D01*
X185328095Y-88181961D02*
X185232857Y-88277200D01*
X185232857Y-88277200D02*
X185090000Y-88324819D01*
X185090000Y-88324819D02*
X184851905Y-88324819D01*
X186280476Y-87658152D02*
X186280476Y-88324819D01*
X186042381Y-87277200D02*
X185804286Y-87991485D01*
X185804286Y-87991485D02*
X186423333Y-87991485D01*
X178714819Y-88536666D02*
X178238628Y-88869999D01*
X178714819Y-89108094D02*
X177714819Y-89108094D01*
X177714819Y-89108094D02*
X177714819Y-88727142D01*
X177714819Y-88727142D02*
X177762438Y-88631904D01*
X177762438Y-88631904D02*
X177810057Y-88584285D01*
X177810057Y-88584285D02*
X177905295Y-88536666D01*
X177905295Y-88536666D02*
X178048152Y-88536666D01*
X178048152Y-88536666D02*
X178143390Y-88584285D01*
X178143390Y-88584285D02*
X178191009Y-88631904D01*
X178191009Y-88631904D02*
X178238628Y-88727142D01*
X178238628Y-88727142D02*
X178238628Y-89108094D01*
X177714819Y-88203332D02*
X177714819Y-87584285D01*
X177714819Y-87584285D02*
X178095771Y-87917618D01*
X178095771Y-87917618D02*
X178095771Y-87774761D01*
X178095771Y-87774761D02*
X178143390Y-87679523D01*
X178143390Y-87679523D02*
X178191009Y-87631904D01*
X178191009Y-87631904D02*
X178286247Y-87584285D01*
X178286247Y-87584285D02*
X178524342Y-87584285D01*
X178524342Y-87584285D02*
X178619580Y-87631904D01*
X178619580Y-87631904D02*
X178667200Y-87679523D01*
X178667200Y-87679523D02*
X178714819Y-87774761D01*
X178714819Y-87774761D02*
X178714819Y-88060475D01*
X178714819Y-88060475D02*
X178667200Y-88155713D01*
X178667200Y-88155713D02*
X178619580Y-88203332D01*
X193901905Y-91994819D02*
X193901905Y-90994819D01*
X193901905Y-90994819D02*
X194140000Y-90994819D01*
X194140000Y-90994819D02*
X194282857Y-91042438D01*
X194282857Y-91042438D02*
X194378095Y-91137676D01*
X194378095Y-91137676D02*
X194425714Y-91232914D01*
X194425714Y-91232914D02*
X194473333Y-91423390D01*
X194473333Y-91423390D02*
X194473333Y-91566247D01*
X194473333Y-91566247D02*
X194425714Y-91756723D01*
X194425714Y-91756723D02*
X194378095Y-91851961D01*
X194378095Y-91851961D02*
X194282857Y-91947200D01*
X194282857Y-91947200D02*
X194140000Y-91994819D01*
X194140000Y-91994819D02*
X193901905Y-91994819D01*
X195378095Y-90994819D02*
X194901905Y-90994819D01*
X194901905Y-90994819D02*
X194854286Y-91471009D01*
X194854286Y-91471009D02*
X194901905Y-91423390D01*
X194901905Y-91423390D02*
X194997143Y-91375771D01*
X194997143Y-91375771D02*
X195235238Y-91375771D01*
X195235238Y-91375771D02*
X195330476Y-91423390D01*
X195330476Y-91423390D02*
X195378095Y-91471009D01*
X195378095Y-91471009D02*
X195425714Y-91566247D01*
X195425714Y-91566247D02*
X195425714Y-91804342D01*
X195425714Y-91804342D02*
X195378095Y-91899580D01*
X195378095Y-91899580D02*
X195330476Y-91947200D01*
X195330476Y-91947200D02*
X195235238Y-91994819D01*
X195235238Y-91994819D02*
X194997143Y-91994819D01*
X194997143Y-91994819D02*
X194901905Y-91947200D01*
X194901905Y-91947200D02*
X194854286Y-91899580D01*
X129004819Y-100491904D02*
X129814342Y-100491904D01*
X129814342Y-100491904D02*
X129909580Y-100444285D01*
X129909580Y-100444285D02*
X129957200Y-100396666D01*
X129957200Y-100396666D02*
X130004819Y-100301428D01*
X130004819Y-100301428D02*
X130004819Y-100110952D01*
X130004819Y-100110952D02*
X129957200Y-100015714D01*
X129957200Y-100015714D02*
X129909580Y-99968095D01*
X129909580Y-99968095D02*
X129814342Y-99920476D01*
X129814342Y-99920476D02*
X129004819Y-99920476D01*
X130004819Y-98920476D02*
X130004819Y-99491904D01*
X130004819Y-99206190D02*
X129004819Y-99206190D01*
X129004819Y-99206190D02*
X129147676Y-99301428D01*
X129147676Y-99301428D02*
X129242914Y-99396666D01*
X129242914Y-99396666D02*
X129290533Y-99491904D01*
X132834761Y-86504819D02*
X132501428Y-86028628D01*
X132263333Y-86504819D02*
X132263333Y-85504819D01*
X132263333Y-85504819D02*
X132644285Y-85504819D01*
X132644285Y-85504819D02*
X132739523Y-85552438D01*
X132739523Y-85552438D02*
X132787142Y-85600057D01*
X132787142Y-85600057D02*
X132834761Y-85695295D01*
X132834761Y-85695295D02*
X132834761Y-85838152D01*
X132834761Y-85838152D02*
X132787142Y-85933390D01*
X132787142Y-85933390D02*
X132739523Y-85981009D01*
X132739523Y-85981009D02*
X132644285Y-86028628D01*
X132644285Y-86028628D02*
X132263333Y-86028628D01*
X133120476Y-85504819D02*
X133453809Y-86504819D01*
X133453809Y-86504819D02*
X133787142Y-85504819D01*
X134644285Y-86504819D02*
X134072857Y-86504819D01*
X134358571Y-86504819D02*
X134358571Y-85504819D01*
X134358571Y-85504819D02*
X134263333Y-85647676D01*
X134263333Y-85647676D02*
X134168095Y-85742914D01*
X134168095Y-85742914D02*
X134072857Y-85790533D01*
X183791905Y-136294819D02*
X183791905Y-135294819D01*
X183791905Y-135294819D02*
X184030000Y-135294819D01*
X184030000Y-135294819D02*
X184172857Y-135342438D01*
X184172857Y-135342438D02*
X184268095Y-135437676D01*
X184268095Y-135437676D02*
X184315714Y-135532914D01*
X184315714Y-135532914D02*
X184363333Y-135723390D01*
X184363333Y-135723390D02*
X184363333Y-135866247D01*
X184363333Y-135866247D02*
X184315714Y-136056723D01*
X184315714Y-136056723D02*
X184268095Y-136151961D01*
X184268095Y-136151961D02*
X184172857Y-136247200D01*
X184172857Y-136247200D02*
X184030000Y-136294819D01*
X184030000Y-136294819D02*
X183791905Y-136294819D01*
X184934762Y-135723390D02*
X184839524Y-135675771D01*
X184839524Y-135675771D02*
X184791905Y-135628152D01*
X184791905Y-135628152D02*
X184744286Y-135532914D01*
X184744286Y-135532914D02*
X184744286Y-135485295D01*
X184744286Y-135485295D02*
X184791905Y-135390057D01*
X184791905Y-135390057D02*
X184839524Y-135342438D01*
X184839524Y-135342438D02*
X184934762Y-135294819D01*
X184934762Y-135294819D02*
X185125238Y-135294819D01*
X185125238Y-135294819D02*
X185220476Y-135342438D01*
X185220476Y-135342438D02*
X185268095Y-135390057D01*
X185268095Y-135390057D02*
X185315714Y-135485295D01*
X185315714Y-135485295D02*
X185315714Y-135532914D01*
X185315714Y-135532914D02*
X185268095Y-135628152D01*
X185268095Y-135628152D02*
X185220476Y-135675771D01*
X185220476Y-135675771D02*
X185125238Y-135723390D01*
X185125238Y-135723390D02*
X184934762Y-135723390D01*
X184934762Y-135723390D02*
X184839524Y-135771009D01*
X184839524Y-135771009D02*
X184791905Y-135818628D01*
X184791905Y-135818628D02*
X184744286Y-135913866D01*
X184744286Y-135913866D02*
X184744286Y-136104342D01*
X184744286Y-136104342D02*
X184791905Y-136199580D01*
X184791905Y-136199580D02*
X184839524Y-136247200D01*
X184839524Y-136247200D02*
X184934762Y-136294819D01*
X184934762Y-136294819D02*
X185125238Y-136294819D01*
X185125238Y-136294819D02*
X185220476Y-136247200D01*
X185220476Y-136247200D02*
X185268095Y-136199580D01*
X185268095Y-136199580D02*
X185315714Y-136104342D01*
X185315714Y-136104342D02*
X185315714Y-135913866D01*
X185315714Y-135913866D02*
X185268095Y-135818628D01*
X185268095Y-135818628D02*
X185220476Y-135771009D01*
X185220476Y-135771009D02*
X185125238Y-135723390D01*
X127801905Y-141564819D02*
X127801905Y-140564819D01*
X127801905Y-140564819D02*
X128040000Y-140564819D01*
X128040000Y-140564819D02*
X128182857Y-140612438D01*
X128182857Y-140612438D02*
X128278095Y-140707676D01*
X128278095Y-140707676D02*
X128325714Y-140802914D01*
X128325714Y-140802914D02*
X128373333Y-140993390D01*
X128373333Y-140993390D02*
X128373333Y-141136247D01*
X128373333Y-141136247D02*
X128325714Y-141326723D01*
X128325714Y-141326723D02*
X128278095Y-141421961D01*
X128278095Y-141421961D02*
X128182857Y-141517200D01*
X128182857Y-141517200D02*
X128040000Y-141564819D01*
X128040000Y-141564819D02*
X127801905Y-141564819D01*
X128849524Y-141564819D02*
X129040000Y-141564819D01*
X129040000Y-141564819D02*
X129135238Y-141517200D01*
X129135238Y-141517200D02*
X129182857Y-141469580D01*
X129182857Y-141469580D02*
X129278095Y-141326723D01*
X129278095Y-141326723D02*
X129325714Y-141136247D01*
X129325714Y-141136247D02*
X129325714Y-140755295D01*
X129325714Y-140755295D02*
X129278095Y-140660057D01*
X129278095Y-140660057D02*
X129230476Y-140612438D01*
X129230476Y-140612438D02*
X129135238Y-140564819D01*
X129135238Y-140564819D02*
X128944762Y-140564819D01*
X128944762Y-140564819D02*
X128849524Y-140612438D01*
X128849524Y-140612438D02*
X128801905Y-140660057D01*
X128801905Y-140660057D02*
X128754286Y-140755295D01*
X128754286Y-140755295D02*
X128754286Y-140993390D01*
X128754286Y-140993390D02*
X128801905Y-141088628D01*
X128801905Y-141088628D02*
X128849524Y-141136247D01*
X128849524Y-141136247D02*
X128944762Y-141183866D01*
X128944762Y-141183866D02*
X129135238Y-141183866D01*
X129135238Y-141183866D02*
X129230476Y-141136247D01*
X129230476Y-141136247D02*
X129278095Y-141088628D01*
X129278095Y-141088628D02*
X129325714Y-140993390D01*
X161564819Y-64893333D02*
X162279104Y-64893333D01*
X162279104Y-64893333D02*
X162421961Y-64940952D01*
X162421961Y-64940952D02*
X162517200Y-65036190D01*
X162517200Y-65036190D02*
X162564819Y-65179047D01*
X162564819Y-65179047D02*
X162564819Y-65274285D01*
X162564819Y-63893333D02*
X162564819Y-64464761D01*
X162564819Y-64179047D02*
X161564819Y-64179047D01*
X161564819Y-64179047D02*
X161707676Y-64274285D01*
X161707676Y-64274285D02*
X161802914Y-64369523D01*
X161802914Y-64369523D02*
X161850533Y-64464761D01*
X119725714Y-133304819D02*
X119725714Y-132304819D01*
X119725714Y-132304819D02*
X119963809Y-132304819D01*
X119963809Y-132304819D02*
X120106666Y-132352438D01*
X120106666Y-132352438D02*
X120201904Y-132447676D01*
X120201904Y-132447676D02*
X120249523Y-132542914D01*
X120249523Y-132542914D02*
X120297142Y-132733390D01*
X120297142Y-132733390D02*
X120297142Y-132876247D01*
X120297142Y-132876247D02*
X120249523Y-133066723D01*
X120249523Y-133066723D02*
X120201904Y-133161961D01*
X120201904Y-133161961D02*
X120106666Y-133257200D01*
X120106666Y-133257200D02*
X119963809Y-133304819D01*
X119963809Y-133304819D02*
X119725714Y-133304819D01*
X121249523Y-133304819D02*
X120678095Y-133304819D01*
X120963809Y-133304819D02*
X120963809Y-132304819D01*
X120963809Y-132304819D02*
X120868571Y-132447676D01*
X120868571Y-132447676D02*
X120773333Y-132542914D01*
X120773333Y-132542914D02*
X120678095Y-132590533D01*
X121868571Y-132304819D02*
X121963809Y-132304819D01*
X121963809Y-132304819D02*
X122059047Y-132352438D01*
X122059047Y-132352438D02*
X122106666Y-132400057D01*
X122106666Y-132400057D02*
X122154285Y-132495295D01*
X122154285Y-132495295D02*
X122201904Y-132685771D01*
X122201904Y-132685771D02*
X122201904Y-132923866D01*
X122201904Y-132923866D02*
X122154285Y-133114342D01*
X122154285Y-133114342D02*
X122106666Y-133209580D01*
X122106666Y-133209580D02*
X122059047Y-133257200D01*
X122059047Y-133257200D02*
X121963809Y-133304819D01*
X121963809Y-133304819D02*
X121868571Y-133304819D01*
X121868571Y-133304819D02*
X121773333Y-133257200D01*
X121773333Y-133257200D02*
X121725714Y-133209580D01*
X121725714Y-133209580D02*
X121678095Y-133114342D01*
X121678095Y-133114342D02*
X121630476Y-132923866D01*
X121630476Y-132923866D02*
X121630476Y-132685771D01*
X121630476Y-132685771D02*
X121678095Y-132495295D01*
X121678095Y-132495295D02*
X121725714Y-132400057D01*
X121725714Y-132400057D02*
X121773333Y-132352438D01*
X121773333Y-132352438D02*
X121868571Y-132304819D01*
X151116666Y-57874819D02*
X151116666Y-58589104D01*
X151116666Y-58589104D02*
X151069047Y-58731961D01*
X151069047Y-58731961D02*
X150973809Y-58827200D01*
X150973809Y-58827200D02*
X150830952Y-58874819D01*
X150830952Y-58874819D02*
X150735714Y-58874819D01*
X151545238Y-57970057D02*
X151592857Y-57922438D01*
X151592857Y-57922438D02*
X151688095Y-57874819D01*
X151688095Y-57874819D02*
X151926190Y-57874819D01*
X151926190Y-57874819D02*
X152021428Y-57922438D01*
X152021428Y-57922438D02*
X152069047Y-57970057D01*
X152069047Y-57970057D02*
X152116666Y-58065295D01*
X152116666Y-58065295D02*
X152116666Y-58160533D01*
X152116666Y-58160533D02*
X152069047Y-58303390D01*
X152069047Y-58303390D02*
X151497619Y-58874819D01*
X151497619Y-58874819D02*
X152116666Y-58874819D01*
X136663333Y-106299580D02*
X136615714Y-106347200D01*
X136615714Y-106347200D02*
X136472857Y-106394819D01*
X136472857Y-106394819D02*
X136377619Y-106394819D01*
X136377619Y-106394819D02*
X136234762Y-106347200D01*
X136234762Y-106347200D02*
X136139524Y-106251961D01*
X136139524Y-106251961D02*
X136091905Y-106156723D01*
X136091905Y-106156723D02*
X136044286Y-105966247D01*
X136044286Y-105966247D02*
X136044286Y-105823390D01*
X136044286Y-105823390D02*
X136091905Y-105632914D01*
X136091905Y-105632914D02*
X136139524Y-105537676D01*
X136139524Y-105537676D02*
X136234762Y-105442438D01*
X136234762Y-105442438D02*
X136377619Y-105394819D01*
X136377619Y-105394819D02*
X136472857Y-105394819D01*
X136472857Y-105394819D02*
X136615714Y-105442438D01*
X136615714Y-105442438D02*
X136663333Y-105490057D01*
X137044286Y-105490057D02*
X137091905Y-105442438D01*
X137091905Y-105442438D02*
X137187143Y-105394819D01*
X137187143Y-105394819D02*
X137425238Y-105394819D01*
X137425238Y-105394819D02*
X137520476Y-105442438D01*
X137520476Y-105442438D02*
X137568095Y-105490057D01*
X137568095Y-105490057D02*
X137615714Y-105585295D01*
X137615714Y-105585295D02*
X137615714Y-105680533D01*
X137615714Y-105680533D02*
X137568095Y-105823390D01*
X137568095Y-105823390D02*
X136996667Y-106394819D01*
X136996667Y-106394819D02*
X137615714Y-106394819D01*
X176791905Y-135124819D02*
X176791905Y-134124819D01*
X176791905Y-134124819D02*
X177030000Y-134124819D01*
X177030000Y-134124819D02*
X177172857Y-134172438D01*
X177172857Y-134172438D02*
X177268095Y-134267676D01*
X177268095Y-134267676D02*
X177315714Y-134362914D01*
X177315714Y-134362914D02*
X177363333Y-134553390D01*
X177363333Y-134553390D02*
X177363333Y-134696247D01*
X177363333Y-134696247D02*
X177315714Y-134886723D01*
X177315714Y-134886723D02*
X177268095Y-134981961D01*
X177268095Y-134981961D02*
X177172857Y-135077200D01*
X177172857Y-135077200D02*
X177030000Y-135124819D01*
X177030000Y-135124819D02*
X176791905Y-135124819D01*
X178220476Y-134124819D02*
X178030000Y-134124819D01*
X178030000Y-134124819D02*
X177934762Y-134172438D01*
X177934762Y-134172438D02*
X177887143Y-134220057D01*
X177887143Y-134220057D02*
X177791905Y-134362914D01*
X177791905Y-134362914D02*
X177744286Y-134553390D01*
X177744286Y-134553390D02*
X177744286Y-134934342D01*
X177744286Y-134934342D02*
X177791905Y-135029580D01*
X177791905Y-135029580D02*
X177839524Y-135077200D01*
X177839524Y-135077200D02*
X177934762Y-135124819D01*
X177934762Y-135124819D02*
X178125238Y-135124819D01*
X178125238Y-135124819D02*
X178220476Y-135077200D01*
X178220476Y-135077200D02*
X178268095Y-135029580D01*
X178268095Y-135029580D02*
X178315714Y-134934342D01*
X178315714Y-134934342D02*
X178315714Y-134696247D01*
X178315714Y-134696247D02*
X178268095Y-134601009D01*
X178268095Y-134601009D02*
X178220476Y-134553390D01*
X178220476Y-134553390D02*
X178125238Y-134505771D01*
X178125238Y-134505771D02*
X177934762Y-134505771D01*
X177934762Y-134505771D02*
X177839524Y-134553390D01*
X177839524Y-134553390D02*
X177791905Y-134601009D01*
X177791905Y-134601009D02*
X177744286Y-134696247D01*
X189701905Y-80984819D02*
X189701905Y-79984819D01*
X189701905Y-79984819D02*
X189940000Y-79984819D01*
X189940000Y-79984819D02*
X190082857Y-80032438D01*
X190082857Y-80032438D02*
X190178095Y-80127676D01*
X190178095Y-80127676D02*
X190225714Y-80222914D01*
X190225714Y-80222914D02*
X190273333Y-80413390D01*
X190273333Y-80413390D02*
X190273333Y-80556247D01*
X190273333Y-80556247D02*
X190225714Y-80746723D01*
X190225714Y-80746723D02*
X190178095Y-80841961D01*
X190178095Y-80841961D02*
X190082857Y-80937200D01*
X190082857Y-80937200D02*
X189940000Y-80984819D01*
X189940000Y-80984819D02*
X189701905Y-80984819D01*
X190606667Y-79984819D02*
X191225714Y-79984819D01*
X191225714Y-79984819D02*
X190892381Y-80365771D01*
X190892381Y-80365771D02*
X191035238Y-80365771D01*
X191035238Y-80365771D02*
X191130476Y-80413390D01*
X191130476Y-80413390D02*
X191178095Y-80461009D01*
X191178095Y-80461009D02*
X191225714Y-80556247D01*
X191225714Y-80556247D02*
X191225714Y-80794342D01*
X191225714Y-80794342D02*
X191178095Y-80889580D01*
X191178095Y-80889580D02*
X191130476Y-80937200D01*
X191130476Y-80937200D02*
X191035238Y-80984819D01*
X191035238Y-80984819D02*
X190749524Y-80984819D01*
X190749524Y-80984819D02*
X190654286Y-80937200D01*
X190654286Y-80937200D02*
X190606667Y-80889580D01*
X112375714Y-81634819D02*
X112375714Y-80634819D01*
X112375714Y-80634819D02*
X112613809Y-80634819D01*
X112613809Y-80634819D02*
X112756666Y-80682438D01*
X112756666Y-80682438D02*
X112851904Y-80777676D01*
X112851904Y-80777676D02*
X112899523Y-80872914D01*
X112899523Y-80872914D02*
X112947142Y-81063390D01*
X112947142Y-81063390D02*
X112947142Y-81206247D01*
X112947142Y-81206247D02*
X112899523Y-81396723D01*
X112899523Y-81396723D02*
X112851904Y-81491961D01*
X112851904Y-81491961D02*
X112756666Y-81587200D01*
X112756666Y-81587200D02*
X112613809Y-81634819D01*
X112613809Y-81634819D02*
X112375714Y-81634819D01*
X113899523Y-81634819D02*
X113328095Y-81634819D01*
X113613809Y-81634819D02*
X113613809Y-80634819D01*
X113613809Y-80634819D02*
X113518571Y-80777676D01*
X113518571Y-80777676D02*
X113423333Y-80872914D01*
X113423333Y-80872914D02*
X113328095Y-80920533D01*
X114280476Y-80730057D02*
X114328095Y-80682438D01*
X114328095Y-80682438D02*
X114423333Y-80634819D01*
X114423333Y-80634819D02*
X114661428Y-80634819D01*
X114661428Y-80634819D02*
X114756666Y-80682438D01*
X114756666Y-80682438D02*
X114804285Y-80730057D01*
X114804285Y-80730057D02*
X114851904Y-80825295D01*
X114851904Y-80825295D02*
X114851904Y-80920533D01*
X114851904Y-80920533D02*
X114804285Y-81063390D01*
X114804285Y-81063390D02*
X114232857Y-81634819D01*
X114232857Y-81634819D02*
X114851904Y-81634819D01*
X146973333Y-116619580D02*
X146925714Y-116667200D01*
X146925714Y-116667200D02*
X146782857Y-116714819D01*
X146782857Y-116714819D02*
X146687619Y-116714819D01*
X146687619Y-116714819D02*
X146544762Y-116667200D01*
X146544762Y-116667200D02*
X146449524Y-116571961D01*
X146449524Y-116571961D02*
X146401905Y-116476723D01*
X146401905Y-116476723D02*
X146354286Y-116286247D01*
X146354286Y-116286247D02*
X146354286Y-116143390D01*
X146354286Y-116143390D02*
X146401905Y-115952914D01*
X146401905Y-115952914D02*
X146449524Y-115857676D01*
X146449524Y-115857676D02*
X146544762Y-115762438D01*
X146544762Y-115762438D02*
X146687619Y-115714819D01*
X146687619Y-115714819D02*
X146782857Y-115714819D01*
X146782857Y-115714819D02*
X146925714Y-115762438D01*
X146925714Y-115762438D02*
X146973333Y-115810057D01*
X147925714Y-116714819D02*
X147354286Y-116714819D01*
X147640000Y-116714819D02*
X147640000Y-115714819D01*
X147640000Y-115714819D02*
X147544762Y-115857676D01*
X147544762Y-115857676D02*
X147449524Y-115952914D01*
X147449524Y-115952914D02*
X147354286Y-116000533D01*
X174751905Y-141964819D02*
X174751905Y-140964819D01*
X174751905Y-140964819D02*
X174990000Y-140964819D01*
X174990000Y-140964819D02*
X175132857Y-141012438D01*
X175132857Y-141012438D02*
X175228095Y-141107676D01*
X175228095Y-141107676D02*
X175275714Y-141202914D01*
X175275714Y-141202914D02*
X175323333Y-141393390D01*
X175323333Y-141393390D02*
X175323333Y-141536247D01*
X175323333Y-141536247D02*
X175275714Y-141726723D01*
X175275714Y-141726723D02*
X175228095Y-141821961D01*
X175228095Y-141821961D02*
X175132857Y-141917200D01*
X175132857Y-141917200D02*
X174990000Y-141964819D01*
X174990000Y-141964819D02*
X174751905Y-141964819D01*
X175656667Y-140964819D02*
X176323333Y-140964819D01*
X176323333Y-140964819D02*
X175894762Y-141964819D01*
X144993333Y-86064819D02*
X144660000Y-85588628D01*
X144421905Y-86064819D02*
X144421905Y-85064819D01*
X144421905Y-85064819D02*
X144802857Y-85064819D01*
X144802857Y-85064819D02*
X144898095Y-85112438D01*
X144898095Y-85112438D02*
X144945714Y-85160057D01*
X144945714Y-85160057D02*
X144993333Y-85255295D01*
X144993333Y-85255295D02*
X144993333Y-85398152D01*
X144993333Y-85398152D02*
X144945714Y-85493390D01*
X144945714Y-85493390D02*
X144898095Y-85541009D01*
X144898095Y-85541009D02*
X144802857Y-85588628D01*
X144802857Y-85588628D02*
X144421905Y-85588628D01*
X145374286Y-85160057D02*
X145421905Y-85112438D01*
X145421905Y-85112438D02*
X145517143Y-85064819D01*
X145517143Y-85064819D02*
X145755238Y-85064819D01*
X145755238Y-85064819D02*
X145850476Y-85112438D01*
X145850476Y-85112438D02*
X145898095Y-85160057D01*
X145898095Y-85160057D02*
X145945714Y-85255295D01*
X145945714Y-85255295D02*
X145945714Y-85350533D01*
X145945714Y-85350533D02*
X145898095Y-85493390D01*
X145898095Y-85493390D02*
X145326667Y-86064819D01*
X145326667Y-86064819D02*
X145945714Y-86064819D01*
X107925714Y-91074819D02*
X107925714Y-90074819D01*
X107925714Y-90074819D02*
X108163809Y-90074819D01*
X108163809Y-90074819D02*
X108306666Y-90122438D01*
X108306666Y-90122438D02*
X108401904Y-90217676D01*
X108401904Y-90217676D02*
X108449523Y-90312914D01*
X108449523Y-90312914D02*
X108497142Y-90503390D01*
X108497142Y-90503390D02*
X108497142Y-90646247D01*
X108497142Y-90646247D02*
X108449523Y-90836723D01*
X108449523Y-90836723D02*
X108401904Y-90931961D01*
X108401904Y-90931961D02*
X108306666Y-91027200D01*
X108306666Y-91027200D02*
X108163809Y-91074819D01*
X108163809Y-91074819D02*
X107925714Y-91074819D01*
X109449523Y-91074819D02*
X108878095Y-91074819D01*
X109163809Y-91074819D02*
X109163809Y-90074819D01*
X109163809Y-90074819D02*
X109068571Y-90217676D01*
X109068571Y-90217676D02*
X108973333Y-90312914D01*
X108973333Y-90312914D02*
X108878095Y-90360533D01*
X110401904Y-91074819D02*
X109830476Y-91074819D01*
X110116190Y-91074819D02*
X110116190Y-90074819D01*
X110116190Y-90074819D02*
X110020952Y-90217676D01*
X110020952Y-90217676D02*
X109925714Y-90312914D01*
X109925714Y-90312914D02*
X109830476Y-90360533D01*
X151198095Y-91234819D02*
X151198095Y-92044342D01*
X151198095Y-92044342D02*
X151245714Y-92139580D01*
X151245714Y-92139580D02*
X151293333Y-92187200D01*
X151293333Y-92187200D02*
X151388571Y-92234819D01*
X151388571Y-92234819D02*
X151579047Y-92234819D01*
X151579047Y-92234819D02*
X151674285Y-92187200D01*
X151674285Y-92187200D02*
X151721904Y-92139580D01*
X151721904Y-92139580D02*
X151769523Y-92044342D01*
X151769523Y-92044342D02*
X151769523Y-91234819D01*
X152198095Y-91330057D02*
X152245714Y-91282438D01*
X152245714Y-91282438D02*
X152340952Y-91234819D01*
X152340952Y-91234819D02*
X152579047Y-91234819D01*
X152579047Y-91234819D02*
X152674285Y-91282438D01*
X152674285Y-91282438D02*
X152721904Y-91330057D01*
X152721904Y-91330057D02*
X152769523Y-91425295D01*
X152769523Y-91425295D02*
X152769523Y-91520533D01*
X152769523Y-91520533D02*
X152721904Y-91663390D01*
X152721904Y-91663390D02*
X152150476Y-92234819D01*
X152150476Y-92234819D02*
X152769523Y-92234819D01*
D11*
%TO.C,D4*%
X184030000Y-89594000D02*
X184030000Y-89750000D01*
X184030000Y-91910000D02*
X184030000Y-92066000D01*
X184030000Y-89594484D02*
G75*
G02*
X187261437Y-89750000I1560000J-1235516D01*
G01*
X184549039Y-89750000D02*
G75*
G02*
X186630961Y-89750000I1040961J-1080000D01*
G01*
X186630961Y-91910000D02*
G75*
G02*
X184549039Y-91910000I-1040961J1080000D01*
G01*
X187261437Y-91910000D02*
G75*
G02*
X184030000Y-92065516I-1671437J1080000D01*
G01*
%TO.C,R3*%
X179260000Y-85100000D02*
X179590000Y-85100000D01*
X179260000Y-91640000D02*
X179260000Y-85100000D01*
X179590000Y-91640000D02*
X179260000Y-91640000D01*
X181670000Y-91640000D02*
X182000000Y-91640000D01*
X182000000Y-85100000D02*
X181670000Y-85100000D01*
X182000000Y-91640000D02*
X182000000Y-85100000D01*
%TO.C,D5*%
X193080000Y-93264000D02*
X193080000Y-93420000D01*
X193080000Y-95580000D02*
X193080000Y-95736000D01*
X193080000Y-93264484D02*
G75*
G02*
X196311437Y-93420000I1560000J-1235516D01*
G01*
X193599039Y-93420000D02*
G75*
G02*
X195680961Y-93420000I1040961J-1080000D01*
G01*
X195680961Y-95580000D02*
G75*
G02*
X193599039Y-95580000I-1040961J1080000D01*
G01*
X196311437Y-95580000D02*
G75*
G02*
X193080000Y-95735516I-1671437J1080000D01*
G01*
%TO.C,U1*%
X130550000Y-97080000D02*
X130550000Y-98730000D01*
X130550000Y-100730000D02*
X130550000Y-102380000D01*
X130550000Y-102380000D02*
X140830000Y-102380000D01*
X140830000Y-97080000D02*
X130550000Y-97080000D01*
X140830000Y-102380000D02*
X140830000Y-97080000D01*
X130550000Y-98730000D02*
G75*
G02*
X130550000Y-100730000I0J-1000000D01*
G01*
D12*
%TO.C,G\u002A\u002A\u002A*%
G36*
X152411645Y-99936440D02*
G01*
X152571393Y-100027939D01*
X152669277Y-100274641D01*
X152725257Y-100753623D01*
X152759294Y-101541960D01*
X152779638Y-102276948D01*
X152830241Y-103449078D01*
X152911100Y-104209037D01*
X153025616Y-104581760D01*
X153100638Y-104630827D01*
X153414515Y-104587139D01*
X154050627Y-104469507D01*
X154903505Y-104298084D01*
X155506312Y-104171182D01*
X156679274Y-103941093D01*
X157487460Y-103842789D01*
X157985478Y-103881962D01*
X158227939Y-104064303D01*
X158269449Y-104395502D01*
X158261725Y-104458332D01*
X158184073Y-104684417D01*
X157975327Y-104868589D01*
X157560422Y-105042493D01*
X156864296Y-105237774D01*
X155837747Y-105480195D01*
X154891242Y-105710953D01*
X154126525Y-105926760D01*
X153630151Y-106101242D01*
X153483868Y-106197437D01*
X153595666Y-106444916D01*
X153898742Y-106976565D01*
X154344613Y-107710085D01*
X154797661Y-108427700D01*
X155498071Y-109573984D01*
X155925849Y-110415306D01*
X156089449Y-110982524D01*
X155997323Y-111306495D01*
X155657925Y-111418078D01*
X155616987Y-111418758D01*
X155341857Y-111336291D01*
X155013044Y-111053103D01*
X154584154Y-110515513D01*
X154008795Y-109669843D01*
X153724576Y-109229103D01*
X153168361Y-108376600D01*
X152690572Y-107679173D01*
X152342470Y-107209303D01*
X152176027Y-107039448D01*
X152006972Y-107213543D01*
X151658604Y-107687360D01*
X151182012Y-108388197D01*
X150637316Y-109229103D01*
X150001204Y-110205490D01*
X149529170Y-110855213D01*
X149172555Y-111234399D01*
X148882701Y-111399172D01*
X148738953Y-111418758D01*
X148334422Y-111305489D01*
X148228695Y-110946073D01*
X148343765Y-110575536D01*
X148655169Y-109939918D01*
X149112201Y-109135735D01*
X149542488Y-108445318D01*
X150073351Y-107609037D01*
X150501409Y-106902727D01*
X150777578Y-106409478D01*
X150856282Y-106221363D01*
X150657232Y-106092880D01*
X150119269Y-105899349D01*
X149331169Y-105669869D01*
X148632282Y-105492377D01*
X147372108Y-105149216D01*
X146532056Y-104820123D01*
X146095023Y-104494323D01*
X146043905Y-104161039D01*
X146190476Y-103953875D01*
X146430160Y-103857824D01*
X146904866Y-103860016D01*
X147678278Y-103965754D01*
X148747045Y-104166813D01*
X149712488Y-104357151D01*
X150523671Y-104509672D01*
X151081367Y-104606165D01*
X151275451Y-104630827D01*
X151381162Y-104422161D01*
X151470468Y-103837174D01*
X151535920Y-102937386D01*
X151560512Y-102276948D01*
X151591007Y-101239713D01*
X151630148Y-100563187D01*
X151697894Y-100170294D01*
X151814205Y-99983958D01*
X151999041Y-99927102D01*
X152170075Y-99923069D01*
X152411645Y-99936440D01*
G37*
G36*
X156780305Y-87274854D02*
G01*
X157817126Y-88068233D01*
X158268351Y-88526685D01*
X159246428Y-89833751D01*
X159885158Y-91299724D01*
X160225447Y-92998419D01*
X160328553Y-93775163D01*
X160441131Y-94204192D01*
X160601811Y-94374750D01*
X160823594Y-94380376D01*
X161242466Y-94333565D01*
X161958095Y-94271821D01*
X162830130Y-94207054D01*
X163008868Y-94194925D01*
X164636669Y-94228476D01*
X166054740Y-94545425D01*
X167203969Y-95127293D01*
X167835048Y-95703797D01*
X168114505Y-96068270D01*
X168279153Y-96423020D01*
X168352751Y-96889292D01*
X168359057Y-97588329D01*
X168336808Y-98264309D01*
X168264040Y-100142034D01*
X169245501Y-100636905D01*
X170155119Y-101159691D01*
X170723448Y-101679994D01*
X171033972Y-102301888D01*
X171161140Y-103025055D01*
X171077146Y-104388350D01*
X170600616Y-105760182D01*
X169771349Y-107079310D01*
X168629144Y-108284488D01*
X167213802Y-109314473D01*
X166988978Y-109445241D01*
X165752158Y-110143259D01*
X166601225Y-111164198D01*
X167589166Y-112565369D01*
X168282702Y-114006117D01*
X168672057Y-115425319D01*
X168747454Y-116761848D01*
X168499118Y-117954579D01*
X167917272Y-118942388D01*
X167856155Y-119010587D01*
X167290507Y-119512447D01*
X166644235Y-119801301D01*
X165981463Y-119939103D01*
X165074699Y-120162422D01*
X164526690Y-120537725D01*
X164264781Y-121141715D01*
X164212360Y-121806730D01*
X164046127Y-122771345D01*
X163605738Y-123655843D01*
X162976029Y-124299637D01*
X162856361Y-124373531D01*
X162348569Y-124522916D01*
X161498667Y-124621481D01*
X160400643Y-124658409D01*
X160381282Y-124658440D01*
X159397640Y-124646250D01*
X158696361Y-124584119D01*
X158122147Y-124437624D01*
X157519706Y-124172340D01*
X157032348Y-123916079D01*
X155433119Y-122909031D01*
X154196094Y-121790882D01*
X153247416Y-120490937D01*
X153017400Y-120073163D01*
X152646482Y-119383500D01*
X152348099Y-118879465D01*
X152179844Y-118657494D01*
X152170075Y-118654406D01*
X152025928Y-118840224D01*
X151766007Y-119312613D01*
X151525628Y-119803165D01*
X150775471Y-121007394D01*
X149705599Y-122187184D01*
X148426110Y-123234167D01*
X147398730Y-123865179D01*
X146439376Y-124312732D01*
X145560190Y-124558664D01*
X144511211Y-124671470D01*
X144442696Y-124675222D01*
X143539815Y-124692103D01*
X142710903Y-124655225D01*
X142153752Y-124576117D01*
X141181867Y-124125979D01*
X140512091Y-123371034D01*
X140168718Y-122345003D01*
X140126971Y-121762862D01*
X140031767Y-120951562D01*
X139698922Y-120418412D01*
X139057591Y-120090342D01*
X138358686Y-119939103D01*
X137255541Y-119582459D01*
X136427295Y-118931176D01*
X135877362Y-118034242D01*
X135609153Y-116940644D01*
X135626082Y-115699368D01*
X135931561Y-114359401D01*
X136529002Y-112969731D01*
X137421818Y-111579344D01*
X137747776Y-111169405D01*
X138195835Y-110614927D01*
X138502675Y-110203070D01*
X138594213Y-110043573D01*
X138410328Y-109913789D01*
X138070951Y-109802145D01*
X137564804Y-109532254D01*
X137403286Y-109126533D01*
X137611912Y-108709926D01*
X137841805Y-108555055D01*
X138159350Y-108550762D01*
X138682566Y-108711308D01*
X139152705Y-108896100D01*
X140008499Y-109261007D01*
X140486707Y-109559072D01*
X140600513Y-109874325D01*
X140363106Y-110290797D01*
X139787670Y-110892519D01*
X139508406Y-111162863D01*
X138327928Y-112502359D01*
X137467999Y-113913642D01*
X136964626Y-115326366D01*
X136842661Y-116370695D01*
X136954331Y-117403834D01*
X137321553Y-118108205D01*
X137992086Y-118540533D01*
X138834262Y-118736233D01*
X139886112Y-119003872D01*
X140620463Y-119516569D01*
X141085875Y-120327213D01*
X141326581Y-121450671D01*
X141481682Y-122345848D01*
X141752608Y-122932048D01*
X142220465Y-123271235D01*
X142966359Y-123425370D01*
X143952848Y-123457053D01*
X145611582Y-123241516D01*
X147155453Y-122627648D01*
X148544484Y-121648597D01*
X149738699Y-120337513D01*
X150698124Y-118727544D01*
X151208669Y-117440310D01*
X151470414Y-116748435D01*
X151741805Y-116201745D01*
X151867425Y-116024855D01*
X152151126Y-115814876D01*
X152416490Y-115966743D01*
X152472724Y-116024855D01*
X152713476Y-116412684D01*
X152990776Y-117044956D01*
X153131481Y-117440310D01*
X153876418Y-119183412D01*
X154877573Y-120678214D01*
X155950003Y-121739272D01*
X157076672Y-122556124D01*
X158077006Y-123078668D01*
X159090505Y-123360611D01*
X160256667Y-123455661D01*
X160411765Y-123457053D01*
X161481545Y-123412338D01*
X162202885Y-123225471D01*
X162658840Y-122829109D01*
X162932463Y-122155907D01*
X163087526Y-121287426D01*
X163335797Y-120192565D01*
X163778854Y-119447825D01*
X164482179Y-118984921D01*
X165511254Y-118735568D01*
X165538072Y-118731963D01*
X166481146Y-118498509D01*
X167088708Y-118058236D01*
X167403136Y-117353588D01*
X167466808Y-116327007D01*
X167456397Y-116126517D01*
X167214673Y-114714008D01*
X166652497Y-113401815D01*
X165730194Y-112113942D01*
X164906316Y-111241709D01*
X164190229Y-110520088D01*
X163805854Y-110017963D01*
X163761050Y-109660036D01*
X164063677Y-109371010D01*
X164721592Y-109075588D01*
X165149099Y-108915566D01*
X166748448Y-108141692D01*
X168078885Y-107113797D01*
X169090247Y-105882073D01*
X169732373Y-104496708D01*
X169797369Y-104264645D01*
X169954262Y-103366853D01*
X169844084Y-102724627D01*
X169412458Y-102215862D01*
X168681492Y-101758982D01*
X167785555Y-101184227D01*
X167220029Y-100550346D01*
X166955489Y-99775195D01*
X166962511Y-98776626D01*
X167185348Y-97582264D01*
X167128518Y-96937717D01*
X166663080Y-96347880D01*
X165817423Y-95838901D01*
X164953730Y-95526829D01*
X164162447Y-95346265D01*
X163381378Y-95295015D01*
X162500582Y-95382229D01*
X161410117Y-95617061D01*
X160333441Y-95911430D01*
X159747974Y-96048973D01*
X159358873Y-96082191D01*
X159292055Y-96060279D01*
X159229460Y-95801894D01*
X159164448Y-95214893D01*
X159108060Y-94408386D01*
X159091802Y-94080932D01*
X158876883Y-92297087D01*
X158390575Y-90804738D01*
X157635304Y-89566549D01*
X157181755Y-89105708D01*
X156572116Y-88628631D01*
X155946798Y-88231152D01*
X155446214Y-88009106D01*
X155326268Y-87990570D01*
X155036528Y-88115992D01*
X154531450Y-88441838D01*
X154066488Y-88785686D01*
X153080544Y-89400379D01*
X152173216Y-89606234D01*
X151266163Y-89403252D01*
X150281044Y-88791431D01*
X150273661Y-88785686D01*
X149616830Y-88295601D01*
X149163428Y-88061202D01*
X148779492Y-88058981D01*
X148331062Y-88265424D01*
X148098949Y-88404012D01*
X146995359Y-89324158D01*
X146135178Y-90554385D01*
X145552594Y-92020052D01*
X145281792Y-93646520D01*
X145277201Y-94564765D01*
X145289997Y-95362425D01*
X145215520Y-95817016D01*
X145038278Y-96017479D01*
X145023043Y-96023751D01*
X144669973Y-96023176D01*
X144026745Y-95909681D01*
X143219364Y-95706698D01*
X143042759Y-95655492D01*
X141639867Y-95335955D01*
X140423573Y-95300183D01*
X139241485Y-95554680D01*
X138483614Y-95850141D01*
X137665167Y-96319553D01*
X137243280Y-96865169D01*
X137176591Y-97560600D01*
X137269787Y-98010311D01*
X137479136Y-99232223D01*
X137337171Y-100216361D01*
X136820543Y-101015167D01*
X135905899Y-101681080D01*
X135555401Y-101860395D01*
X134543351Y-102343570D01*
X134543351Y-103760906D01*
X134533358Y-104524211D01*
X134478332Y-104948715D01*
X134340702Y-105133483D01*
X134082895Y-105177580D01*
X134005809Y-105178241D01*
X133533992Y-105032878D01*
X133315997Y-104630827D01*
X133138861Y-103366520D01*
X133349863Y-102282528D01*
X133938950Y-101402624D01*
X134896067Y-100750582D01*
X134971345Y-100716402D01*
X135785237Y-100223850D01*
X136191548Y-99623415D01*
X136216258Y-98868932D01*
X136155187Y-98612741D01*
X135958823Y-97371931D01*
X136146932Y-96334855D01*
X136726355Y-95488513D01*
X137703938Y-94819905D01*
X138283066Y-94570746D01*
X139367636Y-94284831D01*
X140618425Y-94137949D01*
X141861368Y-94137435D01*
X142922402Y-94290623D01*
X143170991Y-94364765D01*
X143664009Y-94508336D01*
X143940307Y-94535503D01*
X143951025Y-94528989D01*
X144022227Y-94282629D01*
X144110240Y-93752998D01*
X144147746Y-93463586D01*
X144402776Y-91868713D01*
X144770499Y-90596038D01*
X145295880Y-89535096D01*
X146023884Y-88575424D01*
X146227391Y-88354590D01*
X147282629Y-87441688D01*
X148303065Y-86964082D01*
X149292838Y-86920871D01*
X150256085Y-87311153D01*
X150440711Y-87437347D01*
X151254085Y-88005162D01*
X151855294Y-88302786D01*
X152376814Y-88330216D01*
X152951124Y-88087454D01*
X153710700Y-87574500D01*
X153899439Y-87437347D01*
X154837403Y-86963386D01*
X155792378Y-86907897D01*
X156780305Y-87274854D01*
G37*
D11*
%TO.C,RV1*%
X128470000Y-86940000D02*
X128470000Y-92160000D01*
X128470000Y-86940000D02*
X130590000Y-86940000D01*
X128470000Y-92160000D02*
X138390000Y-92160000D01*
X131290000Y-86940000D02*
X138390000Y-86940000D01*
X138390000Y-86940000D02*
X138390000Y-92160000D01*
X130890000Y-86940000D02*
X130650000Y-86610000D01*
X131130000Y-86610000D01*
X130890000Y-86940000D01*
G36*
X130890000Y-86940000D02*
G01*
X130650000Y-86610000D01*
X131130000Y-86610000D01*
X130890000Y-86940000D01*
G37*
%TO.C,D8*%
X182970000Y-137564000D02*
X182970000Y-137720000D01*
X182970000Y-139880000D02*
X182970000Y-140036000D01*
X182970000Y-137564484D02*
G75*
G02*
X186201437Y-137720000I1560000J-1235516D01*
G01*
X183489039Y-137720000D02*
G75*
G02*
X185570961Y-137720000I1040961J-1080000D01*
G01*
X185570961Y-139880000D02*
G75*
G02*
X183489039Y-139880000I-1040961J1080000D01*
G01*
X186201437Y-139880000D02*
G75*
G02*
X182970000Y-140035516I-1671437J1080000D01*
G01*
%TO.C,D9*%
X126980000Y-142834000D02*
X126980000Y-142990000D01*
X126980000Y-145150000D02*
X126980000Y-145306000D01*
X126980000Y-142834484D02*
G75*
G02*
X130211437Y-142990000I1560000J-1235516D01*
G01*
X127499039Y-142990000D02*
G75*
G02*
X129580961Y-142990000I1040961J-1080000D01*
G01*
X129580961Y-145150000D02*
G75*
G02*
X127499039Y-145150000I-1040961J1080000D01*
G01*
X130211437Y-145150000D02*
G75*
G02*
X126980000Y-145305516I-1671437J1080000D01*
G01*
%TO.C,J1*%
X148230000Y-63170000D02*
X148230000Y-65930000D01*
X150880000Y-63170000D02*
X148230000Y-63170000D01*
X150880000Y-63170000D02*
X150880000Y-65930000D01*
X150880000Y-65930000D02*
X148230000Y-65930000D01*
X152150000Y-63170000D02*
X153530000Y-63170000D01*
X153530000Y-63170000D02*
X153530000Y-64550000D01*
%TO.C,D10*%
X119380000Y-134574000D02*
X119380000Y-134730000D01*
X119380000Y-136890000D02*
X119380000Y-137046000D01*
X119380000Y-134574484D02*
G75*
G02*
X122611437Y-134730000I1560000J-1235516D01*
G01*
X119899039Y-134730000D02*
G75*
G02*
X121980961Y-134730000I1040961J-1080000D01*
G01*
X121980961Y-136890000D02*
G75*
G02*
X119899039Y-136890000I-1040961J1080000D01*
G01*
X122611437Y-136890000D02*
G75*
G02*
X119380000Y-137045516I-1671437J1080000D01*
G01*
%TO.C,J2*%
X150070000Y-59420000D02*
X151450000Y-59420000D01*
X150070000Y-60800000D02*
X150070000Y-59420000D01*
X150070000Y-62070000D02*
X150070000Y-62180000D01*
X150070000Y-62070000D02*
X152830000Y-62070000D01*
X150070000Y-62180000D02*
X152830000Y-62180000D01*
X152830000Y-62070000D02*
X152830000Y-62180000D01*
%TO.C,C2*%
X132960000Y-107070000D02*
X140700000Y-107070000D01*
X132960000Y-109810000D02*
X132960000Y-107070000D01*
X140700000Y-107070000D02*
X140700000Y-109810000D01*
X140700000Y-109810000D02*
X132960000Y-109810000D01*
%TO.C,D6*%
X175970000Y-136394000D02*
X175970000Y-136550000D01*
X175970000Y-138710000D02*
X175970000Y-138866000D01*
X175970000Y-136394484D02*
G75*
G02*
X179201437Y-136550000I1560000J-1235516D01*
G01*
X176489039Y-136550000D02*
G75*
G02*
X178570961Y-136550000I1040961J-1080000D01*
G01*
X178570961Y-138710000D02*
G75*
G02*
X176489039Y-138710000I-1040961J1080000D01*
G01*
X179201437Y-138710000D02*
G75*
G02*
X175970000Y-138865516I-1671437J1080000D01*
G01*
%TO.C,D3*%
X188880000Y-82254000D02*
X188880000Y-82410000D01*
X188880000Y-84570000D02*
X188880000Y-84726000D01*
X188880000Y-82254484D02*
G75*
G02*
X192111437Y-82410000I1560000J-1235516D01*
G01*
X189399039Y-82410000D02*
G75*
G02*
X191480961Y-82410000I1040961J-1080000D01*
G01*
X191480961Y-84570000D02*
G75*
G02*
X189399039Y-84570000I-1040961J1080000D01*
G01*
X192111437Y-84570000D02*
G75*
G02*
X188880000Y-84725516I-1671437J1080000D01*
G01*
%TO.C,D12*%
X112030000Y-82904000D02*
X112030000Y-83060000D01*
X112030000Y-85220000D02*
X112030000Y-85376000D01*
X112030000Y-82904484D02*
G75*
G02*
X115261437Y-83060000I1560000J-1235516D01*
G01*
X112549039Y-83060000D02*
G75*
G02*
X114630961Y-83060000I1040961J-1080000D01*
G01*
X114630961Y-85220000D02*
G75*
G02*
X112549039Y-85220000I-1040961J1080000D01*
G01*
X115261437Y-85220000D02*
G75*
G02*
X112030000Y-85375516I-1671437J1080000D01*
G01*
%TO.C,C1*%
X144335225Y-118535000D02*
X144835225Y-118535000D01*
X144585225Y-118285000D02*
X144585225Y-118785000D01*
X147140000Y-117430000D02*
X147140000Y-118970000D01*
X147140000Y-121050000D02*
X147140000Y-122590000D01*
X147180000Y-117430000D02*
X147180000Y-118970000D01*
X147180000Y-121050000D02*
X147180000Y-122590000D01*
X147220000Y-117431000D02*
X147220000Y-118970000D01*
X147220000Y-121050000D02*
X147220000Y-122589000D01*
X147260000Y-117433000D02*
X147260000Y-118970000D01*
X147260000Y-121050000D02*
X147260000Y-122587000D01*
X147300000Y-117435000D02*
X147300000Y-118970000D01*
X147300000Y-121050000D02*
X147300000Y-122585000D01*
X147340000Y-117438000D02*
X147340000Y-118970000D01*
X147340000Y-121050000D02*
X147340000Y-122582000D01*
X147380000Y-117441000D02*
X147380000Y-118970000D01*
X147380000Y-121050000D02*
X147380000Y-122579000D01*
X147420000Y-117445000D02*
X147420000Y-118970000D01*
X147420000Y-121050000D02*
X147420000Y-122575000D01*
X147460000Y-117450000D02*
X147460000Y-118970000D01*
X147460000Y-121050000D02*
X147460000Y-122570000D01*
X147500000Y-117455000D02*
X147500000Y-118970000D01*
X147500000Y-121050000D02*
X147500000Y-122565000D01*
X147540000Y-117461000D02*
X147540000Y-118970000D01*
X147540000Y-121050000D02*
X147540000Y-122559000D01*
X147580000Y-117467000D02*
X147580000Y-118970000D01*
X147580000Y-121050000D02*
X147580000Y-122553000D01*
X147620000Y-117474000D02*
X147620000Y-118970000D01*
X147620000Y-121050000D02*
X147620000Y-122546000D01*
X147660000Y-117482000D02*
X147660000Y-118970000D01*
X147660000Y-121050000D02*
X147660000Y-122538000D01*
X147700000Y-117491000D02*
X147700000Y-118970000D01*
X147700000Y-121050000D02*
X147700000Y-122529000D01*
X147740000Y-117500000D02*
X147740000Y-118970000D01*
X147740000Y-121050000D02*
X147740000Y-122520000D01*
X147780000Y-117509000D02*
X147780000Y-118970000D01*
X147780000Y-121050000D02*
X147780000Y-122511000D01*
X147820000Y-117520000D02*
X147820000Y-118970000D01*
X147820000Y-121050000D02*
X147820000Y-122500000D01*
X147860000Y-117531000D02*
X147860000Y-118970000D01*
X147860000Y-121050000D02*
X147860000Y-122489000D01*
X147900000Y-117543000D02*
X147900000Y-118970000D01*
X147900000Y-121050000D02*
X147900000Y-122477000D01*
X147940000Y-117555000D02*
X147940000Y-118970000D01*
X147940000Y-121050000D02*
X147940000Y-122465000D01*
X147980000Y-117568000D02*
X147980000Y-118970000D01*
X147980000Y-121050000D02*
X147980000Y-122452000D01*
X148020000Y-117582000D02*
X148020000Y-118970000D01*
X148020000Y-121050000D02*
X148020000Y-122438000D01*
X148060000Y-117597000D02*
X148060000Y-118970000D01*
X148060000Y-121050000D02*
X148060000Y-122423000D01*
X148100000Y-117612000D02*
X148100000Y-118970000D01*
X148100000Y-121050000D02*
X148100000Y-122408000D01*
X148140000Y-117628000D02*
X148140000Y-118970000D01*
X148140000Y-121050000D02*
X148140000Y-122392000D01*
X148180000Y-117645000D02*
X148180000Y-118970000D01*
X148180000Y-121050000D02*
X148180000Y-122375000D01*
X148220000Y-117663000D02*
X148220000Y-118970000D01*
X148220000Y-121050000D02*
X148220000Y-122357000D01*
X148260000Y-117681000D02*
X148260000Y-118970000D01*
X148260000Y-121050000D02*
X148260000Y-122339000D01*
X148300000Y-117701000D02*
X148300000Y-118970000D01*
X148300000Y-121050000D02*
X148300000Y-122319000D01*
X148340000Y-117721000D02*
X148340000Y-118970000D01*
X148340000Y-121050000D02*
X148340000Y-122299000D01*
X148380000Y-117742000D02*
X148380000Y-118970000D01*
X148380000Y-121050000D02*
X148380000Y-122278000D01*
X148420000Y-117764000D02*
X148420000Y-118970000D01*
X148420000Y-121050000D02*
X148420000Y-122256000D01*
X148460000Y-117787000D02*
X148460000Y-118970000D01*
X148460000Y-121050000D02*
X148460000Y-122233000D01*
X148500000Y-117811000D02*
X148500000Y-118970000D01*
X148500000Y-121050000D02*
X148500000Y-122209000D01*
X148540000Y-117835000D02*
X148540000Y-118970000D01*
X148540000Y-121050000D02*
X148540000Y-122185000D01*
X148580000Y-117861000D02*
X148580000Y-118970000D01*
X148580000Y-121050000D02*
X148580000Y-122159000D01*
X148620000Y-117888000D02*
X148620000Y-118970000D01*
X148620000Y-121050000D02*
X148620000Y-122132000D01*
X148660000Y-117916000D02*
X148660000Y-118970000D01*
X148660000Y-121050000D02*
X148660000Y-122104000D01*
X148700000Y-117945000D02*
X148700000Y-118970000D01*
X148700000Y-121050000D02*
X148700000Y-122075000D01*
X148740000Y-117975000D02*
X148740000Y-118970000D01*
X148740000Y-121050000D02*
X148740000Y-122045000D01*
X148780000Y-118007000D02*
X148780000Y-118970000D01*
X148780000Y-121050000D02*
X148780000Y-122013000D01*
X148820000Y-118040000D02*
X148820000Y-118970000D01*
X148820000Y-121050000D02*
X148820000Y-121980000D01*
X148860000Y-118074000D02*
X148860000Y-118970000D01*
X148860000Y-121050000D02*
X148860000Y-121946000D01*
X148900000Y-118109000D02*
X148900000Y-118970000D01*
X148900000Y-121050000D02*
X148900000Y-121911000D01*
X148940000Y-118146000D02*
X148940000Y-118970000D01*
X148940000Y-121050000D02*
X148940000Y-121874000D01*
X148980000Y-118185000D02*
X148980000Y-118970000D01*
X148980000Y-121050000D02*
X148980000Y-121835000D01*
X149020000Y-118225000D02*
X149020000Y-118970000D01*
X149020000Y-121050000D02*
X149020000Y-121795000D01*
X149060000Y-118267000D02*
X149060000Y-118970000D01*
X149060000Y-121050000D02*
X149060000Y-121753000D01*
X149100000Y-118311000D02*
X149100000Y-118970000D01*
X149100000Y-121050000D02*
X149100000Y-121709000D01*
X149140000Y-118358000D02*
X149140000Y-118970000D01*
X149140000Y-121050000D02*
X149140000Y-121662000D01*
X149180000Y-118406000D02*
X149180000Y-121614000D01*
X149220000Y-118457000D02*
X149220000Y-121563000D01*
X149260000Y-118511000D02*
X149260000Y-121509000D01*
X149300000Y-118567000D02*
X149300000Y-121453000D01*
X149340000Y-118627000D02*
X149340000Y-121393000D01*
X149380000Y-118691000D02*
X149380000Y-121329000D01*
X149420000Y-118759000D02*
X149420000Y-121261000D01*
X149460000Y-118833000D02*
X149460000Y-121187000D01*
X149500000Y-118912000D02*
X149500000Y-121108000D01*
X149540000Y-118999000D02*
X149540000Y-121021000D01*
X149580000Y-119096000D02*
X149580000Y-120924000D01*
X149620000Y-119205000D02*
X149620000Y-120815000D01*
X149660000Y-119333000D02*
X149660000Y-120687000D01*
X149700000Y-119493000D02*
X149700000Y-120527000D01*
X149740000Y-119727000D02*
X149740000Y-120293000D01*
X149760000Y-120010000D02*
G75*
G02*
X144520000Y-120010000I-2620000J0D01*
G01*
X144520000Y-120010000D02*
G75*
G02*
X149760000Y-120010000I2620000J0D01*
G01*
%TO.C,D7*%
X173930000Y-143234000D02*
X173930000Y-143390000D01*
X173930000Y-145550000D02*
X173930000Y-145706000D01*
X173930000Y-143234484D02*
G75*
G02*
X177161437Y-143390000I1560000J-1235516D01*
G01*
X174449039Y-143390000D02*
G75*
G02*
X176530961Y-143390000I1040961J-1080000D01*
G01*
X176530961Y-145550000D02*
G75*
G02*
X174449039Y-145550000I-1040961J1080000D01*
G01*
X177161437Y-145550000D02*
G75*
G02*
X173930000Y-145705516I-1671437J1080000D01*
G01*
%TO.C,R2*%
X141890000Y-86610000D02*
X148430000Y-86610000D01*
X141890000Y-86940000D02*
X141890000Y-86610000D01*
X141890000Y-89020000D02*
X141890000Y-89350000D01*
X141890000Y-89350000D02*
X148430000Y-89350000D01*
X148430000Y-86610000D02*
X148430000Y-86940000D01*
X148430000Y-89350000D02*
X148430000Y-89020000D01*
%TO.C,D11*%
X107580000Y-92344000D02*
X107580000Y-92500000D01*
X107580000Y-94660000D02*
X107580000Y-94816000D01*
X107580000Y-92344484D02*
G75*
G02*
X110811437Y-92500000I1560000J-1235516D01*
G01*
X108099039Y-92500000D02*
G75*
G02*
X110180961Y-92500000I1040961J-1080000D01*
G01*
X110180961Y-94660000D02*
G75*
G02*
X108099039Y-94660000I-1040961J1080000D01*
G01*
X110811437Y-94660000D02*
G75*
G02*
X107580000Y-94815516I-1671437J1080000D01*
G01*
D13*
%TO.C,U2*%
X148468000Y-95260440D02*
X148468000Y-95981431D01*
X148468000Y-97658569D02*
X148468000Y-98521431D01*
X148468000Y-100198569D02*
X148468000Y-101061431D01*
X148468000Y-102738569D02*
X148468000Y-103601431D01*
X148468000Y-105278569D02*
X148468000Y-106141431D01*
X148468000Y-107818569D02*
X148468000Y-108681431D01*
X148468000Y-110358569D02*
X148468000Y-111221431D01*
X148468000Y-113012500D02*
X155072000Y-113012500D01*
X155072000Y-93327500D02*
X148741165Y-93327500D01*
X155072000Y-95981431D02*
X155072000Y-95118569D01*
X155072000Y-98521431D02*
X155072000Y-97658569D01*
X155072000Y-101061431D02*
X155072000Y-100198569D01*
X155072000Y-103601431D02*
X155072000Y-102738569D01*
X155072000Y-106141431D02*
X155072000Y-105278569D01*
X155072000Y-108681431D02*
X155072000Y-107818569D01*
X155072000Y-111221431D02*
X155072000Y-110358569D01*
X152074800Y-93327500D02*
G75*
G02*
X151465200Y-93327500I-304800J0D01*
G01*
%TD*%
M02*
